%TF.GenerationSoftware,KiCad,Pcbnew,9.0.4*%
%TF.CreationDate,2026-04-27T22:43:16+03:00*%
%TF.ProjectId,PhoneController,50686f6e-6543-46f6-9e74-726f6c6c6572,rev?*%
%TF.SameCoordinates,Original*%
%TF.FileFunction,Paste,Bot*%
%TF.FilePolarity,Positive*%
%FSLAX46Y46*%
G04 Gerber Fmt 4.6, Leading zero omitted, Abs format (unit mm)*
G04 Created by KiCad (PCBNEW 9.0.4) date 2026-04-27 22:43:16*
%MOMM*%
%LPD*%
G01*
G04 APERTURE LIST*
G04 Aperture macros list*
%AMRoundRect*
0 Rectangle with rounded corners*
0 $1 Rounding radius*
0 $2 $3 $4 $5 $6 $7 $8 $9 X,Y pos of 4 corners*
0 Add a 4 corners polygon primitive as box body*
4,1,4,$2,$3,$4,$5,$6,$7,$8,$9,$2,$3,0*
0 Add four circle primitives for the rounded corners*
1,1,$1+$1,$2,$3*
1,1,$1+$1,$4,$5*
1,1,$1+$1,$6,$7*
1,1,$1+$1,$8,$9*
0 Add four rect primitives between the rounded corners*
20,1,$1+$1,$2,$3,$4,$5,0*
20,1,$1+$1,$4,$5,$6,$7,0*
20,1,$1+$1,$6,$7,$8,$9,0*
20,1,$1+$1,$8,$9,$2,$3,0*%
G04 Aperture macros list end*
%ADD10R,2.400000X3.050000*%
%ADD11R,0.300000X0.800000*%
%ADD12RoundRect,0.250000X-0.450000X0.350000X-0.450000X-0.350000X0.450000X-0.350000X0.450000X0.350000X0*%
%ADD13RoundRect,0.250000X-0.475000X0.337500X-0.475000X-0.337500X0.475000X-0.337500X0.475000X0.337500X0*%
%ADD14RoundRect,0.250000X0.350000X0.450000X-0.350000X0.450000X-0.350000X-0.450000X0.350000X-0.450000X0*%
%ADD15RoundRect,0.250000X-0.350000X-0.450000X0.350000X-0.450000X0.350000X0.450000X-0.350000X0.450000X0*%
%ADD16RoundRect,0.250000X-0.650000X0.412500X-0.650000X-0.412500X0.650000X-0.412500X0.650000X0.412500X0*%
%ADD17RoundRect,0.250000X0.450000X-0.350000X0.450000X0.350000X-0.450000X0.350000X-0.450000X-0.350000X0*%
%ADD18RoundRect,0.250000X-0.337500X-0.475000X0.337500X-0.475000X0.337500X0.475000X-0.337500X0.475000X0*%
%ADD19R,1.200000X1.400000*%
%ADD20RoundRect,0.375000X-0.375000X0.625000X-0.375000X-0.625000X0.375000X-0.625000X0.375000X0.625000X0*%
%ADD21RoundRect,0.500000X-1.400000X0.500000X-1.400000X-0.500000X1.400000X-0.500000X1.400000X0.500000X0*%
%ADD22RoundRect,0.249999X-0.395001X0.395001X-0.395001X-0.395001X0.395001X-0.395001X0.395001X0.395001X0*%
%ADD23RoundRect,0.050000X-0.050000X0.387500X-0.050000X-0.387500X0.050000X-0.387500X0.050000X0.387500X0*%
%ADD24RoundRect,0.050000X-0.387500X0.050000X-0.387500X-0.050000X0.387500X-0.050000X0.387500X0.050000X0*%
%ADD25R,2.000000X1.050000*%
%ADD26RoundRect,0.250000X0.475000X-0.337500X0.475000X0.337500X-0.475000X0.337500X-0.475000X-0.337500X0*%
%ADD27RoundRect,0.250000X0.325000X0.450000X-0.325000X0.450000X-0.325000X-0.450000X0.325000X-0.450000X0*%
%ADD28RoundRect,0.040600X-0.764400X-0.249400X0.764400X-0.249400X0.764400X0.249400X-0.764400X0.249400X0*%
G04 APERTURE END LIST*
D10*
%TO.C,J2*%
X9300000Y-4400000D03*
X16700000Y-4400000D03*
D11*
X11750000Y-2475000D03*
X12250000Y-2475000D03*
X12750000Y-2475000D03*
X13250000Y-2475000D03*
X13750000Y-2475000D03*
X14250000Y-2475000D03*
%TD*%
D12*
%TO.C,R17*%
X53900000Y-42100000D03*
X53900000Y-44100000D03*
%TD*%
%TO.C,R15*%
X23700000Y-3100000D03*
X23700000Y-5100000D03*
%TD*%
D13*
%TO.C,C5*%
X35500000Y-28962500D03*
X35500000Y-31037500D03*
%TD*%
%TO.C,C13*%
X37053622Y-23150000D03*
X37053622Y-25225000D03*
%TD*%
D14*
%TO.C,R13*%
X59496378Y-27400000D03*
X57496378Y-27400000D03*
%TD*%
D15*
%TO.C,R7*%
X20000000Y-22450000D03*
X22000000Y-22450000D03*
%TD*%
D13*
%TO.C,C11*%
X40210000Y-13700000D03*
X40210000Y-15775000D03*
%TD*%
D12*
%TO.C,R5*%
X36750000Y-40650000D03*
X36750000Y-42650000D03*
%TD*%
D16*
%TO.C,C2*%
X34500000Y-6937500D03*
X34500000Y-10062500D03*
%TD*%
D13*
%TO.C,C6*%
X45920000Y-13660000D03*
X45920000Y-15735000D03*
%TD*%
D17*
%TO.C,R2*%
X13500000Y-15800000D03*
X13500000Y-13800000D03*
%TD*%
D18*
%TO.C,C3*%
X57500000Y-29450000D03*
X59575000Y-29450000D03*
%TD*%
D19*
%TO.C,Y1*%
X59300000Y-31600000D03*
X59300000Y-33800000D03*
X57600000Y-33800000D03*
X57600000Y-31600000D03*
%TD*%
D20*
%TO.C,U3*%
X37500000Y-3362500D03*
X39800000Y-3362500D03*
D21*
X39800000Y-9662500D03*
D20*
X42100000Y-3362500D03*
%TD*%
D13*
%TO.C,C15*%
X47800000Y-27425000D03*
X47800000Y-29500000D03*
%TD*%
D14*
%TO.C,R3*%
X7000000Y-22400000D03*
X5000000Y-22400000D03*
%TD*%
D22*
%TO.C,U1*%
X52962500Y-34362500D03*
X51362500Y-34362500D03*
X52962500Y-35962500D03*
X51362500Y-35962500D03*
D23*
X49562500Y-31725000D03*
X49962500Y-31725000D03*
X50362500Y-31725000D03*
X50762500Y-31725000D03*
X51162500Y-31725000D03*
X51562500Y-31725000D03*
X51962500Y-31725000D03*
X52362500Y-31725000D03*
X52762500Y-31725000D03*
X53162500Y-31725000D03*
X53562500Y-31725000D03*
X53962500Y-31725000D03*
X54362500Y-31725000D03*
X54762500Y-31725000D03*
D24*
X55600000Y-32562500D03*
X55600000Y-32962500D03*
X55600000Y-33362500D03*
X55600000Y-33762500D03*
X55600000Y-34162500D03*
X55600000Y-34562500D03*
X55600000Y-34962500D03*
X55600000Y-35362500D03*
X55600000Y-35762500D03*
X55600000Y-36162500D03*
X55600000Y-36562500D03*
X55600000Y-36962500D03*
X55600000Y-37362500D03*
X55600000Y-37762500D03*
D23*
X54762500Y-38600000D03*
X54362500Y-38600000D03*
X53962500Y-38600000D03*
X53562500Y-38600000D03*
X53162500Y-38600000D03*
X52762500Y-38600000D03*
X52362500Y-38600000D03*
X51962500Y-38600000D03*
X51562500Y-38600000D03*
X51162500Y-38600000D03*
X50762500Y-38600000D03*
X50362500Y-38600000D03*
X49962500Y-38600000D03*
X49562500Y-38600000D03*
D24*
X48725000Y-37762500D03*
X48725000Y-37362500D03*
X48725000Y-36962500D03*
X48725000Y-36562500D03*
X48725000Y-36162500D03*
X48725000Y-35762500D03*
X48725000Y-35362500D03*
X48725000Y-34962500D03*
X48725000Y-34562500D03*
X48725000Y-34162500D03*
X48725000Y-33762500D03*
X48725000Y-33362500D03*
X48725000Y-32962500D03*
X48725000Y-32562500D03*
%TD*%
D25*
%TO.C,SW1*%
X58000000Y-3275000D03*
X58000000Y-7725000D03*
%TD*%
D13*
%TO.C,C14*%
X45840000Y-27425000D03*
X45840000Y-29500000D03*
%TD*%
%TO.C,C12*%
X43220000Y-13700000D03*
X43220000Y-15775000D03*
%TD*%
D14*
%TO.C,R1*%
X52000000Y-12500000D03*
X50000000Y-12500000D03*
%TD*%
D26*
%TO.C,C4*%
X59700000Y-37737500D03*
X59700000Y-35662500D03*
%TD*%
D13*
%TO.C,C16*%
X49800000Y-27425000D03*
X49800000Y-29500000D03*
%TD*%
D17*
%TO.C,R10*%
X5400000Y-5100000D03*
X5400000Y-3100000D03*
%TD*%
D15*
%TO.C,R4*%
X52000000Y-17200000D03*
X54000000Y-17200000D03*
%TD*%
D13*
%TO.C,C9*%
X45723622Y-23115000D03*
X45723622Y-25190000D03*
%TD*%
%TO.C,C8*%
X42713622Y-23115000D03*
X42713622Y-25190000D03*
%TD*%
D15*
%TO.C,R16*%
X54500000Y-12500000D03*
X56500000Y-12500000D03*
%TD*%
D13*
%TO.C,C10*%
X37200000Y-13700000D03*
X37200000Y-15775000D03*
%TD*%
D16*
%TO.C,C1*%
X45000000Y-6937500D03*
X45000000Y-10062500D03*
%TD*%
D13*
%TO.C,C7*%
X39703622Y-23115000D03*
X39703622Y-25190000D03*
%TD*%
D27*
%TO.C,D1*%
X59521378Y-25150000D03*
X57471378Y-25150000D03*
%TD*%
D15*
%TO.C,R8*%
X41103622Y-27492755D03*
X43103622Y-27492755D03*
%TD*%
D17*
%TO.C,R12*%
X57700000Y-37700000D03*
X57700000Y-35700000D03*
%TD*%
D28*
%TO.C,U4*%
X37895000Y-35405000D03*
X37895000Y-34135000D03*
X37895000Y-32865000D03*
X37895000Y-31595000D03*
X45105000Y-31595000D03*
X45105000Y-32865000D03*
X45105000Y-34135000D03*
X45105000Y-35405000D03*
%TD*%
D12*
%TO.C,R11*%
X3300000Y-3100000D03*
X3300000Y-5100000D03*
%TD*%
%TO.C,R9*%
X25750000Y-40500000D03*
X25750000Y-42500000D03*
%TD*%
%TO.C,R6*%
X13400000Y-29200000D03*
X13400000Y-31200000D03*
%TD*%
M02*
