%TF.GenerationSoftware,KiCad,Pcbnew,9.0.4*%
%TF.CreationDate,2026-04-27T22:43:16+03:00*%
%TF.ProjectId,PhoneController,50686f6e-6543-46f6-9e74-726f6c6c6572,rev?*%
%TF.SameCoordinates,Original*%
%TF.FileFunction,Copper,L1,Top*%
%TF.FilePolarity,Positive*%
%FSLAX46Y46*%
G04 Gerber Fmt 4.6, Leading zero omitted, Abs format (unit mm)*
G04 Created by KiCad (PCBNEW 9.0.4) date 2026-04-27 22:43:16*
%MOMM*%
%LPD*%
G01*
G04 APERTURE LIST*
G04 Aperture macros list*
%AMFreePoly0*
4,1,79,-1.599454,1.877482,-1.372025,1.715632,-1.166915,1.526293,-0.987425,1.312511,-0.836441,1.077728,-0.716394,0.825720,-0.695446,0.762000,0.821500,0.762000,0.821500,-0.762000,-0.700154,-0.762000,-0.715914,-0.810034,-0.835814,-1.062113,-0.986660,-1.296984,-1.166025,-1.510871,-1.371024,-1.700330,-1.598357,-1.862314,-1.844368,-1.994215,-2.105097,-2.093913,-2.376350,-2.159802,-2.653761,-2.190822,
-2.932868,-2.186474,-3.209178,-2.146829,-3.269847,-2.118978,-3.312423,-2.067561,-3.328475,-2.002764,-3.314821,-1.937418,-3.274168,-1.884468,-3.214567,-1.854401,-3.147822,-1.853171,-3.147822,-1.853170,-3.017729,-1.880352,-2.752509,-1.897975,-2.487418,-1.878514,-2.227615,-1.822350,-1.978157,-1.730575,-1.743899,-1.604974,-1.529401,-1.447994,-1.338839,-1.262689,-1.175920,-1.052666,-1.059845,-0.850000,
-4.098500,-0.850000,-4.127764,-0.847118,-4.181836,-0.824720,-4.223220,-0.783336,-4.245618,-0.729264,-4.245618,-0.670736,-4.223220,-0.616664,-4.181836,-0.575280,-4.127764,-0.552882,-4.098500,-0.550000,-0.938904,-0.550000,-0.881689,-0.317090,-0.854822,-0.052647,-0.865019,0.212962,-0.912082,0.474567,-0.936881,0.550000,-4.098500,0.550000,-4.127764,0.552882,-4.181836,0.575280,-4.223220,0.616664,
-4.245618,0.670736,-4.245618,0.729264,-4.223220,0.783336,-4.181836,0.824720,-4.127764,0.847118,-4.098500,0.850000,-1.055579,0.850000,-1.112445,0.965574,-1.261844,1.185419,-1.440386,1.382333,-1.644595,1.552481,-1.757546,1.622518,-1.805031,1.669440,-1.827454,1.732317,-1.820375,1.798697,-1.785196,1.855432,-1.728885,1.891285,-1.662594,1.899154,-1.599454,1.877482,-1.599454,1.877482,
$1*%
%AMFreePoly1*
4,1,88,2.852255,2.193720,3.128565,2.154075,3.128565,2.154074,3.189234,2.126223,3.231810,2.074807,3.247862,2.010009,3.234209,1.944664,3.193555,1.891713,3.133954,1.861646,3.067209,1.860416,2.937116,1.887597,2.671896,1.905220,2.406805,1.885759,2.147003,1.829594,1.897545,1.737819,1.733754,1.650000,3.338500,1.650000,3.367764,1.647118,3.421836,1.624720,3.463220,1.583336,
3.485618,1.529264,3.485618,1.470736,3.463220,1.416664,3.421836,1.375280,3.367764,1.352882,3.338500,1.350000,1.340566,1.350000,1.258227,1.269933,1.095309,1.059911,0.963205,0.829258,0.864488,0.582465,0.821500,0.407469,0.821500,0.150000,4.198500,0.150000,4.227764,0.147118,4.281836,0.124720,4.323220,0.083336,4.345618,0.029264,4.345618,-0.029264,4.323220,-0.083336,
4.281836,-0.124720,4.227764,-0.147118,4.198500,-0.150000,0.821500,-0.150000,0.821500,-0.411897,0.831471,-0.467322,0.914485,-0.719831,1.031833,-0.958329,1.181232,-1.178174,1.337027,-1.350000,3.338500,-1.350000,3.367764,-1.352882,3.421836,-1.375280,3.463220,-1.416664,3.485618,-1.470736,3.485618,-1.529264,3.463220,-1.583336,3.421836,-1.624720,3.367764,-1.647118,3.338500,-1.650000,
1.712077,-1.650000,1.724418,-1.662195,1.746841,-1.725072,1.739762,-1.791452,1.704583,-1.848187,1.648272,-1.884040,1.581981,-1.891909,1.518841,-1.870237,1.291412,-1.708386,1.086303,-1.519047,0.906812,-1.305266,0.755829,-1.070483,0.635782,-0.818475,0.617216,-0.762000,-0.821500,-0.762000,-0.821500,0.762000,0.617166,0.762000,0.635303,0.817279,0.755203,1.069357,0.906048,1.304228,
1.085414,1.518115,1.290412,1.707574,1.517746,1.869558,1.763756,2.001459,2.024485,2.101157,2.295737,2.167046,2.573148,2.198067,2.852255,2.193720,2.852255,2.193720,$1*%
%AMFreePoly2*
4,1,101,1.143000,-0.650000,4.250000,-0.650000,4.269509,-0.651921,4.305557,-0.666853,4.333147,-0.694443,4.348079,-0.730491,4.350000,-0.750000,4.350000,-3.250000,4.348079,-3.269509,4.333147,-3.305557,4.305557,-3.333147,4.269509,-3.348079,4.250000,-3.350000,3.850000,-3.350000,3.850000,-4.750000,3.848079,-4.769509,3.833147,-4.805557,3.805557,-4.833147,3.769509,-4.848079,3.750000,-4.850000,
2.250000,-4.850000,2.230491,-4.848079,2.194443,-4.833147,2.166853,-4.805557,2.151921,-4.769509,2.150000,-4.750000,2.150000,-3.250000,2.151921,-3.230491,2.166853,-3.194443,2.194443,-3.166853,2.230491,-3.151921,2.250000,-3.150000,4.150000,-3.150000,4.150000,-0.850000,1.850000,-0.850000,1.850000,-2.750000,1.848079,-2.769509,1.833147,-2.805557,1.805557,-2.833147,1.769509,-2.848079,
1.750000,-2.850000,0.291422,-2.850000,-0.150000,-3.291422,-0.150000,-4.750000,-0.151921,-4.769509,-0.166853,-4.805557,-0.194443,-4.833147,-0.230491,-4.848079,-0.250000,-4.850000,-1.750000,-4.850000,-1.769509,-4.848079,-1.805557,-4.833147,-1.833147,-4.805557,-1.848079,-4.769509,-1.850000,-4.750000,-1.850000,-3.250000,-1.848079,-3.230491,-1.833147,-3.194443,-1.805557,-3.166853,-1.769509,-3.151921,
-1.750000,-3.150000,-0.291422,-3.150000,0.150000,-2.708578,0.150000,-1.250000,0.151921,-1.230491,0.166853,-1.194443,0.194443,-1.166853,0.230491,-1.151921,0.250000,-1.150000,1.650000,-1.150000,1.650000,-0.850000,-2.150000,-0.850000,-2.150000,-2.750000,-2.151921,-2.769509,-2.166853,-2.805557,-2.194443,-2.833147,-2.230491,-2.848079,-2.250000,-2.850000,-3.750000,-2.850000,-3.769509,-2.848079,
-3.805557,-2.833147,-3.833147,-2.805557,-3.848079,-2.769509,-3.850000,-2.750000,-3.850000,-1.250000,-3.848079,-1.230491,-3.833147,-1.194443,-3.805557,-1.166853,-3.769509,-1.151921,-3.750000,-1.150000,-2.350000,-1.150000,-2.350000,-0.750000,-2.348079,-0.730491,-2.333147,-0.694443,-2.305557,-0.666853,-2.269509,-0.651921,-2.250000,-0.650000,-1.143000,-0.650000,-1.143000,0.762000,1.143000,0.762000,
1.143000,-0.650000,1.143000,-0.650000,$1*%
%AMFreePoly3*
4,1,84,-0.230491,4.848079,-0.194443,4.833147,-0.166853,4.805557,-0.151921,4.769509,-0.150000,4.750000,-0.150000,3.250000,-0.151921,3.230491,-0.166853,3.194443,-0.194443,3.166853,-0.230491,3.151921,-0.250000,3.150000,-1.708578,3.150000,-2.150000,2.708578,-2.150000,0.850000,0.150000,0.850000,0.150000,2.750000,0.151921,2.769509,0.166853,2.805557,0.194443,2.833147,0.230491,2.848079,
0.250000,2.850000,1.708578,2.850000,2.150000,3.291422,2.150000,4.750000,2.151921,4.769509,2.166853,4.805557,2.194443,4.833147,2.230491,4.848079,2.250000,4.850000,3.750000,4.850000,3.769509,4.848079,3.805557,4.833147,3.833147,4.805557,3.848079,4.769509,3.850000,4.750000,3.850000,3.250000,3.848079,3.230491,3.833147,3.194443,3.805557,3.166853,3.769509,3.151921,
3.750000,3.150000,2.291422,3.150000,1.850000,2.708578,1.850000,1.250000,1.848079,1.230491,1.833147,1.194443,1.805557,1.166853,1.769509,1.151921,1.750000,1.150000,0.350000,1.150000,0.350000,0.762000,1.143000,0.762000,1.143000,-0.762000,-1.143000,-0.762000,-1.143000,0.650000,-2.250000,0.650000,-2.269509,0.651921,-2.305557,0.666853,-2.333147,0.694443,-2.348079,0.730491,
-2.350000,0.750000,-2.350000,1.150000,-3.750000,1.150000,-3.769509,1.151921,-3.805557,1.166853,-3.833147,1.194443,-3.848079,1.230491,-3.850000,1.250000,-3.850000,2.750000,-3.848079,2.769509,-3.833147,2.805557,-3.805557,2.833147,-3.769509,2.848079,-3.750000,2.850000,-2.291422,2.850000,-1.850000,3.291422,-1.850000,4.750000,-1.848079,4.769509,-1.833147,4.805557,-1.805557,4.833147,
-1.769509,4.848079,-1.750000,4.850000,-0.250000,4.850000,-0.230491,4.848079,-0.230491,4.848079,$1*%
G04 Aperture macros list end*
%TA.AperFunction,Conductor*%
%ADD10C,0.600000*%
%TD*%
%TA.AperFunction,EtchedComponent*%
%ADD11C,0.000000*%
%TD*%
%TA.AperFunction,SMDPad,CuDef*%
%ADD12FreePoly0,0.000000*%
%TD*%
%TA.AperFunction,SMDPad,CuDef*%
%ADD13FreePoly1,0.000000*%
%TD*%
%TA.AperFunction,SMDPad,CuDef*%
%ADD14FreePoly2,0.000000*%
%TD*%
%TA.AperFunction,SMDPad,CuDef*%
%ADD15FreePoly3,0.000000*%
%TD*%
%TA.AperFunction,SMDPad,CuDef*%
%ADD16FreePoly0,180.000000*%
%TD*%
%TA.AperFunction,SMDPad,CuDef*%
%ADD17FreePoly1,180.000000*%
%TD*%
%TA.AperFunction,SMDPad,CuDef*%
%ADD18FreePoly0,90.000000*%
%TD*%
%TA.AperFunction,SMDPad,CuDef*%
%ADD19FreePoly1,90.000000*%
%TD*%
%TA.AperFunction,SMDPad,CuDef*%
%ADD20FreePoly0,270.000000*%
%TD*%
%TA.AperFunction,SMDPad,CuDef*%
%ADD21FreePoly1,270.000000*%
%TD*%
%TA.AperFunction,ComponentPad*%
%ADD22R,1.700000X1.700000*%
%TD*%
%TA.AperFunction,ComponentPad*%
%ADD23O,1.700000X1.700000*%
%TD*%
%TA.AperFunction,ViaPad*%
%ADD24C,0.600000*%
%TD*%
%TA.AperFunction,ViaPad*%
%ADD25C,0.300000*%
%TD*%
%TA.AperFunction,Conductor*%
%ADD26C,0.200000*%
%TD*%
G04 APERTURE END LIST*
%TO.N,3.3v*%
D10*
X17000000Y-4500000D02*
G75*
G02*
X16400000Y-4500000I-300000J0D01*
G01*
X16400000Y-4500000D02*
G75*
G02*
X17000000Y-4500000I300000J0D01*
G01*
%TO.N,QSPI_SS*%
X18500000Y-4500000D02*
G75*
G02*
X17900000Y-4500000I-300000J0D01*
G01*
X17900000Y-4500000D02*
G75*
G02*
X18500000Y-4500000I300000J0D01*
G01*
%TO.N,GND*%
X11000000Y-4500000D02*
G75*
G02*
X10400000Y-4500000I-300000J0D01*
G01*
X10400000Y-4500000D02*
G75*
G02*
X11000000Y-4500000I300000J0D01*
G01*
%TO.N,DP*%
X14000000Y-4500000D02*
G75*
G02*
X13400000Y-4500000I-300000J0D01*
G01*
X13400000Y-4500000D02*
G75*
G02*
X14000000Y-4500000I300000J0D01*
G01*
%TO.N,DM*%
X12500000Y-4500000D02*
G75*
G02*
X11900000Y-4500000I-300000J0D01*
G01*
X11900000Y-4500000D02*
G75*
G02*
X12500000Y-4500000I300000J0D01*
G01*
%TO.N,VCC*%
X15500000Y-4500000D02*
G75*
G02*
X14900000Y-4500000I-300000J0D01*
G01*
X14900000Y-4500000D02*
G75*
G02*
X15500000Y-4500000I300000J0D01*
G01*
D11*
%TA.AperFunction,EtchedComponent*%
%TD*%
%TO.C,G\u002A\u002A\u002A*%
G36*
X52099218Y-6875927D02*
G01*
X52099218Y-7068164D01*
X52026354Y-7068164D01*
X51979441Y-7068884D01*
X51937218Y-7070734D01*
X51917834Y-7072344D01*
X51886767Y-7073824D01*
X51841500Y-7073502D01*
X51798461Y-7071777D01*
X51714746Y-7067030D01*
X51714746Y-6944140D01*
X51826367Y-6944140D01*
X51906982Y-6944140D01*
X51987597Y-6944140D01*
X51987767Y-6897631D01*
X51989897Y-6858436D01*
X51994857Y-6825423D01*
X51995414Y-6823217D01*
X51997987Y-6808745D01*
X51992748Y-6800404D01*
X51974813Y-6796510D01*
X51939298Y-6795373D01*
X51914630Y-6795312D01*
X51826367Y-6795312D01*
X51826367Y-6869726D01*
X51826367Y-6944140D01*
X51714746Y-6944140D01*
X51714746Y-6875361D01*
X51714746Y-6869726D01*
X51714746Y-6683691D01*
X51906982Y-6683691D01*
X52099218Y-6683691D01*
X52099218Y-6875927D01*
G37*
%TD.AperFunction*%
%TA.AperFunction,EtchedComponent*%
%TO.C,G\u002A\u002A\u002A*%
G36*
X52120922Y-1440431D02*
G01*
X52527099Y-1443701D01*
X52530854Y-1501986D01*
X52534608Y-1560272D01*
X52599067Y-1563998D01*
X52663525Y-1567724D01*
X52667221Y-1631318D01*
X52670917Y-1694911D01*
X52731636Y-1702966D01*
X52792356Y-1711021D01*
X52796153Y-1763396D01*
X52799951Y-1815771D01*
X52858371Y-1819531D01*
X52916791Y-1823291D01*
X52920383Y-1924951D01*
X52923974Y-2026611D01*
X52976684Y-2030425D01*
X53029394Y-2034238D01*
X53029394Y-2087605D01*
X53031262Y-2135688D01*
X53035888Y-2187543D01*
X53037246Y-2198260D01*
X53043661Y-2233685D01*
X53054008Y-2251972D01*
X53074076Y-2260717D01*
X53086856Y-2263383D01*
X53128613Y-2271217D01*
X53128613Y-2369056D01*
X53128613Y-2466894D01*
X53184423Y-2466894D01*
X53240234Y-2466894D01*
X53240234Y-2578515D01*
X53240234Y-2690136D01*
X53296044Y-2690136D01*
X53351855Y-2690136D01*
X53351855Y-2801757D01*
X53351855Y-2913378D01*
X53407200Y-2913378D01*
X53462545Y-2913378D01*
X53466111Y-3028100D01*
X53469677Y-3142822D01*
X53525488Y-3149023D01*
X53581298Y-3155224D01*
X53584854Y-3269143D01*
X53586930Y-3322876D01*
X53589935Y-3356676D01*
X53595150Y-3375412D01*
X53603856Y-3383953D01*
X53615860Y-3386965D01*
X53636660Y-3396653D01*
X53646114Y-3422228D01*
X53647196Y-3431176D01*
X53651717Y-3457210D01*
X53663662Y-3468645D01*
X53690818Y-3471438D01*
X53699906Y-3471484D01*
X53731329Y-3472768D01*
X53745165Y-3481356D01*
X53748631Y-3504351D01*
X53748730Y-3519543D01*
X53750860Y-3563202D01*
X53756033Y-3604039D01*
X53756481Y-3606359D01*
X53765045Y-3633065D01*
X53781982Y-3643561D01*
X53806091Y-3645117D01*
X53847949Y-3645117D01*
X53847759Y-3877661D01*
X53847232Y-3951710D01*
X53845881Y-4017536D01*
X53843863Y-4070992D01*
X53841333Y-4107929D01*
X53838457Y-4124189D01*
X53821406Y-4134758D01*
X53789630Y-4144441D01*
X53776635Y-4146983D01*
X53743618Y-4153985D01*
X53728387Y-4164641D01*
X53724105Y-4185585D01*
X53723925Y-4198111D01*
X53722671Y-4224114D01*
X53714409Y-4236428D01*
X53692390Y-4240169D01*
X53668115Y-4240429D01*
X53612304Y-4240429D01*
X53612304Y-4308642D01*
X53612304Y-4376855D01*
X53544091Y-4378405D01*
X53503205Y-4379541D01*
X53471575Y-4380792D01*
X53460375Y-4381506D01*
X53449392Y-4393598D01*
X53441889Y-4421711D01*
X53441023Y-4429565D01*
X53437174Y-4476074D01*
X53524120Y-4476074D01*
X53611066Y-4476074D01*
X53614786Y-4547387D01*
X53618505Y-4618701D01*
X53677416Y-4622481D01*
X53736328Y-4626261D01*
X53736328Y-4686833D01*
X53736328Y-4747405D01*
X53792138Y-4755775D01*
X53826354Y-4762079D01*
X53842647Y-4771632D01*
X53847701Y-4790815D01*
X53848118Y-4809245D01*
X53850220Y-4859334D01*
X53858426Y-4889583D01*
X53876283Y-4904825D01*
X53907338Y-4909892D01*
X53922178Y-4910156D01*
X53981113Y-4910156D01*
X53986850Y-5000073D01*
X53989003Y-5052748D01*
X53989025Y-5102589D01*
X53987066Y-5136995D01*
X53981545Y-5184000D01*
X53886842Y-5180403D01*
X53838910Y-5178005D01*
X53810958Y-5174352D01*
X53798160Y-5167975D01*
X53795690Y-5157404D01*
X53796305Y-5152825D01*
X53797126Y-5125703D01*
X53794075Y-5087397D01*
X53792445Y-5075310D01*
X53784417Y-5021777D01*
X53586740Y-5021777D01*
X53389062Y-5021777D01*
X53389062Y-5077587D01*
X53389062Y-5133398D01*
X53315397Y-5133398D01*
X53241731Y-5133398D01*
X53237882Y-5179907D01*
X53234033Y-5226416D01*
X53170351Y-5230115D01*
X53132533Y-5233474D01*
X53112454Y-5240491D01*
X53103050Y-5255120D01*
X53099474Y-5269790D01*
X53093722Y-5290140D01*
X53082489Y-5301365D01*
X53059202Y-5306772D01*
X53020529Y-5309499D01*
X52980214Y-5312225D01*
X52958407Y-5317463D01*
X52948836Y-5328864D01*
X52945230Y-5350078D01*
X52944892Y-5353540D01*
X52941006Y-5393847D01*
X52843135Y-5393847D01*
X52745264Y-5393847D01*
X52737272Y-5351244D01*
X52734029Y-5318860D01*
X52736781Y-5296700D01*
X52737442Y-5295433D01*
X52753339Y-5288362D01*
X52786176Y-5283569D01*
X52819286Y-5282226D01*
X52892968Y-5282226D01*
X52892968Y-5220776D01*
X52892015Y-5184072D01*
X52886330Y-5165011D01*
X52871682Y-5156435D01*
X52852661Y-5152644D01*
X52812012Y-5147252D01*
X52766893Y-5143053D01*
X52762847Y-5142781D01*
X52725985Y-5135249D01*
X52708695Y-5116182D01*
X52708504Y-5083789D01*
X52917773Y-5083789D01*
X52917773Y-5145800D01*
X53004589Y-5145800D01*
X53050031Y-5145247D01*
X53076061Y-5142434D01*
X53088069Y-5135633D01*
X53091441Y-5123115D01*
X53091575Y-5117895D01*
X53094887Y-5073033D01*
X53107157Y-5047515D01*
X53132910Y-5036282D01*
X53166443Y-5034179D01*
X53202556Y-5033043D01*
X53220827Y-5027156D01*
X53228199Y-5012798D01*
X53230108Y-5000073D01*
X53234059Y-4980744D01*
X53244424Y-4970071D01*
X53267498Y-4964887D01*
X53305346Y-4962247D01*
X53376660Y-4958527D01*
X53376660Y-4903336D01*
X53376660Y-4848144D01*
X53330151Y-4847975D01*
X53290956Y-4845844D01*
X53257942Y-4840884D01*
X53255737Y-4840327D01*
X53236339Y-4838246D01*
X53228854Y-4850544D01*
X53227832Y-4871502D01*
X53226533Y-4894576D01*
X53218318Y-4905954D01*
X53196710Y-4909770D01*
X53167266Y-4910156D01*
X53126980Y-4913515D01*
X53103999Y-4926979D01*
X53093730Y-4955627D01*
X53091575Y-4993872D01*
X53089764Y-5008477D01*
X53080962Y-5016838D01*
X53059779Y-5020684D01*
X53020830Y-5021744D01*
X53004589Y-5021777D01*
X52917773Y-5021777D01*
X52917773Y-5083789D01*
X52708504Y-5083789D01*
X52708492Y-5081719D01*
X52712272Y-5064204D01*
X52718010Y-5048434D01*
X52729228Y-5039433D01*
X52751828Y-5035319D01*
X52791712Y-5034208D01*
X52806388Y-5034179D01*
X52892968Y-5034179D01*
X52892968Y-5021777D01*
X52892968Y-4972167D01*
X52892968Y-4910156D01*
X52806152Y-4910156D01*
X52719335Y-4910156D01*
X52719335Y-4861090D01*
X52719335Y-4816105D01*
X52719335Y-4812024D01*
X52809252Y-4808380D01*
X52899169Y-4804736D01*
X52899169Y-4748925D01*
X52979785Y-4748925D01*
X52979785Y-4816105D01*
X52981705Y-4859061D01*
X52990832Y-4883017D01*
X53012213Y-4893683D01*
X53050897Y-4896769D01*
X53051098Y-4896774D01*
X53091406Y-4897753D01*
X53091406Y-4823339D01*
X53091406Y-4748925D01*
X53035595Y-4748925D01*
X52979785Y-4748925D01*
X52899169Y-4748925D01*
X52899169Y-4736523D01*
X52899169Y-4668310D01*
X52804627Y-4664716D01*
X52752388Y-4663957D01*
X52720074Y-4669252D01*
X52702887Y-4684685D01*
X52696024Y-4714340D01*
X52694700Y-4758227D01*
X52694531Y-4798535D01*
X52607325Y-4798535D01*
X52557760Y-4799970D01*
X52528328Y-4804874D01*
X52514494Y-4814141D01*
X52512981Y-4817138D01*
X52494640Y-4831233D01*
X52458239Y-4835742D01*
X52410636Y-4835742D01*
X52406856Y-4894653D01*
X52403076Y-4953564D01*
X52350366Y-4957378D01*
X52297656Y-4961191D01*
X52297656Y-5183720D01*
X52297656Y-5406250D01*
X52353466Y-5406250D01*
X52409277Y-5406250D01*
X52409277Y-5468261D01*
X52409277Y-5530273D01*
X52786835Y-5530273D01*
X53164394Y-5530273D01*
X53168207Y-5477563D01*
X53172021Y-5424853D01*
X53372191Y-5421452D01*
X53447000Y-5419998D01*
X53500669Y-5418250D01*
X53536861Y-5415712D01*
X53559239Y-5411890D01*
X53571466Y-5406288D01*
X53577207Y-5398413D01*
X53578769Y-5393546D01*
X53588708Y-5377130D01*
X53611639Y-5370054D01*
X53635948Y-5369042D01*
X53668193Y-5367822D01*
X53682711Y-5360094D01*
X53686572Y-5339756D01*
X53686718Y-5325245D01*
X53690672Y-5294814D01*
X53700385Y-5277382D01*
X53702221Y-5276488D01*
X53721056Y-5273718D01*
X53757953Y-5270600D01*
X53806185Y-5267663D01*
X53826245Y-5266699D01*
X53934765Y-5261868D01*
X53934765Y-5323279D01*
X53934765Y-5384690D01*
X53981274Y-5377003D01*
X54017919Y-5371834D01*
X54046762Y-5369243D01*
X54049487Y-5369179D01*
X54065984Y-5361156D01*
X54071181Y-5334454D01*
X54071191Y-5332621D01*
X54067930Y-5307017D01*
X54053041Y-5295790D01*
X54030985Y-5292314D01*
X53997724Y-5282556D01*
X53986667Y-5266723D01*
X53987404Y-5255286D01*
X53998300Y-5248714D01*
X54024254Y-5245721D01*
X54069296Y-5245019D01*
X54114711Y-5245440D01*
X54141248Y-5248241D01*
X54154834Y-5255732D01*
X54161397Y-5270218D01*
X54164149Y-5281956D01*
X54167246Y-5315652D01*
X54166195Y-5360906D01*
X54163706Y-5387376D01*
X54155149Y-5455859D01*
X54094567Y-5455859D01*
X54033984Y-5455859D01*
X54033984Y-5604687D01*
X54033984Y-5753515D01*
X54089794Y-5753515D01*
X54145605Y-5753515D01*
X54145605Y-5913986D01*
X54145605Y-6074456D01*
X54201416Y-6082826D01*
X54257226Y-6091195D01*
X54257226Y-6244816D01*
X54258190Y-6311563D01*
X54260934Y-6361143D01*
X54265238Y-6390834D01*
X54269628Y-6398437D01*
X54275878Y-6409979D01*
X54280233Y-6441222D01*
X54282019Y-6487093D01*
X54282031Y-6491455D01*
X54282031Y-6584472D01*
X54337841Y-6584472D01*
X54393652Y-6584472D01*
X54393652Y-6807714D01*
X54393652Y-7030957D01*
X54449462Y-7030957D01*
X54505273Y-7030957D01*
X54505442Y-7151879D01*
X54506022Y-7220827D01*
X54508500Y-7268892D01*
X54514325Y-7299989D01*
X54524942Y-7318037D01*
X54541801Y-7326952D01*
X54566349Y-7330651D01*
X54571662Y-7331063D01*
X54623095Y-7334814D01*
X54626536Y-7511547D01*
X54629977Y-7688281D01*
X54684965Y-7688281D01*
X54739952Y-7688281D01*
X54743535Y-7796801D01*
X54747119Y-7905322D01*
X54798230Y-7909057D01*
X54829508Y-7912558D01*
X54845550Y-7921737D01*
X54853199Y-7943638D01*
X54857141Y-7969699D01*
X54862194Y-8019361D01*
X54864831Y-8070255D01*
X54864941Y-8079972D01*
X54864941Y-8133339D01*
X54917651Y-8137153D01*
X54970361Y-8140966D01*
X54973918Y-8254997D01*
X54977475Y-8369028D01*
X55029728Y-8372819D01*
X55081982Y-8376611D01*
X55085583Y-8494011D01*
X55088392Y-8553995D01*
X55093692Y-8593415D01*
X55103388Y-8616503D01*
X55119385Y-8627494D01*
X55143590Y-8630621D01*
X55147094Y-8630669D01*
X55160621Y-8632145D01*
X55168879Y-8639617D01*
X55173163Y-8657992D01*
X55174770Y-8692175D01*
X55175000Y-8736279D01*
X55175000Y-8841699D01*
X55224796Y-8841699D01*
X55274593Y-8841699D01*
X55271305Y-9204467D01*
X55268017Y-9567236D01*
X55221508Y-9571085D01*
X55190754Y-9575800D01*
X55177595Y-9586829D01*
X55174830Y-9608292D01*
X55171313Y-9656010D01*
X55159570Y-9683804D01*
X55136914Y-9695929D01*
X55118528Y-9697460D01*
X55090004Y-9700103D01*
X55077626Y-9713102D01*
X55073466Y-9737768D01*
X55068989Y-9763292D01*
X55057143Y-9775696D01*
X55030467Y-9780797D01*
X55016870Y-9781889D01*
X54964160Y-9785703D01*
X54964160Y-9839699D01*
X54964160Y-9893695D01*
X54888497Y-9897897D01*
X54844952Y-9899113D01*
X54819410Y-9895722D01*
X54805274Y-9886289D01*
X54800342Y-9878709D01*
X54796616Y-9858696D01*
X54793846Y-9815297D01*
X54792060Y-9749916D01*
X54791287Y-9663953D01*
X54791554Y-9558811D01*
X54792288Y-9481834D01*
X54796728Y-9108349D01*
X54750219Y-9104500D01*
X54703710Y-9100651D01*
X54703710Y-8978784D01*
X54703710Y-8856917D01*
X54647900Y-8848548D01*
X54592089Y-8840179D01*
X54592089Y-8661818D01*
X54592089Y-8483457D01*
X54539379Y-8479643D01*
X54486669Y-8475830D01*
X54483149Y-8342504D01*
X54479629Y-8209179D01*
X54430439Y-8209179D01*
X54381250Y-8209179D01*
X54381250Y-8085302D01*
X54381250Y-7961425D01*
X54331640Y-7953493D01*
X54282031Y-7945560D01*
X54281861Y-7832423D01*
X54281241Y-7764811D01*
X54278559Y-7718135D01*
X54272224Y-7688528D01*
X54260647Y-7672127D01*
X54242239Y-7665067D01*
X54215409Y-7663482D01*
X54212371Y-7663476D01*
X54158007Y-7663476D01*
X54158007Y-7571138D01*
X54158007Y-7478800D01*
X54099096Y-7475020D01*
X54040185Y-7471240D01*
X54044524Y-7388068D01*
X54048863Y-7304896D01*
X53951506Y-7301251D01*
X53854150Y-7297607D01*
X53847949Y-7099169D01*
X53841748Y-6900732D01*
X53789038Y-6896918D01*
X53739804Y-6893356D01*
X53732008Y-6810815D01*
X53727809Y-6759392D01*
X53724908Y-6710602D01*
X53724013Y-6680590D01*
X53721979Y-6649910D01*
X53712854Y-6636787D01*
X53692919Y-6634082D01*
X53672834Y-6631319D01*
X53663984Y-6618357D01*
X53661919Y-6588183D01*
X53661914Y-6585204D01*
X53658661Y-6547783D01*
X53645561Y-6528939D01*
X53617597Y-6524890D01*
X53587044Y-6528739D01*
X53537890Y-6537043D01*
X53537890Y-6604166D01*
X53537890Y-6671289D01*
X53581298Y-6671289D01*
X53624707Y-6671289D01*
X53624707Y-6782910D01*
X53624707Y-6894531D01*
X53682311Y-6894531D01*
X53736325Y-6894531D01*
X53736138Y-6989936D01*
X53734761Y-7038221D01*
X53731292Y-7077820D01*
X53726427Y-7101356D01*
X53725432Y-7103357D01*
X53706740Y-7115278D01*
X53675542Y-7121804D01*
X53672912Y-7121961D01*
X53630908Y-7123974D01*
X53627264Y-7034057D01*
X53624786Y-6987553D01*
X53620846Y-6960578D01*
X53613630Y-6947861D01*
X53601321Y-6944128D01*
X53596258Y-6943971D01*
X53556909Y-6942064D01*
X53532408Y-6933779D01*
X53519265Y-6914378D01*
X53513990Y-6879124D01*
X53513085Y-6831073D01*
X53513085Y-6733300D01*
X53469677Y-6733300D01*
X53426269Y-6733300D01*
X53426269Y-6634082D01*
X53426269Y-6534863D01*
X53364723Y-6534863D01*
X53303176Y-6534863D01*
X53299610Y-6420141D01*
X53296044Y-6305419D01*
X53261938Y-6301495D01*
X53227832Y-6297571D01*
X53227832Y-6174371D01*
X53227832Y-6051171D01*
X53165820Y-6051171D01*
X53103808Y-6051171D01*
X53103808Y-5946559D01*
X53102393Y-5893886D01*
X53098637Y-5847313D01*
X53093274Y-5815114D01*
X53091713Y-5810133D01*
X53083993Y-5793909D01*
X53072225Y-5784407D01*
X53050475Y-5779839D01*
X53012812Y-5778414D01*
X52986293Y-5778320D01*
X52892968Y-5778320D01*
X52892968Y-5827929D01*
X52894282Y-5859692D01*
X52902396Y-5873808D01*
X52923568Y-5877428D01*
X52936376Y-5877539D01*
X52979785Y-5877539D01*
X52979785Y-5989160D01*
X52979785Y-6100781D01*
X53029394Y-6100781D01*
X53079003Y-6100781D01*
X53079003Y-6211057D01*
X53079329Y-6263658D01*
X53081208Y-6296605D01*
X53085993Y-6315050D01*
X53095036Y-6324144D01*
X53109691Y-6329036D01*
X53110009Y-6329116D01*
X53125412Y-6334332D01*
X53134630Y-6344077D01*
X53139246Y-6363821D01*
X53140844Y-6399035D01*
X53141015Y-6436190D01*
X53141015Y-6535483D01*
X53177668Y-6542813D01*
X53197904Y-6548311D01*
X53209268Y-6558765D01*
X53214833Y-6580531D01*
X53217671Y-6619968D01*
X53217975Y-6626219D01*
X53221630Y-6702294D01*
X53268139Y-6706144D01*
X53314648Y-6709993D01*
X53314648Y-6775726D01*
X53316295Y-6827828D01*
X53320439Y-6881338D01*
X53322535Y-6899001D01*
X53328293Y-6933872D01*
X53337182Y-6950713D01*
X53355568Y-6956088D01*
X53378345Y-6956542D01*
X53426269Y-6956542D01*
X53426269Y-7080566D01*
X53426269Y-7204589D01*
X53494482Y-7204589D01*
X53562695Y-7204589D01*
X53562695Y-7285205D01*
X53562695Y-7365820D01*
X53711523Y-7365820D01*
X53860351Y-7365820D01*
X53860351Y-7439521D01*
X53860351Y-7513222D01*
X53913061Y-7517035D01*
X53965771Y-7520849D01*
X53969490Y-7592163D01*
X53973210Y-7663476D01*
X54022200Y-7663476D01*
X54071191Y-7663476D01*
X54071191Y-7781298D01*
X54071191Y-7899121D01*
X54127001Y-7899121D01*
X54182812Y-7899121D01*
X54182812Y-8060351D01*
X54182812Y-8221582D01*
X54232002Y-8221582D01*
X54281192Y-8221582D01*
X54284712Y-8354907D01*
X54288232Y-8488232D01*
X54344042Y-8494433D01*
X54399853Y-8500634D01*
X54407931Y-8606054D01*
X54413415Y-8664442D01*
X54420501Y-8722124D01*
X54427797Y-8767965D01*
X54428896Y-8773486D01*
X54436628Y-8823778D01*
X54441621Y-8881011D01*
X54442522Y-8906811D01*
X54443261Y-8978125D01*
X54499072Y-8978125D01*
X54554882Y-8978125D01*
X54554882Y-9113871D01*
X54554882Y-9249617D01*
X54613793Y-9253397D01*
X54672705Y-9257177D01*
X54676027Y-9566641D01*
X54677495Y-9670284D01*
X54679489Y-9751112D01*
X54682126Y-9811115D01*
X54685521Y-9852279D01*
X54689792Y-9876593D01*
X54694631Y-9885812D01*
X54716529Y-9892295D01*
X54750463Y-9895608D01*
X54756420Y-9895708D01*
X54802929Y-9895898D01*
X54802929Y-9975186D01*
X54801357Y-10021726D01*
X54795879Y-10048676D01*
X54785350Y-10061098D01*
X54783311Y-10062003D01*
X54760046Y-10066048D01*
X54720602Y-10068424D01*
X54672161Y-10069204D01*
X54621908Y-10068463D01*
X54577027Y-10066274D01*
X54544702Y-10062711D01*
X54533385Y-10059435D01*
X54528399Y-10049347D01*
X54524326Y-10024732D01*
X54521062Y-9983625D01*
X54518500Y-9924056D01*
X54516534Y-9844061D01*
X54515057Y-9741671D01*
X54514782Y-9715460D01*
X54511474Y-9381201D01*
X54478432Y-9377379D01*
X54450689Y-9380237D01*
X54437289Y-9399083D01*
X54418989Y-9420651D01*
X54400568Y-9424609D01*
X54377982Y-9431113D01*
X54366078Y-9454766D01*
X54364506Y-9461816D01*
X54357063Y-9485990D01*
X54342310Y-9496561D01*
X54311927Y-9499013D01*
X54308055Y-9499023D01*
X54272776Y-9502497D01*
X54256773Y-9514128D01*
X54255035Y-9519438D01*
X54246208Y-9532037D01*
X54222572Y-9539370D01*
X54180592Y-9542957D01*
X54126624Y-9546477D01*
X54070471Y-9551840D01*
X54047973Y-9554615D01*
X54011020Y-9560857D01*
X53992017Y-9569585D01*
X53984226Y-9585679D01*
X53981980Y-9602409D01*
X53977144Y-9627896D01*
X53964147Y-9640026D01*
X53935296Y-9645017D01*
X53928564Y-9645579D01*
X53894035Y-9650800D01*
X53870243Y-9658853D01*
X53867172Y-9661082D01*
X53849333Y-9667147D01*
X53814708Y-9671337D01*
X53777255Y-9672656D01*
X53699121Y-9672656D01*
X53699121Y-9771875D01*
X53699121Y-9871093D01*
X53742529Y-9871093D01*
X53769201Y-9872285D01*
X53781831Y-9880359D01*
X53785669Y-9902068D01*
X53785937Y-9926904D01*
X53787036Y-9961230D01*
X53793264Y-9977488D01*
X53809021Y-9982406D01*
X53822431Y-9982714D01*
X53845538Y-9984817D01*
X53856868Y-9995717D01*
X53861697Y-10022304D01*
X53862739Y-10035367D01*
X53866228Y-10067302D01*
X53875237Y-10084182D01*
X53896660Y-10093036D01*
X53924744Y-10098589D01*
X53961177Y-10107174D01*
X53980306Y-10119141D01*
X53989561Y-10139725D01*
X53990841Y-10145155D01*
X54001660Y-10171791D01*
X54022955Y-10180922D01*
X54031869Y-10181321D01*
X54069102Y-10184404D01*
X54093133Y-10189031D01*
X54121276Y-10196571D01*
X54117937Y-10464814D01*
X54114599Y-10733056D01*
X53419137Y-10736259D01*
X53290063Y-10736708D01*
X53168469Y-10736848D01*
X53056609Y-10736696D01*
X52956736Y-10736270D01*
X52871102Y-10735585D01*
X52801960Y-10734657D01*
X52751564Y-10733505D01*
X52722166Y-10732143D01*
X52715304Y-10731091D01*
X52711720Y-10715821D01*
X52708903Y-10681575D01*
X52707230Y-10634181D01*
X52706933Y-10602091D01*
X52706239Y-10542644D01*
X52702697Y-10503682D01*
X52694113Y-10480895D01*
X52678297Y-10469973D01*
X52653055Y-10466605D01*
X52637926Y-10466406D01*
X52608155Y-10466406D01*
X52608018Y-10454003D01*
X53103808Y-10454003D01*
X53513568Y-10454003D01*
X53923328Y-10454003D01*
X53919745Y-10345483D01*
X53916162Y-10236962D01*
X53509985Y-10233692D01*
X53103808Y-10230422D01*
X53103808Y-10342213D01*
X53103808Y-10454003D01*
X52608018Y-10454003D01*
X52606784Y-10342213D01*
X52604834Y-10165649D01*
X52602195Y-9926678D01*
X52908259Y-9926678D01*
X52911633Y-9958188D01*
X52919744Y-9995117D01*
X53079989Y-9995117D01*
X53240234Y-9995117D01*
X53240234Y-10050927D01*
X53240234Y-10106738D01*
X53325323Y-10106738D01*
X53410412Y-10106738D01*
X53418233Y-10041625D01*
X53422987Y-9991406D01*
X53425823Y-9940988D01*
X53426161Y-9923803D01*
X53426269Y-9871093D01*
X53172857Y-9871093D01*
X53087467Y-9871198D01*
X53023616Y-9871721D01*
X52978039Y-9872975D01*
X52947470Y-9875274D01*
X52928642Y-9878932D01*
X52918291Y-9884262D01*
X52913152Y-9891576D01*
X52911483Y-9896177D01*
X52908259Y-9926678D01*
X52602195Y-9926678D01*
X52601513Y-9864892D01*
X52176946Y-9861629D01*
X51752379Y-9858366D01*
X51749065Y-10171688D01*
X51745751Y-10485009D01*
X51681170Y-10488740D01*
X51616588Y-10492470D01*
X51612957Y-10579423D01*
X51609326Y-10666376D01*
X50908593Y-10671301D01*
X50776625Y-10672091D01*
X50650224Y-10672584D01*
X50531910Y-10672788D01*
X50424203Y-10672711D01*
X50329623Y-10672360D01*
X50250690Y-10671743D01*
X50189923Y-10670868D01*
X50149842Y-10669743D01*
X50136291Y-10668904D01*
X50064720Y-10661581D01*
X50068078Y-10418266D01*
X50069724Y-10298974D01*
X50263671Y-10298974D01*
X50263671Y-10404394D01*
X50654345Y-10404394D01*
X51045019Y-10404394D01*
X51045019Y-10299960D01*
X51045019Y-10195525D01*
X51009541Y-10187733D01*
X50987558Y-10185837D01*
X50944635Y-10184649D01*
X50884628Y-10184182D01*
X50811392Y-10184447D01*
X50728783Y-10185457D01*
X50665376Y-10186658D01*
X50577600Y-10188532D01*
X50495689Y-10190211D01*
X50423672Y-10191620D01*
X50365578Y-10192680D01*
X50325435Y-10193315D01*
X50310180Y-10193465D01*
X50263671Y-10193554D01*
X50263671Y-10298974D01*
X50069724Y-10298974D01*
X50071178Y-10193554D01*
X50071435Y-10174951D01*
X50105541Y-10171026D01*
X50132692Y-10161426D01*
X50139648Y-10144007D01*
X50150087Y-10110580D01*
X50177953Y-10090917D01*
X50218075Y-10088562D01*
X50220062Y-10088915D01*
X50252261Y-10090643D01*
X50269184Y-10083047D01*
X50285264Y-10075647D01*
X50318037Y-10070680D01*
X50348119Y-10069394D01*
X50397345Y-10067912D01*
X50444489Y-10064284D01*
X50464678Y-10061657D01*
X50510655Y-10054055D01*
X50514287Y-9971876D01*
X50517919Y-9889697D01*
X50610937Y-9883496D01*
X50703955Y-9877294D01*
X50703955Y-9771875D01*
X50703955Y-9759472D01*
X50808444Y-9759472D01*
X50812010Y-9874194D01*
X50815576Y-9988916D01*
X50868286Y-9992729D01*
X50900490Y-9997175D01*
X50919136Y-10003845D01*
X50920996Y-10006631D01*
X50932397Y-10012306D01*
X50962699Y-10018476D01*
X51006049Y-10024035D01*
X51020214Y-10025373D01*
X51066257Y-10030717D01*
X51100943Y-10037271D01*
X51118420Y-10043843D01*
X51119433Y-10045578D01*
X51130997Y-10050359D01*
X51162346Y-10054162D01*
X51208465Y-10056543D01*
X51249658Y-10057128D01*
X51379882Y-10057128D01*
X51379882Y-9982714D01*
X51381765Y-9943077D01*
X51386684Y-9916205D01*
X51392285Y-9908300D01*
X51400993Y-9897523D01*
X51404686Y-9871556D01*
X51404687Y-9871093D01*
X51404687Y-9833886D01*
X51207696Y-9833886D01*
X51133652Y-9833718D01*
X51080708Y-9832914D01*
X51045161Y-9831021D01*
X51023308Y-9827588D01*
X51011444Y-9822164D01*
X51005867Y-9814297D01*
X51004218Y-9809082D01*
X50990565Y-9789935D01*
X50960096Y-9784277D01*
X50931023Y-9780567D01*
X50914794Y-9771875D01*
X50898549Y-9763979D01*
X50867653Y-9759715D01*
X50857787Y-9759472D01*
X50808444Y-9759472D01*
X50703955Y-9759472D01*
X50703955Y-9666455D01*
X50601635Y-9662852D01*
X50548382Y-9659897D01*
X50516206Y-9655105D01*
X50501402Y-9647717D01*
X50499316Y-9641897D01*
X50487620Y-9628239D01*
X50454340Y-9620822D01*
X50452863Y-9620694D01*
X50420594Y-9614933D01*
X50405045Y-9601315D01*
X50400153Y-9585839D01*
X50390085Y-9562029D01*
X50378393Y-9553593D01*
X50354243Y-9551879D01*
X50332708Y-9550493D01*
X50308958Y-9542627D01*
X50299119Y-9518503D01*
X50298602Y-9514526D01*
X50295392Y-9496897D01*
X50287113Y-9486424D01*
X50268214Y-9480875D01*
X50233145Y-9478017D01*
X50204760Y-9476775D01*
X50158441Y-9475292D01*
X50131593Y-9476568D01*
X50118911Y-9482158D01*
X50115090Y-9493621D01*
X50114843Y-9503162D01*
X50107570Y-9532975D01*
X50096240Y-9548632D01*
X50083558Y-9572322D01*
X50077983Y-9617466D01*
X50077636Y-9636967D01*
X50077636Y-9709863D01*
X49985298Y-9709863D01*
X49892960Y-9709863D01*
X49889180Y-9650952D01*
X49885400Y-9592041D01*
X49829589Y-9585839D01*
X49773779Y-9579638D01*
X49770458Y-9278881D01*
X49768233Y-9077343D01*
X50400097Y-9077343D01*
X50400097Y-9175849D01*
X50400097Y-9274355D01*
X50452807Y-9278168D01*
X50505517Y-9281982D01*
X50511718Y-9350195D01*
X50517919Y-9418408D01*
X50614038Y-9422030D01*
X50710156Y-9425652D01*
X50710156Y-9480941D01*
X50710156Y-9536230D01*
X50896191Y-9536230D01*
X51082226Y-9536230D01*
X51082226Y-9449414D01*
X51082226Y-9362597D01*
X51138037Y-9362597D01*
X51193847Y-9362597D01*
X51193847Y-9083544D01*
X51193847Y-8804492D01*
X51249416Y-8804492D01*
X51304985Y-8804492D01*
X51308327Y-8534741D01*
X51311669Y-8264990D01*
X51358178Y-8261140D01*
X51404687Y-8257291D01*
X51404687Y-8022395D01*
X51404687Y-7813817D01*
X51503646Y-7813817D01*
X51506877Y-8355663D01*
X51510107Y-8897509D01*
X51562817Y-8901323D01*
X51615527Y-8905137D01*
X51615527Y-8991240D01*
X51615527Y-9077343D01*
X51907484Y-9077343D01*
X52199440Y-9077343D01*
X52195838Y-8975024D01*
X52192236Y-8872705D01*
X51903727Y-8869375D01*
X51615218Y-8866045D01*
X51618473Y-8416689D01*
X51621728Y-7967333D01*
X51668459Y-7963471D01*
X51715191Y-7959608D01*
X51715068Y-7948730D01*
X52198437Y-7948730D01*
X52248046Y-7948730D01*
X52297656Y-7948730D01*
X52299256Y-8100659D01*
X52300115Y-8160466D01*
X52301574Y-8238511D01*
X52303493Y-8328239D01*
X52305731Y-8423093D01*
X52308144Y-8516518D01*
X52308558Y-8531640D01*
X52316259Y-8810693D01*
X52362296Y-8814514D01*
X52408332Y-8818335D01*
X52411905Y-8926135D01*
X52415478Y-9033935D01*
X52468188Y-9037749D01*
X52520898Y-9041562D01*
X52520898Y-9319468D01*
X52520898Y-9597374D01*
X52648022Y-9601393D01*
X52705045Y-9602931D01*
X52779233Y-9604546D01*
X52862947Y-9606092D01*
X52948548Y-9607422D01*
X52995288Y-9608028D01*
X53215429Y-9610644D01*
X53215429Y-9573437D01*
X53215429Y-9536230D01*
X53320849Y-9536230D01*
X53426269Y-9536230D01*
X53426269Y-9492822D01*
X53426269Y-9449414D01*
X53556494Y-9449414D01*
X53614463Y-9449181D01*
X53652049Y-9447851D01*
X53673671Y-9444478D01*
X53683749Y-9438117D01*
X53686703Y-9427822D01*
X53686888Y-9421508D01*
X53690615Y-9376064D01*
X53703441Y-9350158D01*
X53728864Y-9339162D01*
X53750176Y-9337792D01*
X53798339Y-9337792D01*
X53798339Y-9250976D01*
X53798339Y-9164160D01*
X53749516Y-9164160D01*
X53717821Y-9165820D01*
X53703107Y-9174770D01*
X53697585Y-9196968D01*
X53696806Y-9204467D01*
X53692919Y-9244775D01*
X53587500Y-9250976D01*
X53536432Y-9254296D01*
X53505047Y-9258142D01*
X53488257Y-9264389D01*
X53480977Y-9274910D01*
X53478155Y-9291284D01*
X53474958Y-9309227D01*
X53466742Y-9319426D01*
X53447789Y-9324066D01*
X53412381Y-9325336D01*
X53388987Y-9325390D01*
X53303743Y-9325390D01*
X53299894Y-9371899D01*
X53296044Y-9418408D01*
X53026293Y-9421750D01*
X52756542Y-9425093D01*
X52756542Y-9220212D01*
X52756542Y-9015332D01*
X52725537Y-9015332D01*
X52694531Y-9015332D01*
X52694531Y-8889981D01*
X52694154Y-8833277D01*
X52692534Y-8797296D01*
X52688936Y-8777965D01*
X52682625Y-8771207D01*
X52673387Y-8772744D01*
X52648062Y-8779503D01*
X52610821Y-8786415D01*
X52598973Y-8788159D01*
X52545703Y-8795461D01*
X52545703Y-8689802D01*
X52545152Y-8638035D01*
X52542740Y-8605908D01*
X52537327Y-8588270D01*
X52527774Y-8579967D01*
X52520898Y-8577656D01*
X52511856Y-8574033D01*
X52505324Y-8566242D01*
X52500897Y-8550712D01*
X52498168Y-8523873D01*
X52496729Y-8482155D01*
X52496174Y-8421988D01*
X52496093Y-8359954D01*
X52496093Y-8148739D01*
X52455786Y-8144853D01*
X52415478Y-8140966D01*
X52409277Y-8029345D01*
X52403076Y-7917724D01*
X52356567Y-7913875D01*
X52310058Y-7910026D01*
X52309889Y-7672029D01*
X52309456Y-7595922D01*
X52308354Y-7526895D01*
X52306709Y-7469353D01*
X52304648Y-7427701D01*
X52302298Y-7406346D01*
X52302241Y-7406127D01*
X52292454Y-7387345D01*
X52271519Y-7379423D01*
X52246600Y-7378222D01*
X52198437Y-7378222D01*
X52198437Y-7663476D01*
X52198437Y-7948730D01*
X51715068Y-7948730D01*
X51711868Y-7665815D01*
X51711842Y-7663476D01*
X51708544Y-7372021D01*
X51658935Y-7372021D01*
X51609326Y-7372021D01*
X51603125Y-7589062D01*
X51596923Y-7806103D01*
X51550285Y-7809960D01*
X51503646Y-7813817D01*
X51404687Y-7813817D01*
X51404687Y-7787500D01*
X51454296Y-7787500D01*
X51503906Y-7787500D01*
X51503906Y-7582861D01*
X51503906Y-7378222D01*
X51417376Y-7378222D01*
X51330845Y-7378222D01*
X51327459Y-7598364D01*
X51324072Y-7818505D01*
X51265497Y-7822272D01*
X51206922Y-7826038D01*
X51203485Y-8002106D01*
X51200048Y-8178173D01*
X51156640Y-8184375D01*
X51113232Y-8190576D01*
X51105489Y-8370410D01*
X51102581Y-8438158D01*
X51099940Y-8500117D01*
X51097808Y-8550560D01*
X51096428Y-8583762D01*
X51096187Y-8589765D01*
X51092034Y-8617474D01*
X51077215Y-8629465D01*
X51054321Y-8633174D01*
X51014013Y-8637060D01*
X51010542Y-8795190D01*
X51007071Y-8953320D01*
X50957832Y-8953320D01*
X50908593Y-8953320D01*
X50908593Y-9113536D01*
X50908032Y-9175543D01*
X50906499Y-9229603D01*
X50904220Y-9270310D01*
X50901422Y-9292261D01*
X50901065Y-9293370D01*
X50891512Y-9303966D01*
X50869665Y-9310081D01*
X50830592Y-9312692D01*
X50801846Y-9312988D01*
X50710156Y-9312988D01*
X50710156Y-9270594D01*
X50707354Y-9226312D01*
X50696317Y-9201373D01*
X50673095Y-9190688D01*
X50646817Y-9188964D01*
X50598535Y-9188964D01*
X50598535Y-9133154D01*
X50598535Y-9077343D01*
X50499316Y-9077343D01*
X50400097Y-9077343D01*
X49768233Y-9077343D01*
X49767137Y-8978125D01*
X49816501Y-8978125D01*
X49865866Y-8978125D01*
X49869432Y-8863403D01*
X49871648Y-8792125D01*
X50499316Y-8792125D01*
X50499316Y-8877480D01*
X50552026Y-8881293D01*
X50604736Y-8885107D01*
X50608428Y-8962622D01*
X50612121Y-9040136D01*
X50704081Y-9040136D01*
X50796041Y-9040136D01*
X50799607Y-8925415D01*
X50803173Y-8810693D01*
X50852783Y-8804492D01*
X50902392Y-8798291D01*
X50905927Y-8671166D01*
X50909461Y-8544042D01*
X50946234Y-8544042D01*
X50983007Y-8544042D01*
X50983007Y-8351806D01*
X50983329Y-8277637D01*
X50984515Y-8224868D01*
X50986893Y-8190103D01*
X50990792Y-8169943D01*
X50996542Y-8160990D01*
X51001611Y-8159570D01*
X51010106Y-8155577D01*
X51015633Y-8140931D01*
X51018762Y-8111626D01*
X51020067Y-8063658D01*
X51020214Y-8029345D01*
X51020214Y-7899121D01*
X51063623Y-7899121D01*
X51107031Y-7899121D01*
X51107031Y-7764022D01*
X51107551Y-7700953D01*
X51110375Y-7658579D01*
X51117396Y-7632791D01*
X51130508Y-7619483D01*
X51151604Y-7614547D01*
X51176258Y-7613867D01*
X51206250Y-7613867D01*
X51206250Y-7455455D01*
X51206250Y-7316210D01*
X52408784Y-7316210D01*
X52412131Y-7579760D01*
X52415478Y-7843310D01*
X52455746Y-7847193D01*
X52476272Y-7850573D01*
X52490627Y-7858713D01*
X52500069Y-7875573D01*
X52505853Y-7905110D01*
X52509236Y-7951280D01*
X52511475Y-8018042D01*
X52511610Y-8023144D01*
X52514697Y-8140966D01*
X52555004Y-8144853D01*
X52595312Y-8148739D01*
X52595448Y-8324687D01*
X52595961Y-8413353D01*
X52597704Y-8480286D01*
X52601218Y-8528548D01*
X52607042Y-8561201D01*
X52615716Y-8581307D01*
X52627782Y-8591927D01*
X52643334Y-8596075D01*
X52661918Y-8600174D01*
X52672183Y-8611167D01*
X52677207Y-8635360D01*
X52679625Y-8670453D01*
X52683324Y-8741054D01*
X52729235Y-8744868D01*
X52756446Y-8748201D01*
X52770346Y-8756820D01*
X52775969Y-8777514D01*
X52778048Y-8810693D01*
X52780431Y-8854171D01*
X52783999Y-8910809D01*
X52788019Y-8969034D01*
X52788404Y-8974317D01*
X52795858Y-9075929D01*
X52835112Y-9079737D01*
X52874365Y-9083544D01*
X52877931Y-9198266D01*
X52881497Y-9312988D01*
X53042262Y-9312988D01*
X53203027Y-9312988D01*
X53203027Y-9250976D01*
X53203027Y-9188964D01*
X53339453Y-9188964D01*
X53475878Y-9188964D01*
X53476068Y-9148657D01*
X53478140Y-9116867D01*
X53486985Y-9096258D01*
X53507090Y-9084160D01*
X53542939Y-9077907D01*
X53599018Y-9074833D01*
X53600297Y-9074788D01*
X53705322Y-9071142D01*
X53709067Y-9013088D01*
X53712812Y-8955033D01*
X53656805Y-8946634D01*
X53600797Y-8938235D01*
X53597249Y-8824855D01*
X53593701Y-8711474D01*
X53542510Y-8707735D01*
X53509651Y-8703630D01*
X53493434Y-8693140D01*
X53485703Y-8669378D01*
X53483735Y-8658125D01*
X53478643Y-8614023D01*
X53476081Y-8565905D01*
X53476015Y-8559545D01*
X53475878Y-8506835D01*
X53413867Y-8506835D01*
X53351855Y-8506835D01*
X53351855Y-8414437D01*
X53351855Y-8322038D01*
X53280541Y-8318319D01*
X53209228Y-8314599D01*
X53205721Y-8175073D01*
X53203220Y-8075585D01*
X53303926Y-8075585D01*
X53304782Y-8111541D01*
X53306427Y-8127842D01*
X53321324Y-8134714D01*
X53356506Y-8137568D01*
X53393658Y-8136807D01*
X53475878Y-8132649D01*
X53475986Y-8093399D01*
X53477576Y-8057504D01*
X53481484Y-8011197D01*
X53483939Y-7988834D01*
X53490383Y-7949298D01*
X53499796Y-7927839D01*
X53515612Y-7917734D01*
X53521038Y-7916176D01*
X53539594Y-7907960D01*
X53548145Y-7890672D01*
X53550289Y-7856710D01*
X53550292Y-7854368D01*
X53550292Y-7799902D01*
X53618505Y-7799902D01*
X53686718Y-7799902D01*
X53686718Y-7911523D01*
X53686471Y-7964362D01*
X53684847Y-7997170D01*
X53680519Y-8014720D01*
X53672161Y-8021785D01*
X53658448Y-8023139D01*
X53655712Y-8023144D01*
X53637877Y-8024942D01*
X53628637Y-8034406D01*
X53625186Y-8057638D01*
X53624707Y-8090571D01*
X53624047Y-8129350D01*
X53619621Y-8149823D01*
X53607754Y-8158489D01*
X53584773Y-8161848D01*
X53584399Y-8161885D01*
X53561981Y-8165102D01*
X53549576Y-8173351D01*
X53543687Y-8192801D01*
X53540817Y-8229619D01*
X53540295Y-8239668D01*
X53539412Y-8285088D01*
X53541138Y-8324301D01*
X53543766Y-8342523D01*
X53549140Y-8357445D01*
X53559704Y-8365768D01*
X53581216Y-8369000D01*
X53619437Y-8368648D01*
X53640580Y-8367845D01*
X53730126Y-8364208D01*
X53733710Y-8255688D01*
X53737293Y-8147167D01*
X53805023Y-8147167D01*
X53872753Y-8147167D01*
X53872753Y-7886718D01*
X53872753Y-7626269D01*
X53805189Y-7626269D01*
X53737624Y-7626269D01*
X53733875Y-7561157D01*
X53730126Y-7496044D01*
X53578198Y-7492562D01*
X53426269Y-7489080D01*
X53426100Y-7622787D01*
X53425612Y-7694568D01*
X53423493Y-7745325D01*
X53418439Y-7778834D01*
X53409147Y-7798873D01*
X53394314Y-7809220D01*
X53372636Y-7813652D01*
X53359880Y-7814754D01*
X53308447Y-7818505D01*
X53304932Y-7966611D01*
X53303960Y-8025480D01*
X53303926Y-8075585D01*
X53203220Y-8075585D01*
X53202214Y-8035546D01*
X53153011Y-8035546D01*
X53103808Y-8035546D01*
X53103808Y-7931712D01*
X53103808Y-7827877D01*
X53055668Y-7820179D01*
X53027864Y-7813426D01*
X53009611Y-7800742D01*
X52998931Y-7777547D01*
X52993847Y-7739256D01*
X52992382Y-7681290D01*
X52992356Y-7673491D01*
X52992187Y-7590488D01*
X52939477Y-7586675D01*
X52886767Y-7582861D01*
X52883123Y-7492944D01*
X52879479Y-7403027D01*
X52836614Y-7403027D01*
X52809168Y-7401492D01*
X52796970Y-7392122D01*
X52793844Y-7367766D01*
X52793750Y-7353417D01*
X52793750Y-7303808D01*
X52700732Y-7303808D01*
X52607714Y-7303808D01*
X52607714Y-7390625D01*
X52607714Y-7477441D01*
X52651123Y-7477441D01*
X52694531Y-7477441D01*
X52694531Y-7582861D01*
X52694531Y-7688281D01*
X52744140Y-7688281D01*
X52793750Y-7688281D01*
X52793750Y-7744613D01*
X52793750Y-7800945D01*
X52697631Y-7797323D01*
X52601513Y-7793701D01*
X52598031Y-7641772D01*
X52594549Y-7489843D01*
X52545321Y-7489843D01*
X52496093Y-7489843D01*
X52496093Y-7403027D01*
X52496093Y-7316210D01*
X52452438Y-7316210D01*
X52408784Y-7316210D01*
X51206250Y-7316210D01*
X51206250Y-7297043D01*
X51157221Y-7297043D01*
X51125524Y-7298580D01*
X51110863Y-7307473D01*
X51105484Y-7330148D01*
X51104511Y-7340733D01*
X51099290Y-7370666D01*
X51085006Y-7384565D01*
X51057421Y-7390625D01*
X51014013Y-7396826D01*
X51010339Y-7473626D01*
X51006665Y-7550426D01*
X50960730Y-7554241D01*
X50914794Y-7558056D01*
X50911260Y-7685180D01*
X50907726Y-7812304D01*
X50858882Y-7812304D01*
X50810038Y-7812304D01*
X50806605Y-7995239D01*
X50803173Y-8178173D01*
X50756665Y-8182023D01*
X50710156Y-8185872D01*
X50709986Y-8268839D01*
X50708895Y-8329359D01*
X50704648Y-8369297D01*
X50695346Y-8392846D01*
X50679090Y-8404196D01*
X50653980Y-8407539D01*
X50647091Y-8407617D01*
X50599322Y-8407617D01*
X50595828Y-8553344D01*
X50592333Y-8699072D01*
X50545825Y-8702921D01*
X50499316Y-8706770D01*
X50499316Y-8792125D01*
X49871648Y-8792125D01*
X49872998Y-8748681D01*
X49918021Y-8744920D01*
X49963044Y-8741160D01*
X49964688Y-8706770D01*
X49968393Y-8629275D01*
X49972502Y-8569606D01*
X49979442Y-8530520D01*
X49991372Y-8507802D01*
X50010446Y-8497238D01*
X50037329Y-8494623D01*
X50053096Y-8492348D01*
X50061481Y-8481861D01*
X50064802Y-8457255D01*
X50065370Y-8423120D01*
X50066855Y-8373631D01*
X50070492Y-8326136D01*
X50073194Y-8305297D01*
X50079410Y-8276383D01*
X50090528Y-8262921D01*
X50114403Y-8259009D01*
X50135070Y-8258789D01*
X50189257Y-8258789D01*
X50189257Y-8140966D01*
X50189257Y-8023144D01*
X50245068Y-8023144D01*
X50300878Y-8023144D01*
X50300878Y-7893568D01*
X50300878Y-7763991D01*
X50365991Y-7760242D01*
X50431103Y-7756494D01*
X50434496Y-7542553D01*
X50437890Y-7328613D01*
X50512011Y-7328613D01*
X50586132Y-7328613D01*
X50586132Y-7192187D01*
X51615527Y-7192187D01*
X51906982Y-7192187D01*
X52198437Y-7192187D01*
X52200378Y-7108471D01*
X52201804Y-7051547D01*
X52202376Y-7031009D01*
X52310058Y-7031009D01*
X52311370Y-7061273D01*
X52319907Y-7076013D01*
X52342573Y-7082229D01*
X52362768Y-7084472D01*
X52410857Y-7086714D01*
X52459391Y-7085201D01*
X52465087Y-7084676D01*
X52498848Y-7081891D01*
X52549322Y-7078572D01*
X52608440Y-7075223D01*
X52644921Y-7073399D01*
X52701733Y-7069756D01*
X52751217Y-7064829D01*
X52786870Y-7059360D01*
X52799951Y-7055684D01*
X52829650Y-7046620D01*
X52867055Y-7040730D01*
X52868164Y-7040638D01*
X52895923Y-7036045D01*
X52908473Y-7029208D01*
X52908471Y-7027856D01*
X52906470Y-7010395D01*
X52905418Y-6978860D01*
X52905371Y-6970352D01*
X52903475Y-6938688D01*
X52893934Y-6923648D01*
X52870970Y-6917121D01*
X52867015Y-6916521D01*
X52834509Y-6917265D01*
X52822280Y-6927516D01*
X52805825Y-6939099D01*
X52772059Y-6944087D01*
X52767618Y-6944140D01*
X52733625Y-6947385D01*
X52720003Y-6958067D01*
X52719335Y-6962744D01*
X52715736Y-6970250D01*
X52702606Y-6975636D01*
X52676444Y-6979315D01*
X52633750Y-6981702D01*
X52571025Y-6983209D01*
X52542602Y-6983619D01*
X52476644Y-6984340D01*
X52417713Y-6984747D01*
X52371179Y-6984822D01*
X52342417Y-6984545D01*
X52337963Y-6984385D01*
X52319748Y-6986607D01*
X52311778Y-7000386D01*
X52310058Y-7031009D01*
X52202376Y-7031009D01*
X52203452Y-6992323D01*
X52204551Y-6956542D01*
X52204952Y-6917204D01*
X52204389Y-6860674D01*
X52202984Y-6794540D01*
X52202042Y-6764306D01*
X52310058Y-6764306D01*
X52310058Y-6844921D01*
X52471289Y-6844921D01*
X52531264Y-6844120D01*
X52581124Y-6841929D01*
X52616264Y-6838664D01*
X52632079Y-6834643D01*
X52632519Y-6833822D01*
X52644073Y-6825145D01*
X52679108Y-6816490D01*
X52738185Y-6807734D01*
X52765228Y-6804557D01*
X52794501Y-6795281D01*
X52808016Y-6786010D01*
X52830619Y-6775162D01*
X52863635Y-6770510D01*
X52864443Y-6770507D01*
X52888768Y-6769388D01*
X52900830Y-6761737D01*
X52904930Y-6741110D01*
X52905371Y-6709228D01*
X52903302Y-6672436D01*
X52898034Y-6647061D01*
X52894270Y-6641087D01*
X52878491Y-6638267D01*
X52842638Y-6635167D01*
X52791434Y-6632098D01*
X52729603Y-6629373D01*
X52703251Y-6628459D01*
X52523333Y-6622691D01*
X52515678Y-6653191D01*
X52510448Y-6668367D01*
X52500521Y-6677439D01*
X52480425Y-6681972D01*
X52444686Y-6683531D01*
X52409041Y-6683691D01*
X52310058Y-6683691D01*
X52310058Y-6764306D01*
X52202042Y-6764306D01*
X52200883Y-6727099D01*
X52199295Y-6683691D01*
X52194983Y-6565869D01*
X51905255Y-6563764D01*
X51615527Y-6561660D01*
X51615527Y-6876924D01*
X51615527Y-7192187D01*
X50586132Y-7192187D01*
X50586132Y-7055761D01*
X50640257Y-7055761D01*
X50694382Y-7055761D01*
X50702269Y-6998220D01*
X50708766Y-6947822D01*
X50709105Y-6931738D01*
X51204890Y-6931738D01*
X51208671Y-6990649D01*
X51212451Y-7049560D01*
X51268261Y-7053444D01*
X51304684Y-7058224D01*
X51330634Y-7065683D01*
X51335854Y-7068947D01*
X51353694Y-7075035D01*
X51388318Y-7079242D01*
X51425771Y-7080566D01*
X51503906Y-7080566D01*
X51503906Y-7030957D01*
X51503906Y-6981347D01*
X51409727Y-6981347D01*
X51361275Y-6980653D01*
X51332135Y-6977673D01*
X51316834Y-6971056D01*
X51309895Y-6959455D01*
X51309062Y-6956542D01*
X51298832Y-6939661D01*
X51275361Y-6932595D01*
X51253733Y-6931738D01*
X51204890Y-6931738D01*
X50709105Y-6931738D01*
X50709412Y-6917149D01*
X50701388Y-6901305D01*
X50681877Y-6895396D01*
X50648059Y-6894529D01*
X50642562Y-6894531D01*
X50574968Y-6894531D01*
X50571248Y-6965844D01*
X50567529Y-7037158D01*
X50514819Y-7040971D01*
X50481796Y-7044528D01*
X50466607Y-7053245D01*
X50462324Y-7073794D01*
X50462109Y-7091759D01*
X50458077Y-7127840D01*
X50443450Y-7152832D01*
X50414434Y-7169198D01*
X50367233Y-7179403D01*
X50319482Y-7184349D01*
X50256814Y-7191788D01*
X50218516Y-7202253D01*
X50206494Y-7210808D01*
X50182728Y-7224188D01*
X50139848Y-7229370D01*
X50136220Y-7229394D01*
X50100176Y-7227581D01*
X50079933Y-7219113D01*
X50066578Y-7199444D01*
X50063246Y-7192187D01*
X50044587Y-7165008D01*
X50024184Y-7154980D01*
X49989049Y-7150106D01*
X49967356Y-7132816D01*
X49956436Y-7099109D01*
X49953613Y-7049124D01*
X49953921Y-7024947D01*
X50077735Y-7024947D01*
X50083932Y-7045186D01*
X50085904Y-7047493D01*
X50104587Y-7054663D01*
X50133788Y-7056291D01*
X50163796Y-7053113D01*
X50184902Y-7045867D01*
X50189257Y-7039649D01*
X50178704Y-7026157D01*
X50153072Y-7011158D01*
X50121403Y-6998930D01*
X50092738Y-6993752D01*
X50092259Y-6993750D01*
X50081003Y-7003633D01*
X50077735Y-7024947D01*
X49953921Y-7024947D01*
X49954163Y-7005933D01*
X49957264Y-6981926D01*
X49965088Y-6971483D01*
X49979807Y-6968986D01*
X49984619Y-6968945D01*
X50006778Y-6964940D01*
X50014884Y-6947918D01*
X50015625Y-6931738D01*
X50012551Y-6905384D01*
X49998055Y-6895671D01*
X49978417Y-6894531D01*
X49948879Y-6900077D01*
X49941210Y-6913134D01*
X49932822Y-6926210D01*
X49905176Y-6931470D01*
X49892749Y-6931738D01*
X49844287Y-6931738D01*
X49836430Y-6860424D01*
X49833013Y-6820982D01*
X49829262Y-6763905D01*
X49825597Y-6696349D01*
X49822438Y-6625473D01*
X49821989Y-6613820D01*
X49815404Y-6438529D01*
X49767398Y-6430853D01*
X49737094Y-6424353D01*
X49722568Y-6412464D01*
X49716948Y-6387180D01*
X49715579Y-6370499D01*
X49712093Y-6338069D01*
X49703076Y-6321850D01*
X49681376Y-6314780D01*
X49655957Y-6311621D01*
X49621638Y-6306698D01*
X49604843Y-6297451D01*
X49598420Y-6277011D01*
X49596415Y-6254412D01*
X49592685Y-6203405D01*
X49351384Y-6197346D01*
X49259947Y-6194640D01*
X49190252Y-6191134D01*
X49139238Y-6185971D01*
X49103843Y-6178288D01*
X49081004Y-6167227D01*
X49067661Y-6151926D01*
X49060750Y-6131526D01*
X49058243Y-6114994D01*
X49054494Y-6096976D01*
X49044525Y-6086722D01*
X49022333Y-6081537D01*
X48981914Y-6078725D01*
X48976928Y-6078485D01*
X48929649Y-6074197D01*
X48904756Y-6066582D01*
X48899414Y-6058331D01*
X48888660Y-6044633D01*
X48862743Y-6034537D01*
X48862207Y-6034428D01*
X48825000Y-6026987D01*
X48825000Y-5901191D01*
X48923391Y-5901191D01*
X49007520Y-5904868D01*
X49091650Y-5908544D01*
X49095317Y-5992260D01*
X49098984Y-6075976D01*
X49147295Y-6075976D01*
X49180129Y-6078892D01*
X49201071Y-6086123D01*
X49203271Y-6088378D01*
X49219532Y-6096306D01*
X49250378Y-6100554D01*
X49259813Y-6100781D01*
X49308691Y-6100781D01*
X49308691Y-6044970D01*
X49308691Y-5989160D01*
X49364501Y-5989160D01*
X49420312Y-5989160D01*
X49420312Y-6038769D01*
X49420312Y-6088378D01*
X49502589Y-6088378D01*
X49554758Y-6090753D01*
X49605145Y-6096901D01*
X49635038Y-6103410D01*
X49668582Y-6111668D01*
X49685339Y-6110115D01*
X49690220Y-6103410D01*
X49704887Y-6094846D01*
X49742511Y-6089876D01*
X49799381Y-6088378D01*
X49850126Y-6088672D01*
X49881367Y-6090634D01*
X49898402Y-6095883D01*
X49906532Y-6106037D01*
X49911004Y-6122485D01*
X49920356Y-6160628D01*
X49930596Y-6180047D01*
X49947456Y-6186347D01*
X49975217Y-6185251D01*
X50005963Y-6180740D01*
X50019924Y-6168791D01*
X50025110Y-6141407D01*
X50025675Y-6134887D01*
X50029524Y-6088378D01*
X50103190Y-6088378D01*
X50176855Y-6088378D01*
X50176855Y-6014677D01*
X50176855Y-5940976D01*
X50124145Y-5937163D01*
X50071435Y-5933349D01*
X50067833Y-5831030D01*
X50064886Y-5747314D01*
X50170654Y-5747314D01*
X50170654Y-5834130D01*
X50222765Y-5837915D01*
X50274877Y-5841699D01*
X50278576Y-5912329D01*
X50282275Y-5982958D01*
X50330621Y-5986917D01*
X50378967Y-5990876D01*
X50369972Y-6433034D01*
X50367731Y-6535470D01*
X50365361Y-6630052D01*
X50362956Y-6713916D01*
X50360612Y-6784202D01*
X50358423Y-6838046D01*
X50356484Y-6872588D01*
X50355000Y-6884861D01*
X50340041Y-6890720D01*
X50309346Y-6894156D01*
X50293945Y-6894531D01*
X50238867Y-6894531D01*
X50238867Y-6957433D01*
X50238867Y-7020336D01*
X50347387Y-7015964D01*
X50455908Y-7011591D01*
X50459672Y-6931679D01*
X50463909Y-6882152D01*
X50465565Y-6876924D01*
X50473310Y-6852465D01*
X50491541Y-6837695D01*
X50522269Y-6832923D01*
X50533422Y-6832709D01*
X50573730Y-6832519D01*
X50573730Y-6792836D01*
X51205173Y-6792836D01*
X51267723Y-6801439D01*
X51303216Y-6808319D01*
X51325882Y-6816551D01*
X51330273Y-6821280D01*
X51340798Y-6830128D01*
X51358178Y-6832709D01*
X51387481Y-6837001D01*
X51401421Y-6842640D01*
X51423419Y-6847881D01*
X51456646Y-6847683D01*
X51460439Y-6847282D01*
X51493641Y-6838633D01*
X51509350Y-6820112D01*
X51511077Y-6814464D01*
X51514698Y-6783600D01*
X51514484Y-6744140D01*
X51514071Y-6738319D01*
X51509616Y-6706739D01*
X51498502Y-6692088D01*
X51473630Y-6686495D01*
X51466699Y-6685801D01*
X51434762Y-6678385D01*
X51414452Y-6665713D01*
X51413372Y-6664097D01*
X51395086Y-6651856D01*
X51364512Y-6646494D01*
X51363143Y-6646484D01*
X51331048Y-6642645D01*
X51309744Y-6633391D01*
X51309526Y-6633178D01*
X51288898Y-6625144D01*
X51256831Y-6623663D01*
X51254335Y-6623876D01*
X51212451Y-6627880D01*
X51208812Y-6710358D01*
X51205173Y-6792836D01*
X50573730Y-6792836D01*
X50573730Y-6461095D01*
X51714746Y-6461095D01*
X51903881Y-6457671D01*
X52093017Y-6454248D01*
X52094265Y-6434805D01*
X52206434Y-6434805D01*
X52208183Y-6447976D01*
X52215071Y-6473554D01*
X52231072Y-6483690D01*
X52255655Y-6485253D01*
X52284244Y-6487579D01*
X52295716Y-6498769D01*
X52297656Y-6520393D01*
X52300312Y-6548798D01*
X52305924Y-6563802D01*
X52320960Y-6567113D01*
X52355444Y-6569793D01*
X52404021Y-6571541D01*
X52453425Y-6572070D01*
X52516411Y-6571454D01*
X52558636Y-6569268D01*
X52584121Y-6564998D01*
X52596886Y-6558135D01*
X52599797Y-6553466D01*
X52618357Y-6539368D01*
X52656934Y-6534863D01*
X52688852Y-6533689D01*
X52703098Y-6525504D01*
X52706804Y-6503310D01*
X52706933Y-6485815D01*
X52705184Y-6453830D01*
X52695460Y-6438099D01*
X52671040Y-6430100D01*
X52661540Y-6428252D01*
X52626073Y-6425383D01*
X52605658Y-6434650D01*
X52602415Y-6438515D01*
X52579421Y-6453676D01*
X52540862Y-6464761D01*
X52495861Y-6470101D01*
X52453541Y-6468031D01*
X52447372Y-6466845D01*
X52425570Y-6460071D01*
X52414037Y-6447412D01*
X52408766Y-6421736D01*
X52406795Y-6394574D01*
X52403076Y-6330398D01*
X52355639Y-6330311D01*
X52323851Y-6332517D01*
X52308405Y-6342760D01*
X52301379Y-6364331D01*
X52292335Y-6388495D01*
X52272798Y-6397535D01*
X52254764Y-6398437D01*
X52221595Y-6400439D01*
X52207401Y-6410524D01*
X52206434Y-6434805D01*
X52094265Y-6434805D01*
X52096797Y-6395336D01*
X52100577Y-6336425D01*
X52148859Y-6336425D01*
X52197141Y-6336425D01*
X52200889Y-6271313D01*
X52204215Y-6213552D01*
X52402530Y-6213552D01*
X52407253Y-6263084D01*
X52411977Y-6312615D01*
X52506745Y-6309017D01*
X52601513Y-6305419D01*
X52605143Y-6216220D01*
X52608772Y-6127020D01*
X52654752Y-6123202D01*
X52684058Y-6119103D01*
X52697937Y-6108273D01*
X52703261Y-6083122D01*
X52704467Y-6068287D01*
X52704989Y-6034818D01*
X52697848Y-6017875D01*
X52679707Y-6009557D01*
X52679662Y-6009545D01*
X52640556Y-6001556D01*
X52618780Y-6006769D01*
X52608681Y-6029056D01*
X52605293Y-6060473D01*
X52602039Y-6096061D01*
X52594603Y-6113867D01*
X52577463Y-6120879D01*
X52555738Y-6123190D01*
X52525102Y-6128048D01*
X52511226Y-6140380D01*
X52506128Y-6166598D01*
X52501363Y-6192233D01*
X52488612Y-6204392D01*
X52460195Y-6209265D01*
X52452412Y-6209876D01*
X52402530Y-6213552D01*
X52204215Y-6213552D01*
X52204638Y-6206201D01*
X52257348Y-6202387D01*
X52290364Y-6198862D01*
X52305554Y-6190113D01*
X52309840Y-6169272D01*
X52310058Y-6150113D01*
X52313393Y-6117736D01*
X52326238Y-6095847D01*
X52352850Y-6081623D01*
X52397488Y-6072238D01*
X52434095Y-6067817D01*
X52509665Y-6059918D01*
X52505980Y-5996634D01*
X52500628Y-5954746D01*
X52494659Y-5942922D01*
X52520898Y-5942922D01*
X52578439Y-5935035D01*
X52622077Y-5930120D01*
X52661652Y-5927364D01*
X52671457Y-5927148D01*
X52692466Y-5925644D01*
X52702943Y-5916871D01*
X52706544Y-5894438D01*
X52706933Y-5865136D01*
X52706933Y-5803125D01*
X52613916Y-5803125D01*
X52520898Y-5803125D01*
X52520898Y-5873023D01*
X52520898Y-5942922D01*
X52494659Y-5942922D01*
X52490992Y-5935657D01*
X52486791Y-5934589D01*
X52467210Y-5935465D01*
X52430687Y-5936573D01*
X52385078Y-5937677D01*
X52384472Y-5937690D01*
X52297656Y-5939550D01*
X52297656Y-6001562D01*
X52297656Y-6063574D01*
X52248909Y-6063574D01*
X52216414Y-6065861D01*
X52201122Y-6075331D01*
X52196199Y-6091479D01*
X52192389Y-6106084D01*
X52182412Y-6114086D01*
X52160600Y-6117022D01*
X52121282Y-6116431D01*
X52106422Y-6115845D01*
X52054994Y-6115355D01*
X52023419Y-6121097D01*
X52006951Y-6136105D01*
X52000845Y-6163412D01*
X52000189Y-6183748D01*
X51997804Y-6209915D01*
X51986087Y-6221987D01*
X51957684Y-6226798D01*
X51953491Y-6227156D01*
X51924196Y-6231117D01*
X51910125Y-6241494D01*
X51904641Y-6265747D01*
X51903168Y-6283715D01*
X51899635Y-6316733D01*
X51890895Y-6331923D01*
X51870133Y-6336208D01*
X51851294Y-6336425D01*
X51817193Y-6339628D01*
X51799885Y-6351493D01*
X51795123Y-6361980D01*
X51784500Y-6379516D01*
X51763444Y-6381922D01*
X51750879Y-6379598D01*
X51726965Y-6376115D01*
X51716928Y-6384173D01*
X51714763Y-6409881D01*
X51714746Y-6416378D01*
X51714746Y-6461095D01*
X50573730Y-6461095D01*
X50573730Y-6416378D01*
X50573730Y-6368180D01*
X50573730Y-6311621D01*
X51205012Y-6311621D01*
X51267642Y-6311621D01*
X51330273Y-6311621D01*
X51330273Y-6355029D01*
X51331834Y-6383020D01*
X51341333Y-6395314D01*
X51365992Y-6398361D01*
X51378871Y-6398437D01*
X51427469Y-6398437D01*
X51431909Y-6240307D01*
X51432870Y-6179633D01*
X51432294Y-6127798D01*
X51430339Y-6089918D01*
X51427161Y-6071109D01*
X51426720Y-6070395D01*
X51422782Y-6053796D01*
X51420357Y-6026367D01*
X51524996Y-6026367D01*
X51533054Y-6139893D01*
X51536688Y-6194891D01*
X51539470Y-6244272D01*
X51540969Y-6280058D01*
X51541113Y-6288721D01*
X51543260Y-6311378D01*
X51554424Y-6321451D01*
X51581685Y-6323979D01*
X51590722Y-6324023D01*
X51640332Y-6324023D01*
X51640332Y-6274414D01*
X51641646Y-6242650D01*
X51649760Y-6228535D01*
X51670931Y-6224915D01*
X51683740Y-6224804D01*
X51727148Y-6224804D01*
X51727148Y-6164201D01*
X51727148Y-6103597D01*
X51671337Y-6095228D01*
X51636601Y-6088267D01*
X51620172Y-6078213D01*
X51615592Y-6060597D01*
X51615527Y-6056613D01*
X51612328Y-6036441D01*
X51597957Y-6027960D01*
X51570261Y-6026367D01*
X51524996Y-6026367D01*
X51420357Y-6026367D01*
X51419622Y-6018057D01*
X51417614Y-5968839D01*
X51417089Y-5924667D01*
X51417089Y-5873023D01*
X51417089Y-5790722D01*
X51324072Y-5790722D01*
X51231054Y-5790722D01*
X51231054Y-5844052D01*
X51233652Y-5879756D01*
X51240156Y-5904947D01*
X51243000Y-5909328D01*
X51248972Y-5926223D01*
X51255225Y-5961824D01*
X51260819Y-6010061D01*
X51263357Y-6040941D01*
X51267032Y-6096007D01*
X51268143Y-6131085D01*
X51265876Y-6150928D01*
X51259413Y-6160293D01*
X51247941Y-6163932D01*
X51242110Y-6164801D01*
X51225147Y-6169641D01*
X51215648Y-6182226D01*
X51210845Y-6208821D01*
X51208731Y-6240307D01*
X51205012Y-6311621D01*
X50573730Y-6311621D01*
X50573730Y-5903841D01*
X50527221Y-5899991D01*
X50480712Y-5896142D01*
X50478545Y-5854589D01*
X50586799Y-5854589D01*
X50593765Y-5870582D01*
X50610790Y-5876608D01*
X50640105Y-5877538D01*
X50641943Y-5877539D01*
X50697753Y-5877539D01*
X50697753Y-6088880D01*
X50697753Y-6300221D01*
X50800073Y-6296619D01*
X50902392Y-6293017D01*
X50906141Y-6227905D01*
X50909890Y-6162792D01*
X50865833Y-6162792D01*
X50821777Y-6162792D01*
X50821777Y-6075267D01*
X50819729Y-6021250D01*
X50814399Y-5968394D01*
X50808071Y-5933311D01*
X50797841Y-5899444D01*
X50784959Y-5882845D01*
X50762245Y-5876396D01*
X50749352Y-5875109D01*
X50704338Y-5871337D01*
X50704146Y-5796923D01*
X50703955Y-5722509D01*
X50653016Y-5718782D01*
X50602078Y-5715055D01*
X50594105Y-5773223D01*
X50587656Y-5823759D01*
X50586799Y-5854589D01*
X50478545Y-5854589D01*
X50476993Y-5824829D01*
X50473273Y-5753515D01*
X50418082Y-5753515D01*
X50362890Y-5753515D01*
X50362890Y-5703384D01*
X50362890Y-5678036D01*
X51601918Y-5678036D01*
X51698640Y-5681669D01*
X51795361Y-5685302D01*
X51799210Y-5731811D01*
X51803519Y-5762284D01*
X51814579Y-5775324D01*
X51839933Y-5778288D01*
X51846880Y-5778320D01*
X51879533Y-5782306D01*
X51894925Y-5796369D01*
X51897004Y-5802423D01*
X51908699Y-5820027D01*
X51934970Y-5830784D01*
X51979313Y-5835563D01*
X52031005Y-5835643D01*
X52093017Y-5834130D01*
X52096831Y-5781420D01*
X52100346Y-5748406D01*
X52109106Y-5733216D01*
X52130034Y-5728929D01*
X52149541Y-5728710D01*
X52198437Y-5728710D01*
X52198437Y-5643692D01*
X52198437Y-5558673D01*
X51978295Y-5549261D01*
X51900611Y-5546025D01*
X51825745Y-5543062D01*
X51759615Y-5540594D01*
X51708142Y-5538845D01*
X51683740Y-5538161D01*
X51609326Y-5536474D01*
X51605622Y-5607255D01*
X51601918Y-5678036D01*
X50362890Y-5678036D01*
X50362890Y-5653253D01*
X50266772Y-5656875D01*
X50170654Y-5660498D01*
X50170654Y-5747314D01*
X50064886Y-5747314D01*
X50064231Y-5728710D01*
X49971715Y-5728710D01*
X49924513Y-5729169D01*
X49896889Y-5731622D01*
X49883619Y-5737686D01*
X49879478Y-5748978D01*
X49879199Y-5757346D01*
X49870450Y-5795968D01*
X49847391Y-5820512D01*
X49816492Y-5826006D01*
X49801350Y-5822387D01*
X49792040Y-5813265D01*
X49786819Y-5793353D01*
X49783944Y-5757363D01*
X49782510Y-5722889D01*
X49779078Y-5667685D01*
X49777660Y-5660498D01*
X49772193Y-5632781D01*
X49759522Y-5613695D01*
X49738733Y-5605949D01*
X49721069Y-5604877D01*
X49702984Y-5601431D01*
X49694960Y-5586868D01*
X49693164Y-5555078D01*
X49693164Y-5505468D01*
X49638085Y-5505468D01*
X49603202Y-5503118D01*
X49579991Y-5497196D01*
X49575976Y-5494093D01*
X49560343Y-5487899D01*
X49529547Y-5485976D01*
X49516333Y-5486576D01*
X49483303Y-5490212D01*
X49467526Y-5499600D01*
X49461592Y-5522166D01*
X49459815Y-5543231D01*
X49460633Y-5582971D01*
X49473487Y-5605501D01*
X49502922Y-5615271D01*
X49535034Y-5616899D01*
X49581542Y-5617089D01*
X49581542Y-5784521D01*
X49581542Y-5951953D01*
X49524132Y-5951953D01*
X49466722Y-5951953D01*
X49475387Y-5841182D01*
X49484053Y-5730411D01*
X49442881Y-5726460D01*
X49416833Y-5722019D01*
X49404199Y-5710381D01*
X49399045Y-5684069D01*
X49397895Y-5669799D01*
X49394346Y-5636779D01*
X49385622Y-5621589D01*
X49365000Y-5617306D01*
X49346735Y-5617089D01*
X49303152Y-5614923D01*
X49262359Y-5609674D01*
X49260632Y-5609338D01*
X49221875Y-5601586D01*
X49221875Y-5665148D01*
X49221875Y-5728710D01*
X49265717Y-5728710D01*
X49309559Y-5728710D01*
X49306024Y-5855834D01*
X49302490Y-5982958D01*
X49255981Y-5986808D01*
X49209472Y-5990657D01*
X49209303Y-5937198D01*
X49207018Y-5884074D01*
X49199081Y-5850877D01*
X49183257Y-5832969D01*
X49157310Y-5825707D01*
X49155496Y-5825520D01*
X49116455Y-5821728D01*
X49120407Y-5682202D01*
X49124359Y-5542675D01*
X49075225Y-5542675D01*
X49036824Y-5547763D01*
X49016991Y-5566048D01*
X49011051Y-5602061D01*
X49011035Y-5604916D01*
X49003363Y-5622627D01*
X48977129Y-5631082D01*
X48970727Y-5631806D01*
X48930419Y-5635693D01*
X48926905Y-5768442D01*
X48923391Y-5901191D01*
X48825000Y-5901191D01*
X48825000Y-5822038D01*
X48825000Y-5617089D01*
X48874609Y-5617089D01*
X48924218Y-5617089D01*
X48924218Y-5555579D01*
X48924218Y-5494069D01*
X48821899Y-5490467D01*
X48719580Y-5486865D01*
X48715957Y-5390747D01*
X48712335Y-5294628D01*
X48663247Y-5294628D01*
X48614160Y-5294628D01*
X48614160Y-5220927D01*
X48614160Y-5147226D01*
X48561450Y-5143413D01*
X48528437Y-5139912D01*
X48513247Y-5131134D01*
X48508959Y-5110065D01*
X48508740Y-5089990D01*
X48510166Y-5058086D01*
X48518926Y-5043251D01*
X48541744Y-5037757D01*
X48555249Y-5036531D01*
X48601757Y-5032682D01*
X48601757Y-5028493D01*
X48803537Y-5028493D01*
X48803833Y-5075590D01*
X48805544Y-5105189D01*
X48806854Y-5111694D01*
X48822725Y-5127649D01*
X48856671Y-5133321D01*
X48862942Y-5133398D01*
X48910632Y-5133398D01*
X48914325Y-5210913D01*
X48918017Y-5288427D01*
X49001733Y-5292094D01*
X49085449Y-5295762D01*
X49085449Y-5344804D01*
X49085449Y-5393847D01*
X49296289Y-5393847D01*
X49507128Y-5393847D01*
X49507128Y-5325634D01*
X49507933Y-5286567D01*
X49512187Y-5266225D01*
X49522649Y-5258539D01*
X49538134Y-5257421D01*
X49570215Y-5248795D01*
X49593945Y-5232617D01*
X49629714Y-5212483D01*
X49662158Y-5207812D01*
X49705566Y-5207812D01*
X49705566Y-5140462D01*
X49706656Y-5101227D01*
X49711601Y-5080346D01*
X49722909Y-5071405D01*
X49733471Y-5069148D01*
X49745158Y-5066373D01*
X49753155Y-5059174D01*
X49758305Y-5043361D01*
X49761452Y-5014741D01*
X49763437Y-4969120D01*
X49764861Y-4913023D01*
X49768345Y-4760861D01*
X49730754Y-4753343D01*
X49710987Y-4748441D01*
X49699749Y-4739708D01*
X49694632Y-4721196D01*
X49693227Y-4686960D01*
X49693164Y-4660559D01*
X49693164Y-4575292D01*
X49632479Y-4575292D01*
X49591721Y-4572555D01*
X49568812Y-4560790D01*
X49558803Y-4534665D01*
X49556738Y-4493663D01*
X49555422Y-4467371D01*
X49546918Y-4455089D01*
X49524386Y-4451484D01*
X49502374Y-4451269D01*
X49466548Y-4448984D01*
X49448266Y-4440227D01*
X49441523Y-4426464D01*
X49437303Y-4416345D01*
X49428142Y-4409424D01*
X49409938Y-4405097D01*
X49378590Y-4402763D01*
X49329996Y-4401819D01*
X49272645Y-4401660D01*
X49110253Y-4401660D01*
X49110253Y-4444319D01*
X49108234Y-4472557D01*
X49097252Y-4485407D01*
X49069919Y-4490334D01*
X49064234Y-4490828D01*
X49031802Y-4496865D01*
X49015891Y-4511252D01*
X49011002Y-4525683D01*
X48999150Y-4549068D01*
X48972931Y-4560770D01*
X48960903Y-4562890D01*
X48936274Y-4567713D01*
X48922791Y-4577457D01*
X48916070Y-4598767D01*
X48911816Y-4637304D01*
X48907598Y-4676299D01*
X48901055Y-4696992D01*
X48887642Y-4705790D01*
X48862813Y-4709095D01*
X48860739Y-4709269D01*
X48815862Y-4713021D01*
X48807160Y-4901505D01*
X48804648Y-4968822D01*
X48803537Y-5028493D01*
X48601757Y-5028493D01*
X48601757Y-4934998D01*
X48601757Y-4837313D01*
X48561450Y-4833427D01*
X48535565Y-4828976D01*
X48524089Y-4817231D01*
X48521203Y-4790470D01*
X48521142Y-4779931D01*
X48522568Y-4748027D01*
X48531328Y-4733193D01*
X48554146Y-4727698D01*
X48567651Y-4726473D01*
X48614160Y-4722623D01*
X48614160Y-4624153D01*
X48614160Y-4525683D01*
X48663769Y-4525683D01*
X48713378Y-4525683D01*
X48713548Y-4472973D01*
X48715104Y-4420913D01*
X48721956Y-4388826D01*
X48737994Y-4371920D01*
X48767107Y-4365405D01*
X48801641Y-4364453D01*
X48842328Y-4363937D01*
X48864114Y-4360383D01*
X48872904Y-4350779D01*
X48874601Y-4332116D01*
X48874609Y-4327246D01*
X48874609Y-4290039D01*
X48964526Y-4288608D01*
X49021546Y-4287584D01*
X49058461Y-4285566D01*
X49079960Y-4280860D01*
X49090733Y-4271772D01*
X49095469Y-4256605D01*
X49097851Y-4240429D01*
X49104499Y-4211378D01*
X49118813Y-4198235D01*
X49149311Y-4193258D01*
X49149805Y-4193217D01*
X49180869Y-4187977D01*
X49195015Y-4175343D01*
X49199415Y-4156010D01*
X49204790Y-4134584D01*
X49219259Y-4123940D01*
X49250181Y-4119235D01*
X49255981Y-4118793D01*
X49308691Y-4114980D01*
X49308691Y-4160931D01*
X49308691Y-4206882D01*
X49415706Y-4198656D01*
X49477258Y-4195480D01*
X49518267Y-4198176D01*
X49542599Y-4208213D01*
X49554122Y-4227066D01*
X49556738Y-4252337D01*
X49557624Y-4268164D01*
X49563398Y-4278598D01*
X49578738Y-4285473D01*
X49608317Y-4290621D01*
X49656814Y-4295878D01*
X49671459Y-4297327D01*
X49786181Y-4308642D01*
X49789990Y-4368260D01*
X49793799Y-4427877D01*
X49839599Y-4424070D01*
X49870627Y-4418882D01*
X49884774Y-4406305D01*
X49889324Y-4386157D01*
X49895352Y-4362835D01*
X49911462Y-4353495D01*
X49935833Y-4352050D01*
X49964380Y-4354025D01*
X49976088Y-4365016D01*
X49978413Y-4392625D01*
X49978417Y-4395458D01*
X49976498Y-4424552D01*
X49965666Y-4436484D01*
X49938313Y-4438861D01*
X49935009Y-4438867D01*
X49891601Y-4438867D01*
X49891601Y-4556689D01*
X49891601Y-4674511D01*
X49935009Y-4674511D01*
X49963701Y-4677626D01*
X49978043Y-4685286D01*
X49978417Y-4686914D01*
X49989195Y-4695622D01*
X50015162Y-4699315D01*
X50015625Y-4699316D01*
X50038861Y-4701053D01*
X50049621Y-4710845D01*
X50052687Y-4735563D01*
X50052832Y-4752756D01*
X50047536Y-4799577D01*
X50033228Y-4831961D01*
X50012272Y-4845933D01*
X49998438Y-4844203D01*
X49989625Y-4842906D01*
X49983915Y-4849651D01*
X49980824Y-4868274D01*
X49979870Y-4902613D01*
X49980571Y-4956503D01*
X49981142Y-4981714D01*
X49984619Y-5127197D01*
X49936878Y-5131119D01*
X49906283Y-5135333D01*
X49894686Y-5144032D01*
X49896279Y-5161665D01*
X49896401Y-5162125D01*
X49902393Y-5190750D01*
X49903834Y-5204711D01*
X49914306Y-5216950D01*
X49939847Y-5219807D01*
X49971202Y-5212686D01*
X49986456Y-5195763D01*
X49990820Y-5175479D01*
X49994460Y-5155129D01*
X50010222Y-5146984D01*
X50032901Y-5145800D01*
X50062689Y-5148969D01*
X50078452Y-5161855D01*
X50083127Y-5189531D01*
X50080603Y-5228201D01*
X50074988Y-5261698D01*
X50063440Y-5278477D01*
X50040069Y-5286629D01*
X50037702Y-5287112D01*
X50000453Y-5291972D01*
X49955664Y-5294518D01*
X49945861Y-5294628D01*
X49891601Y-5294628D01*
X49891601Y-5343452D01*
X49893261Y-5375146D01*
X49902212Y-5389860D01*
X49924409Y-5395383D01*
X49931909Y-5396162D01*
X49960840Y-5402639D01*
X49973360Y-5419089D01*
X49976141Y-5434155D01*
X49976722Y-5455865D01*
X49967425Y-5465631D01*
X49941789Y-5468190D01*
X49929632Y-5468261D01*
X49897481Y-5466854D01*
X49883056Y-5459160D01*
X49879300Y-5439976D01*
X49879199Y-5431054D01*
X49876779Y-5406056D01*
X49864505Y-5395803D01*
X49835791Y-5393847D01*
X49806443Y-5396073D01*
X49793937Y-5407055D01*
X49790522Y-5431054D01*
X49788773Y-5463051D01*
X49787421Y-5483642D01*
X49797253Y-5496244D01*
X49822691Y-5505280D01*
X49823388Y-5505402D01*
X49848902Y-5513228D01*
X49860500Y-5530490D01*
X49864338Y-5556445D01*
X49868080Y-5601110D01*
X49969758Y-5609025D01*
X50028137Y-5612922D01*
X50086657Y-5615771D01*
X50133416Y-5617003D01*
X50136547Y-5617015D01*
X50201660Y-5617089D01*
X50201660Y-5566842D01*
X50201660Y-5516596D01*
X50396997Y-5520334D01*
X50592333Y-5524072D01*
X50592333Y-5412451D01*
X50592333Y-5300830D01*
X50496215Y-5297207D01*
X50400097Y-5293585D01*
X50400097Y-5159008D01*
X50400627Y-5096063D01*
X50403476Y-5053807D01*
X50410529Y-5028124D01*
X50416840Y-5021777D01*
X50511718Y-5021777D01*
X50511718Y-5120996D01*
X50511718Y-5220214D01*
X50603186Y-5220214D01*
X50650107Y-5220618D01*
X50677902Y-5223155D01*
X50692252Y-5229820D01*
X50698834Y-5242603D01*
X50701554Y-5254718D01*
X50711212Y-5279625D01*
X50732312Y-5290249D01*
X50749126Y-5292322D01*
X50786559Y-5301363D01*
X50805134Y-5323938D01*
X50809185Y-5353540D01*
X50813111Y-5372366D01*
X50829235Y-5380176D01*
X50853944Y-5381445D01*
X50886589Y-5385149D01*
X50902221Y-5398524D01*
X50905000Y-5406250D01*
X50915377Y-5423242D01*
X50939186Y-5430269D01*
X50959649Y-5431054D01*
X50990478Y-5432310D01*
X51004176Y-5440852D01*
X51007697Y-5463839D01*
X51007812Y-5480664D01*
X51007812Y-5530273D01*
X51206250Y-5530273D01*
X51404687Y-5530273D01*
X51404687Y-5480664D01*
X51404687Y-5431054D01*
X51454296Y-5431054D01*
X51503906Y-5431054D01*
X51503906Y-5368180D01*
X51606082Y-5368180D01*
X51618488Y-5387613D01*
X51649429Y-5393803D01*
X51653587Y-5393847D01*
X51688593Y-5402038D01*
X51710496Y-5417570D01*
X51719456Y-5425912D01*
X51732378Y-5432083D01*
X51752839Y-5436433D01*
X51784420Y-5439316D01*
X51830701Y-5441083D01*
X51895261Y-5442089D01*
X51964622Y-5442593D01*
X52198437Y-5443894D01*
X52198437Y-5389315D01*
X52198437Y-5334737D01*
X51955909Y-5341318D01*
X51872760Y-5343501D01*
X51811075Y-5344718D01*
X51767524Y-5344701D01*
X51738777Y-5343183D01*
X51721502Y-5339895D01*
X51712371Y-5334570D01*
X51708051Y-5326940D01*
X51706415Y-5321263D01*
X51694738Y-5301842D01*
X51668851Y-5294903D01*
X51658474Y-5294628D01*
X51629141Y-5297946D01*
X51614939Y-5312559D01*
X51609392Y-5331533D01*
X51606082Y-5368180D01*
X51503906Y-5368180D01*
X51503906Y-5363931D01*
X51503906Y-5296809D01*
X51454296Y-5288427D01*
X51404687Y-5280046D01*
X51404687Y-5212923D01*
X51404687Y-5152001D01*
X51609326Y-5152001D01*
X51614483Y-5169101D01*
X51634110Y-5177821D01*
X51657213Y-5180738D01*
X51692740Y-5187830D01*
X51709513Y-5203298D01*
X51711369Y-5208643D01*
X51714839Y-5216913D01*
X51722522Y-5223029D01*
X51737744Y-5227314D01*
X51763834Y-5230092D01*
X51804119Y-5231685D01*
X51861925Y-5232418D01*
X51940580Y-5232614D01*
X51958038Y-5232617D01*
X52198437Y-5232617D01*
X52198437Y-5189208D01*
X52198437Y-5145800D01*
X52008681Y-5145800D01*
X51931992Y-5144950D01*
X51870890Y-5142522D01*
X51828292Y-5138705D01*
X51807113Y-5133684D01*
X51805941Y-5132816D01*
X51787273Y-5126654D01*
X51750402Y-5123352D01*
X51701822Y-5123488D01*
X51701141Y-5123515D01*
X51653846Y-5126080D01*
X51626217Y-5130118D01*
X51613113Y-5137225D01*
X51609395Y-5148994D01*
X51609326Y-5152001D01*
X51404687Y-5152001D01*
X51404687Y-5145800D01*
X51454976Y-5145800D01*
X51505265Y-5145800D01*
X51501485Y-5086889D01*
X51498138Y-5051339D01*
X51491143Y-5034179D01*
X51603125Y-5034179D01*
X51651287Y-5034179D01*
X51684443Y-5031425D01*
X51701036Y-5020526D01*
X51706929Y-5006274D01*
X51709569Y-4990771D01*
X51913183Y-4990771D01*
X51913183Y-5034179D01*
X52055810Y-5034179D01*
X52198437Y-5034179D01*
X52198437Y-4978369D01*
X52198437Y-4922558D01*
X52149560Y-4922558D01*
X52116535Y-4925441D01*
X52095368Y-4932602D01*
X52093017Y-4934960D01*
X52077627Y-4941150D01*
X52044513Y-4945595D01*
X52000740Y-4947361D01*
X51999268Y-4947363D01*
X51913183Y-4947363D01*
X51913183Y-4990771D01*
X51709569Y-4990771D01*
X51712837Y-4971580D01*
X51714379Y-4947363D01*
X51714576Y-4944262D01*
X51712774Y-4923267D01*
X51702637Y-4913320D01*
X51677482Y-4910326D01*
X51658935Y-4910156D01*
X51603125Y-4910156D01*
X51603125Y-4972167D01*
X51603125Y-5034179D01*
X51491143Y-5034179D01*
X51491085Y-5034037D01*
X51475788Y-5028440D01*
X51460619Y-5027978D01*
X51433344Y-5031928D01*
X51420800Y-5048946D01*
X51417152Y-5065185D01*
X51410480Y-5088978D01*
X51396126Y-5100631D01*
X51366278Y-5105571D01*
X51358119Y-5106206D01*
X51305468Y-5110019D01*
X51305468Y-5004033D01*
X51305468Y-4972167D01*
X51305468Y-4898047D01*
X51255859Y-4890114D01*
X51223874Y-4883018D01*
X51209666Y-4871467D01*
X51206264Y-4849339D01*
X51206250Y-4846559D01*
X51204136Y-4823700D01*
X51193070Y-4813538D01*
X51165966Y-4810984D01*
X51156640Y-4810937D01*
X51107031Y-4810937D01*
X51107031Y-4761328D01*
X51107031Y-4711718D01*
X51008492Y-4711718D01*
X50909952Y-4711718D01*
X50906172Y-4770533D01*
X50902392Y-4829349D01*
X50842240Y-4837896D01*
X50794461Y-4845560D01*
X50766200Y-4854523D01*
X50752343Y-4868993D01*
X50747774Y-4893181D01*
X50747363Y-4915968D01*
X50747363Y-4972167D01*
X50815576Y-4972167D01*
X50855019Y-4972211D01*
X50883840Y-4972324D01*
X50893090Y-4972427D01*
X50900185Y-4961692D01*
X50905633Y-4934941D01*
X50906241Y-4929018D01*
X50910470Y-4900866D01*
X50921618Y-4888485D01*
X50947479Y-4885420D01*
X50958951Y-4885351D01*
X50990277Y-4886589D01*
X51004159Y-4895088D01*
X51007700Y-4918026D01*
X51007812Y-4934724D01*
X51005479Y-4967772D01*
X50995536Y-4984368D01*
X50976834Y-4991872D01*
X50945840Y-4995252D01*
X50927224Y-4992498D01*
X50915040Y-4993040D01*
X50909544Y-5010199D01*
X50908593Y-5035317D01*
X50908593Y-5085286D01*
X50955102Y-5081437D01*
X50987348Y-5075676D01*
X51002141Y-5062557D01*
X51005574Y-5049682D01*
X51012186Y-5031266D01*
X51029861Y-5023282D01*
X51058284Y-5021777D01*
X51107031Y-5021777D01*
X51107031Y-5108593D01*
X51107031Y-5195410D01*
X51156640Y-5195410D01*
X51188408Y-5196748D01*
X51202526Y-5204827D01*
X51206142Y-5225744D01*
X51206250Y-5237728D01*
X51208330Y-5265299D01*
X51219298Y-5279202D01*
X51246239Y-5286750D01*
X51255291Y-5288331D01*
X51297026Y-5293276D01*
X51334898Y-5294512D01*
X51339007Y-5294308D01*
X51377114Y-5293208D01*
X51396672Y-5298991D01*
X51403738Y-5315415D01*
X51404497Y-5334936D01*
X51403172Y-5365577D01*
X51396887Y-5386110D01*
X51381665Y-5398150D01*
X51353529Y-5403309D01*
X51308502Y-5403202D01*
X51245113Y-5399605D01*
X51107031Y-5390656D01*
X51107031Y-5342642D01*
X51105724Y-5311740D01*
X51096994Y-5298134D01*
X51073622Y-5294726D01*
X51058207Y-5294628D01*
X51026513Y-5292968D01*
X51011799Y-5284018D01*
X51006276Y-5261820D01*
X51005497Y-5254321D01*
X51000384Y-5227511D01*
X50986732Y-5215167D01*
X50956548Y-5210285D01*
X50955102Y-5210164D01*
X50922792Y-5204258D01*
X50909671Y-5191752D01*
X50908593Y-5183844D01*
X50900972Y-5166996D01*
X50875015Y-5156455D01*
X50859815Y-5153573D01*
X50820462Y-5141387D01*
X50803395Y-5121694D01*
X50787623Y-5102824D01*
X50753021Y-5094088D01*
X50749854Y-5093803D01*
X50718788Y-5088627D01*
X50704611Y-5076101D01*
X50700030Y-5055883D01*
X50697037Y-5038477D01*
X50689391Y-5028307D01*
X50671614Y-5023428D01*
X50638228Y-5021898D01*
X50603912Y-5021777D01*
X50511718Y-5021777D01*
X50416840Y-5021777D01*
X50423675Y-5014902D01*
X50444799Y-5010028D01*
X50468733Y-5009374D01*
X50484901Y-5007453D01*
X50494180Y-4997904D01*
X50498991Y-4975052D01*
X50501760Y-4933220D01*
X50501825Y-4931860D01*
X50505517Y-4854345D01*
X50552026Y-4850496D01*
X50581985Y-4846448D01*
X50595167Y-4835834D01*
X50598451Y-4810857D01*
X50598535Y-4797786D01*
X50599760Y-4766511D01*
X50608209Y-4752614D01*
X50631043Y-4749043D01*
X50648144Y-4748925D01*
X50680023Y-4747346D01*
X50694229Y-4739374D01*
X50697848Y-4720154D01*
X50697923Y-4714819D01*
X50701325Y-4666974D01*
X50712777Y-4639030D01*
X50735027Y-4626655D01*
X50755010Y-4624902D01*
X50796972Y-4624902D01*
X50796972Y-4562890D01*
X50796972Y-4500878D01*
X50703955Y-4500878D01*
X50656618Y-4500450D01*
X50628866Y-4498062D01*
X50615484Y-4492063D01*
X50611253Y-4480800D01*
X50610937Y-4471423D01*
X50608431Y-4437258D01*
X50603186Y-4403210D01*
X50595434Y-4364453D01*
X50503967Y-4364453D01*
X50412500Y-4364453D01*
X50412500Y-4246630D01*
X50412500Y-4128808D01*
X50356689Y-4128808D01*
X50300878Y-4128808D01*
X50300878Y-3880761D01*
X50300878Y-3874560D01*
X50424902Y-3874560D01*
X50424902Y-4128808D01*
X50511718Y-4128808D01*
X50598535Y-4128808D01*
X50598535Y-4184619D01*
X50598535Y-4240429D01*
X50646817Y-4240429D01*
X50681176Y-4244040D01*
X50700527Y-4258265D01*
X50708818Y-4288192D01*
X50710156Y-4322059D01*
X50710156Y-4364453D01*
X50777354Y-4364453D01*
X50818968Y-4365791D01*
X50852245Y-4369216D01*
X50864171Y-4371981D01*
X50879549Y-4389205D01*
X50883134Y-4416892D01*
X50873935Y-4443176D01*
X50870447Y-4447248D01*
X50870821Y-4459220D01*
X50889668Y-4471652D01*
X50920830Y-4482056D01*
X50958151Y-4487941D01*
X50972456Y-4488476D01*
X50993394Y-4489991D01*
X51003836Y-4498797D01*
X51007425Y-4521284D01*
X51007812Y-4550488D01*
X51007812Y-4612500D01*
X51080407Y-4612500D01*
X51136256Y-4613965D01*
X51198260Y-4617703D01*
X51229235Y-4620467D01*
X51271042Y-4625514D01*
X51293862Y-4631653D01*
X51303424Y-4642072D01*
X51305458Y-4659957D01*
X51305468Y-4662861D01*
X51307307Y-4698454D01*
X51316039Y-4720285D01*
X51336483Y-4731682D01*
X51373461Y-4735969D01*
X51412215Y-4736523D01*
X51503906Y-4736523D01*
X51503906Y-4804736D01*
X51503906Y-4872949D01*
X51559716Y-4872949D01*
X51615527Y-4872949D01*
X51615357Y-4789233D01*
X51614048Y-4727833D01*
X51609461Y-4687177D01*
X51600165Y-4663273D01*
X51584725Y-4652129D01*
X51565295Y-4649707D01*
X51539055Y-4645262D01*
X51528206Y-4626909D01*
X51526434Y-4615600D01*
X51519252Y-4591058D01*
X51499989Y-4580208D01*
X51482202Y-4577607D01*
X51454747Y-4571830D01*
X51442005Y-4562978D01*
X51441894Y-4562104D01*
X51431113Y-4553947D01*
X51405140Y-4550489D01*
X51404687Y-4550488D01*
X51375148Y-4544941D01*
X51367480Y-4531884D01*
X51360472Y-4519883D01*
X51336459Y-4514153D01*
X51308569Y-4513111D01*
X51254620Y-4511606D01*
X51220800Y-4505432D01*
X51202487Y-4491542D01*
X51195059Y-4466884D01*
X51193847Y-4437420D01*
X51193847Y-4376855D01*
X51101478Y-4376855D01*
X51009108Y-4376855D01*
X51005360Y-4312794D01*
X51001611Y-4248732D01*
X50906168Y-4251572D01*
X50810726Y-4254412D01*
X50806949Y-4188509D01*
X50803173Y-4122607D01*
X50706735Y-4118979D01*
X50610297Y-4115351D01*
X50613717Y-3926743D01*
X50617138Y-3738134D01*
X50663023Y-3734322D01*
X50708909Y-3730510D01*
X50712633Y-3666109D01*
X50715320Y-3632714D01*
X50715669Y-3628373D01*
X50722180Y-3608522D01*
X50736769Y-3599662D01*
X50759765Y-3595507D01*
X50786077Y-3590223D01*
X50799390Y-3579393D01*
X50804982Y-3555736D01*
X50806712Y-3533496D01*
X51330273Y-3533496D01*
X51330273Y-3632714D01*
X51331723Y-3681850D01*
X51335683Y-3716378D01*
X51341566Y-3731602D01*
X51342675Y-3731933D01*
X51349836Y-3743069D01*
X51354316Y-3771464D01*
X51355078Y-3792214D01*
X51356874Y-3843709D01*
X51361340Y-3897006D01*
X51362869Y-3909342D01*
X51370661Y-3966190D01*
X51436175Y-3974376D01*
X51477870Y-3981951D01*
X51500212Y-3992988D01*
X51507837Y-4006075D01*
X51517063Y-4021129D01*
X51538739Y-4028130D01*
X51570958Y-4029589D01*
X51627929Y-4029589D01*
X51627929Y-3881493D01*
X51626930Y-3819792D01*
X51625717Y-3798079D01*
X51624165Y-3770290D01*
X51619986Y-3737390D01*
X51615527Y-3725732D01*
X51607909Y-3709626D01*
X51603535Y-3678301D01*
X51603125Y-3664366D01*
X51599750Y-3626715D01*
X51589900Y-3611497D01*
X51587622Y-3611241D01*
X51567245Y-3611231D01*
X51531300Y-3610591D01*
X51502355Y-3609863D01*
X51462532Y-3607929D01*
X51462453Y-3607910D01*
X52198437Y-3607910D01*
X52198437Y-3798079D01*
X52198950Y-3864393D01*
X52200365Y-3921741D01*
X52202495Y-3965633D01*
X52205153Y-3991581D01*
X52206705Y-3996516D01*
X52221849Y-3999958D01*
X52256176Y-4002699D01*
X52304070Y-4004398D01*
X52343131Y-4004785D01*
X52471289Y-4004785D01*
X52471289Y-3806347D01*
X52471289Y-3607910D01*
X52334863Y-3607910D01*
X52198437Y-3607910D01*
X51462453Y-3607910D01*
X51440803Y-3602721D01*
X51430457Y-3590834D01*
X51425151Y-3570703D01*
X51416932Y-3545441D01*
X51400327Y-3535206D01*
X51373991Y-3533496D01*
X51330273Y-3533496D01*
X50806712Y-3533496D01*
X50806953Y-3530395D01*
X50810734Y-3471484D01*
X50859072Y-3471484D01*
X50907410Y-3471484D01*
X50911102Y-3393969D01*
X50914794Y-3316455D01*
X50961303Y-3312605D01*
X50991425Y-3308494D01*
X51004559Y-3297699D01*
X51007744Y-3272353D01*
X51007812Y-3260644D01*
X51009376Y-3229354D01*
X51018761Y-3214991D01*
X51043007Y-3209689D01*
X51054321Y-3208683D01*
X51083615Y-3204722D01*
X51097687Y-3194344D01*
X51103170Y-3170091D01*
X51104643Y-3152124D01*
X51107562Y-3122661D01*
X51114878Y-3106095D01*
X51132524Y-3098271D01*
X51166435Y-3095036D01*
X51187646Y-3094014D01*
X51203298Y-3089072D01*
X51211788Y-3072020D01*
X51216061Y-3036692D01*
X51216231Y-3034123D01*
X51220011Y-2975390D01*
X51268228Y-2975390D01*
X51298521Y-2974143D01*
X51313020Y-2965786D01*
X51318560Y-2943394D01*
X51320258Y-2922680D01*
X51324072Y-2869970D01*
X51391909Y-2866127D01*
X51432786Y-2861675D01*
X51464482Y-2854400D01*
X51475625Y-2849105D01*
X51485423Y-2829327D01*
X51491008Y-2795482D01*
X51491503Y-2781635D01*
X51491503Y-2727343D01*
X51559716Y-2727343D01*
X51627929Y-2727343D01*
X51627929Y-2671533D01*
X51627929Y-2615722D01*
X51776757Y-2615722D01*
X51925585Y-2615722D01*
X51925585Y-2670966D01*
X51925585Y-2726210D01*
X52009301Y-2729877D01*
X52093017Y-2733544D01*
X52096866Y-2780053D01*
X52100914Y-2810012D01*
X52111529Y-2823194D01*
X52136505Y-2826478D01*
X52149576Y-2826562D01*
X52181278Y-2828364D01*
X52195241Y-2836623D01*
X52198435Y-2855616D01*
X52198437Y-2856554D01*
X52202941Y-2897134D01*
X52218941Y-2918676D01*
X52250166Y-2925699D01*
X52255574Y-2925781D01*
X52297656Y-2925781D01*
X52297656Y-2993472D01*
X52297656Y-3061163D01*
X52393774Y-3064785D01*
X52489892Y-3068408D01*
X52493641Y-3133520D01*
X52497390Y-3198632D01*
X52545924Y-3198632D01*
X52594458Y-3198632D01*
X52602684Y-3260644D01*
X52608510Y-3297289D01*
X52616577Y-3315614D01*
X52631840Y-3321954D01*
X52651170Y-3322656D01*
X52679994Y-3325977D01*
X52693734Y-3340986D01*
X52699182Y-3361413D01*
X52704953Y-3401934D01*
X52706933Y-3435078D01*
X52709706Y-3458324D01*
X52722845Y-3469239D01*
X52753442Y-3473836D01*
X52799951Y-3477685D01*
X52803676Y-3542115D01*
X52807401Y-3606544D01*
X52859486Y-3610328D01*
X52911572Y-3614111D01*
X52917773Y-3676123D01*
X52923974Y-3738134D01*
X52973423Y-3742159D01*
X53007090Y-3748104D01*
X53029291Y-3757876D01*
X53031974Y-3760762D01*
X53035463Y-3778742D01*
X53037823Y-3815911D01*
X53039110Y-3866682D01*
X53039381Y-3925466D01*
X53038692Y-3986677D01*
X53037101Y-4044728D01*
X53034664Y-4094030D01*
X53031439Y-4128997D01*
X53028089Y-4143322D01*
X53009825Y-4153248D01*
X52976378Y-4157103D01*
X52968812Y-4156962D01*
X52936936Y-4157025D01*
X52922120Y-4164855D01*
X52916661Y-4186772D01*
X52915380Y-4200807D01*
X52911353Y-4229815D01*
X52900717Y-4243680D01*
X52875963Y-4249070D01*
X52859514Y-4250412D01*
X52807455Y-4254194D01*
X52803703Y-4312424D01*
X52799951Y-4370654D01*
X52697631Y-4374256D01*
X52595312Y-4377858D01*
X52595312Y-4439368D01*
X52595312Y-4500878D01*
X52502294Y-4500878D01*
X52409277Y-4500878D01*
X52409107Y-4534985D01*
X52407362Y-4575959D01*
X52399453Y-4602054D01*
X52380630Y-4617331D01*
X52346142Y-4625849D01*
X52296521Y-4631204D01*
X52198437Y-4639886D01*
X52198437Y-4756417D01*
X52198437Y-4872949D01*
X52248046Y-4872949D01*
X52279834Y-4871554D01*
X52293993Y-4863505D01*
X52297684Y-4843003D01*
X52297825Y-4832641D01*
X52299435Y-4787376D01*
X52307020Y-4759193D01*
X52325403Y-4743745D01*
X52359413Y-4736690D01*
X52407493Y-4733920D01*
X52502294Y-4730322D01*
X52506075Y-4671411D01*
X52509855Y-4612500D01*
X52608394Y-4612500D01*
X52706933Y-4612500D01*
X52706933Y-4556689D01*
X52706933Y-4500878D01*
X52778247Y-4500709D01*
X52835532Y-4499537D01*
X52872463Y-4494605D01*
X52893460Y-4483298D01*
X52902948Y-4462998D01*
X52905348Y-4431091D01*
X52905371Y-4425519D01*
X52905371Y-4365456D01*
X53007690Y-4361854D01*
X53110009Y-4358251D01*
X53113789Y-4299340D01*
X53117570Y-4240429D01*
X53171103Y-4240429D01*
X53224636Y-4240429D01*
X53230554Y-4181518D01*
X53232540Y-4148471D01*
X53234078Y-4096584D01*
X53235059Y-4031821D01*
X53235375Y-3960144D01*
X53235252Y-3924169D01*
X53234033Y-3725732D01*
X53175122Y-3721952D01*
X53116210Y-3718172D01*
X53116210Y-3619632D01*
X53115848Y-3570617D01*
X53113733Y-3541331D01*
X53108319Y-3526700D01*
X53098062Y-3521648D01*
X53086219Y-3521093D01*
X53043609Y-3515533D01*
X53021420Y-3498038D01*
X53016992Y-3477685D01*
X53009223Y-3452084D01*
X52983918Y-3438196D01*
X52941563Y-3434277D01*
X52919301Y-3432569D01*
X52908756Y-3422963D01*
X52905568Y-3398734D01*
X52905371Y-3378466D01*
X52905371Y-3322656D01*
X52850062Y-3322656D01*
X52794753Y-3322656D01*
X52791150Y-3220336D01*
X52787548Y-3118017D01*
X52703833Y-3114350D01*
X52620117Y-3110683D01*
X52620117Y-3056847D01*
X52620117Y-3003011D01*
X52564905Y-2994732D01*
X52509693Y-2986452D01*
X52505994Y-2915809D01*
X52502294Y-2845166D01*
X52407709Y-2841571D01*
X52313123Y-2837976D01*
X52304962Y-2776459D01*
X52296801Y-2714941D01*
X52247619Y-2714941D01*
X52216139Y-2713729D01*
X52202150Y-2705322D01*
X52198555Y-2682557D01*
X52198437Y-2665332D01*
X52198437Y-2615722D01*
X52106434Y-2615722D01*
X52047050Y-2614583D01*
X52008324Y-2610306D01*
X51986176Y-2601596D01*
X51976527Y-2587164D01*
X51975025Y-2574088D01*
X51971542Y-2539501D01*
X51967378Y-2519604D01*
X51964012Y-2509648D01*
X51957715Y-2502395D01*
X51944978Y-2497419D01*
X51922292Y-2494289D01*
X51886150Y-2492579D01*
X51833044Y-2491858D01*
X51759465Y-2491701D01*
X51738836Y-2491699D01*
X51656868Y-2491011D01*
X51590551Y-2489042D01*
X51542473Y-2485931D01*
X51515218Y-2481820D01*
X51510084Y-2479260D01*
X51507141Y-2460272D01*
X51508736Y-2427010D01*
X51510727Y-2411272D01*
X51519057Y-2355723D01*
X51806037Y-2352398D01*
X52093017Y-2349072D01*
X52093017Y-2280859D01*
X52093017Y-2212646D01*
X52027905Y-2208897D01*
X51962792Y-2205149D01*
X51962792Y-2131383D01*
X51962792Y-2057617D01*
X52031005Y-2057617D01*
X52099218Y-2057617D01*
X52099218Y-1964599D01*
X52099218Y-1871582D01*
X52049609Y-1871582D01*
X52000000Y-1871582D01*
X52000000Y-1797167D01*
X52000000Y-1722753D01*
X52093017Y-1722753D01*
X52142826Y-1721648D01*
X52172002Y-1717820D01*
X52184639Y-1710499D01*
X52186035Y-1705263D01*
X52193157Y-1695560D01*
X52216733Y-1688052D01*
X52260078Y-1681911D01*
X52291455Y-1678992D01*
X52396875Y-1670210D01*
X52396875Y-1634470D01*
X52396875Y-1598730D01*
X52068640Y-1598730D01*
X51740405Y-1598730D01*
X51732244Y-1660248D01*
X51724083Y-1721765D01*
X51629498Y-1725360D01*
X51534912Y-1728955D01*
X51528710Y-1784765D01*
X51523825Y-1819067D01*
X51514555Y-1835860D01*
X51493836Y-1842295D01*
X51469799Y-1844389D01*
X51417089Y-1848203D01*
X51417089Y-1921904D01*
X51417089Y-1995605D01*
X51368807Y-1995605D01*
X51341167Y-1997235D01*
X51322987Y-2004967D01*
X51312300Y-2023067D01*
X51307143Y-2055797D01*
X51305548Y-2107424D01*
X51305468Y-2133045D01*
X51305468Y-2231250D01*
X51256572Y-2231250D01*
X51225858Y-2232464D01*
X51211170Y-2240723D01*
X51205585Y-2262948D01*
X51203862Y-2283959D01*
X51199851Y-2317344D01*
X51190540Y-2333360D01*
X51170345Y-2339441D01*
X51161439Y-2340429D01*
X51140064Y-2343811D01*
X51127702Y-2352725D01*
X51120803Y-2373231D01*
X51115812Y-2411386D01*
X51114930Y-2419763D01*
X51110529Y-2469898D01*
X51107661Y-2517975D01*
X51107031Y-2542379D01*
X51105358Y-2573226D01*
X51095486Y-2587252D01*
X51070134Y-2592426D01*
X51060522Y-2593269D01*
X51014013Y-2597119D01*
X51010472Y-2717319D01*
X51006931Y-2837520D01*
X50960863Y-2841343D01*
X50914794Y-2845166D01*
X50911046Y-2910278D01*
X50907297Y-2975390D01*
X50957554Y-2975390D01*
X51007812Y-2975390D01*
X51007812Y-2908504D01*
X51010424Y-2864337D01*
X51021208Y-2839456D01*
X51044585Y-2828627D01*
X51077039Y-2826562D01*
X51096500Y-2823625D01*
X51105070Y-2810168D01*
X51107029Y-2779219D01*
X51107031Y-2777713D01*
X51108404Y-2746972D01*
X51117094Y-2731574D01*
X51139953Y-2724140D01*
X51159741Y-2720969D01*
X51192722Y-2714676D01*
X51207935Y-2704381D01*
X51212243Y-2683124D01*
X51212451Y-2667499D01*
X51212451Y-2621923D01*
X51285476Y-2618153D01*
X51335581Y-2616491D01*
X51365586Y-2619728D01*
X51380104Y-2630640D01*
X51383748Y-2652004D01*
X51382142Y-2676332D01*
X51377277Y-2727343D01*
X51298644Y-2727343D01*
X51220011Y-2727343D01*
X51216231Y-2786254D01*
X51212451Y-2845166D01*
X51160365Y-2848949D01*
X51108280Y-2852732D01*
X51104555Y-2917162D01*
X51100830Y-2981591D01*
X51054321Y-2985441D01*
X51023833Y-2989780D01*
X51010790Y-3000806D01*
X51007839Y-3025867D01*
X51007812Y-3031949D01*
X51006185Y-3059523D01*
X50996477Y-3071588D01*
X50971447Y-3074543D01*
X50959530Y-3074609D01*
X50920429Y-3069437D01*
X50903790Y-3055175D01*
X50887387Y-3040335D01*
X50862184Y-3038631D01*
X50838837Y-3048220D01*
X50828001Y-3067261D01*
X50827978Y-3068286D01*
X50836417Y-3088636D01*
X50864571Y-3099245D01*
X50865185Y-3099351D01*
X50889116Y-3106108D01*
X50900759Y-3120676D01*
X50905651Y-3150931D01*
X50906169Y-3157638D01*
X50909947Y-3209542D01*
X50856560Y-3213389D01*
X50803173Y-3217236D01*
X50799481Y-3294750D01*
X50795789Y-3372265D01*
X50709564Y-3372265D01*
X50623339Y-3372265D01*
X50623339Y-3427344D01*
X50620771Y-3462396D01*
X50614302Y-3485934D01*
X50610937Y-3490087D01*
X50603741Y-3505981D01*
X50599266Y-3537900D01*
X50598535Y-3559032D01*
X50598535Y-3620312D01*
X50511718Y-3620312D01*
X50424902Y-3620312D01*
X50424902Y-3874560D01*
X50300878Y-3874560D01*
X50300878Y-3632714D01*
X50349966Y-3632714D01*
X50399054Y-3632714D01*
X50399521Y-3620312D01*
X50402676Y-3536596D01*
X50406298Y-3440478D01*
X50452807Y-3436629D01*
X50481525Y-3433030D01*
X50495027Y-3423712D01*
X50499056Y-3401399D01*
X50499316Y-3377718D01*
X50500281Y-3343724D01*
X50506749Y-3327738D01*
X50524078Y-3322965D01*
X50542724Y-3322656D01*
X50586132Y-3322656D01*
X50586132Y-3217236D01*
X50586132Y-3111816D01*
X50641943Y-3111816D01*
X50697753Y-3111816D01*
X50697943Y-3021899D01*
X50699234Y-2975677D01*
X50702450Y-2938610D01*
X50706918Y-2918244D01*
X50707274Y-2917617D01*
X50724608Y-2906094D01*
X50755690Y-2896029D01*
X50762786Y-2894553D01*
X50790630Y-2886553D01*
X50802806Y-2877355D01*
X50802408Y-2874933D01*
X50800280Y-2858300D01*
X50800460Y-2823437D01*
X50802849Y-2776803D01*
X50804222Y-2758471D01*
X50812786Y-2652929D01*
X50860207Y-2652929D01*
X50907628Y-2652929D01*
X50911211Y-2544409D01*
X50914794Y-2435888D01*
X50964404Y-2429687D01*
X51014013Y-2423486D01*
X51020214Y-2318066D01*
X51023579Y-2266960D01*
X51027498Y-2235548D01*
X51033765Y-2218752D01*
X51044172Y-2211492D01*
X51058757Y-2208892D01*
X51075323Y-2205483D01*
X51085649Y-2196397D01*
X51091975Y-2176229D01*
X51096537Y-2139573D01*
X51098998Y-2111698D01*
X51103682Y-2065208D01*
X51108793Y-2028326D01*
X51113329Y-2008094D01*
X51113897Y-2006932D01*
X51129698Y-1999700D01*
X51160253Y-1995816D01*
X51169774Y-1995605D01*
X51218652Y-1995605D01*
X51218652Y-1921191D01*
X51218652Y-1846777D01*
X51298648Y-1846777D01*
X51378644Y-1846777D01*
X51382364Y-1775463D01*
X51386557Y-1731986D01*
X51394216Y-1709158D01*
X51404687Y-1702938D01*
X51429070Y-1701644D01*
X51464451Y-1700058D01*
X51469799Y-1699838D01*
X51516308Y-1697949D01*
X51516308Y-1635937D01*
X51516308Y-1573925D01*
X51615527Y-1573925D01*
X51714746Y-1573925D01*
X51714746Y-1505543D01*
X51714746Y-1437161D01*
X52120922Y-1440431D01*
G37*
%TD.AperFunction*%
%TD*%
D12*
%TO.P,SW8,1,1*%
%TO.N,GND*%
X45962378Y-28050000D03*
D13*
%TO.P,SW8,2,2*%
%TO.N,BTN_B*%
X40605378Y-28050000D03*
%TD*%
D14*
%TO.P,SW9,1,1*%
%TO.N,GND*%
X26000000Y-38700000D03*
D15*
%TO.P,SW9,2,2*%
%TO.N,BTN_SLCT*%
X26000000Y-44700000D03*
%TD*%
D16*
%TO.P,SW7,1,1*%
%TO.N,GND*%
X18321500Y-22500000D03*
D17*
%TO.P,SW7,2,2*%
%TO.N,BTN_RT*%
X23678500Y-22500000D03*
%TD*%
D12*
%TO.P,SW4,1,1*%
%TO.N,GND*%
X56278500Y-17200000D03*
D13*
%TO.P,SW4,2,2*%
%TO.N,BTN_A*%
X50921500Y-17200000D03*
%TD*%
D18*
%TO.P,SW6,1,1*%
%TO.N,GND*%
X13500000Y-27321500D03*
D19*
%TO.P,SW6,2,2*%
%TO.N,BTN_DN*%
X13500000Y-32678500D03*
%TD*%
D20*
%TO.P,SW2,1,1*%
%TO.N,GND*%
X13500000Y-17678500D03*
D21*
%TO.P,SW2,2,2*%
%TO.N,BTN_UP*%
X13500000Y-12321500D03*
%TD*%
D12*
%TO.P,SW3,1,1*%
%TO.N,GND*%
X8678500Y-22500000D03*
D13*
%TO.P,SW3,2,2*%
%TO.N,BTN_LT*%
X3321500Y-22500000D03*
%TD*%
D14*
%TO.P,SW5,1,1*%
%TO.N,GND*%
X36000000Y-38700000D03*
D15*
%TO.P,SW5,2,2*%
%TO.N,BTN_STRT*%
X36000000Y-44700000D03*
%TD*%
D22*
%TO.P,J1,1,Pin_1*%
%TO.N,SWD*%
X50240000Y-43100000D03*
D23*
%TO.P,J1,2,Pin_2*%
%TO.N,GND*%
X47700000Y-43100000D03*
%TO.P,J1,3,Pin_3*%
%TO.N,SWCLK*%
X45160000Y-43100000D03*
%TD*%
D24*
%TO.N,3.3v*%
X53900000Y-44100000D03*
%TO.N,SWD*%
X54500000Y-37600000D03*
%TO.N,1.1v*%
X49910680Y-36310680D03*
X54262499Y-35535736D03*
%TO.N,GND*%
X36550000Y-38700000D03*
X13500000Y-17678500D03*
X61000000Y-34100000D03*
X13500000Y-27321500D03*
X56278500Y-17200000D03*
X10700000Y-4500000D03*
X59700000Y-37800000D03*
X18321500Y-22500000D03*
X26000000Y-38700000D03*
X57500000Y-29450000D03*
X45840000Y-27425000D03*
X8678500Y-22500000D03*
%TO.N,3.3v*%
X9900000Y-29200000D03*
X39800000Y-9662500D03*
X16700000Y-15900000D03*
X52700000Y-30700000D03*
X37053622Y-25225000D03*
X56500000Y-12500000D03*
X49350000Y-35612500D03*
X39800000Y-3362500D03*
X49800000Y-32712500D03*
X7000000Y-19100000D03*
X29750000Y-38250000D03*
X45723622Y-25190000D03*
X49556328Y-37792367D03*
X37971418Y-17573417D03*
X35500000Y-31037500D03*
X45000000Y-6937500D03*
X20000000Y-25800000D03*
X54575292Y-33175294D03*
%TO.N,VCC*%
X15200000Y-4500000D03*
%TO.N,1.1v*%
X47800000Y-29500000D03*
X49800000Y-34212500D03*
%TO.N,QSPI_SS*%
X48000000Y-31500000D03*
X52000000Y-12500000D03*
D25*
X41700000Y-33500000D03*
D24*
%TO.N,BTN_UP*%
X50624326Y-32840274D03*
X13500000Y-12321500D03*
%TO.N,BTN_LT*%
X51546378Y-32738456D03*
X3321500Y-22500000D03*
%TO.N,BTN_A*%
X50600000Y-17200000D03*
%TO.N,BTN_STRT*%
X42400000Y-42600000D03*
%TO.N,BTN_DN*%
X13500000Y-32678500D03*
X49950000Y-30662500D03*
%TO.N,BTN_RT*%
X23678500Y-22500000D03*
X50778640Y-30775000D03*
%TO.N,BTN_B*%
X39000000Y-28500000D03*
%TO.N,BTN_SLCT*%
X31000000Y-43100000D03*
%TO.N,DP*%
X13700000Y-4500000D03*
%TO.N,Net-(U1-USB_DP)*%
X5400000Y-5100000D03*
X47350000Y-36837954D03*
%TO.N,DM*%
X12200000Y-4500000D03*
%TO.N,Net-(U1-USB_DM)*%
X3300000Y-5100000D03*
X47721484Y-37546476D03*
%TO.N,SWCLK*%
X53624513Y-37442189D03*
%TD*%
D26*
%TO.N,SWD*%
X54500000Y-37600000D02*
X50240000Y-41860000D01*
X50240000Y-41860000D02*
X50240000Y-43100000D01*
%TO.N,SWCLK*%
X53624513Y-37442189D02*
X50817811Y-37442189D01*
X50817811Y-37442189D02*
X45160000Y-43100000D01*
%TO.N,1.1v*%
X53889320Y-36310680D02*
X49910680Y-36310680D01*
X54262499Y-35535736D02*
X54262499Y-35937501D01*
X54262499Y-35937501D02*
X53889320Y-36310680D01*
%TO.N,SWCLK*%
X53624513Y-37442189D02*
X53604202Y-37462500D01*
%TO.N,GND*%
X49199000Y-32961443D02*
X49199000Y-32463557D01*
X49500000Y-32162557D02*
X49500000Y-31062443D01*
X47198529Y-28050000D02*
X46283878Y-28050000D01*
X48743643Y-30676543D02*
X48400000Y-30332900D01*
X49552471Y-33313500D02*
X49551057Y-33313500D01*
X49679245Y-33440274D02*
X49552471Y-33313500D01*
X61000000Y-34100000D02*
X59300000Y-35800000D01*
X48400000Y-30332900D02*
X48400000Y-29749943D01*
X49551057Y-33313500D02*
X49199000Y-32961443D01*
X49114100Y-30676543D02*
X48743643Y-30676543D01*
X48047529Y-28899000D02*
X47198529Y-28050000D01*
X48048943Y-28899000D02*
X48047529Y-28899000D01*
X57500000Y-29450000D02*
X56050000Y-29450000D01*
X48401000Y-29251057D02*
X48048943Y-28899000D01*
X48400000Y-29749943D02*
X48401000Y-29748943D01*
X49500000Y-31062443D02*
X49114100Y-30676543D01*
X48401000Y-29748943D02*
X48401000Y-29251057D01*
X49199000Y-32463557D02*
X49500000Y-32162557D01*
X52059726Y-33440274D02*
X49679245Y-33440274D01*
X59300000Y-35800000D02*
X59300000Y-37400000D01*
X59300000Y-37400000D02*
X59700000Y-37800000D01*
X56050000Y-29450000D02*
X52059726Y-33440274D01*
%TO.N,3.3v*%
X52449263Y-30375735D02*
X52136765Y-30375735D01*
X52700000Y-30626472D02*
X52449263Y-30375735D01*
X52136765Y-30375735D02*
X49800000Y-32712500D01*
X52700000Y-30700000D02*
X52700000Y-30626472D01*
%TO.N,1.1v*%
X49099000Y-31996457D02*
X48798000Y-32297457D01*
X48798000Y-32297457D02*
X48798000Y-33127543D01*
X47800000Y-29500000D02*
X47999000Y-29699000D01*
X49386371Y-33714500D02*
X49500000Y-33828129D01*
X48948000Y-31077543D02*
X49099000Y-31228543D01*
X48577543Y-31077543D02*
X48948000Y-31077543D01*
X49099000Y-31228543D02*
X49099000Y-31996457D01*
X48798000Y-33127543D02*
X49384957Y-33714500D01*
X48577543Y-31077543D02*
X47999000Y-30499000D01*
X47999000Y-29699000D02*
X47999000Y-30499000D01*
X49500000Y-33828129D02*
X49500000Y-33912500D01*
X49500000Y-33912500D02*
X49800000Y-34212500D01*
X49384957Y-33714500D02*
X49386371Y-33714500D01*
%TO.N,QSPI_SS*%
X51500000Y-12500000D02*
X52000000Y-12500000D01*
X48000000Y-31500000D02*
X48000000Y-33262443D01*
X49551057Y-34813500D02*
X52088557Y-34813500D01*
X58101000Y-29698943D02*
X58101000Y-27101000D01*
X57748943Y-30051000D02*
X58101000Y-29698943D01*
X58101000Y-27101000D02*
X47500000Y-16500000D01*
X43700000Y-31500000D02*
X48000000Y-31500000D01*
X47500000Y-16500000D02*
X51500000Y-12500000D01*
X35416100Y-14349000D02*
X35966100Y-14899000D01*
X52088557Y-34813500D02*
X56851057Y-30051000D01*
X48000000Y-33262443D02*
X49551057Y-34813500D01*
X45899000Y-14899000D02*
X47500000Y-16500000D01*
X28049000Y-14349000D02*
X35416100Y-14349000D01*
X18200000Y-4500000D02*
X28049000Y-14349000D01*
X41700000Y-33500000D02*
X43700000Y-31500000D01*
X35966100Y-14899000D02*
X45899000Y-14899000D01*
X56851057Y-30051000D02*
X57748943Y-30051000D01*
%TO.N,BTN_UP*%
X35000000Y-15150000D02*
X18584315Y-15150000D01*
X51061544Y-32138456D02*
X52161544Y-32138456D01*
X55409220Y-26504452D02*
X44604768Y-15700000D01*
X13821500Y-12000000D02*
X13500000Y-12321500D01*
X55409220Y-28890780D02*
X55409220Y-26504452D01*
X35550000Y-15700000D02*
X35000000Y-15150000D01*
X44604768Y-15700000D02*
X35550000Y-15700000D01*
X50624326Y-32840274D02*
X50624326Y-32575674D01*
X18584315Y-15150000D02*
X15434315Y-12000000D01*
X15434315Y-12000000D02*
X13821500Y-12000000D01*
X50624326Y-32575674D02*
X51061544Y-32138456D01*
X52161544Y-32138456D02*
X55409220Y-28890780D01*
%TO.N,BTN_LT*%
X55809220Y-26338766D02*
X55809220Y-29123680D01*
X35800000Y-15300000D02*
X44770454Y-15300000D01*
X55809220Y-29123680D02*
X52194444Y-32738456D01*
X3000000Y-18500000D02*
X11250000Y-10250000D01*
X52194444Y-32738456D02*
X51546378Y-32738456D01*
X11250000Y-10250000D02*
X14250000Y-10250000D01*
X44770454Y-15300000D02*
X55809220Y-26338766D01*
X3000000Y-22178500D02*
X3000000Y-18500000D01*
X35250000Y-14750000D02*
X35800000Y-15300000D01*
X18750000Y-14750000D02*
X35250000Y-14750000D01*
X3321500Y-22500000D02*
X3000000Y-22178500D01*
X14250000Y-10250000D02*
X18750000Y-14750000D01*
%TO.N,BTN_STRT*%
X42400000Y-42600000D02*
X40300000Y-44700000D01*
X40300000Y-44700000D02*
X36750000Y-44700000D01*
%TO.N,BTN_DN*%
X26995232Y-22900000D02*
X31165686Y-22900000D01*
X16745232Y-33150000D02*
X26995232Y-22900000D01*
X50100000Y-26546235D02*
X50100000Y-30512500D01*
X31165686Y-22900000D02*
X37565686Y-16500000D01*
X43900000Y-16500000D02*
X50153622Y-22753622D01*
X13971500Y-33150000D02*
X16745232Y-33150000D01*
X50153622Y-26492613D02*
X50100000Y-26546235D01*
X50153622Y-22753622D02*
X50153622Y-26492613D01*
X50100000Y-30512500D02*
X49950000Y-30662500D01*
X13500000Y-32678500D02*
X13971500Y-33150000D01*
X37565686Y-16500000D02*
X43900000Y-16500000D01*
%TO.N,BTN_RT*%
X50778640Y-30775000D02*
X50778640Y-30591140D01*
X44300000Y-16100000D02*
X37400000Y-16100000D01*
X50590781Y-30403281D02*
X50590781Y-22390780D01*
X31000000Y-22500000D02*
X23678500Y-22500000D01*
X50778640Y-30591140D02*
X50590781Y-30403281D01*
X50590781Y-22390780D02*
X44300000Y-16100000D01*
X37400000Y-16100000D02*
X31000000Y-22500000D01*
%TO.N,BTN_B*%
X39450000Y-28050000D02*
X39000000Y-28500000D01*
X40605378Y-28050000D02*
X39450000Y-28050000D01*
%TO.N,BTN_SLCT*%
X26000000Y-44700000D02*
X29400000Y-44700000D01*
X29400000Y-44700000D02*
X31000000Y-43100000D01*
%TO.N,Net-(U1-USB_DP)*%
X5400000Y-13570454D02*
X5400000Y-5100000D01*
X21934314Y-37465686D02*
X23300000Y-36100000D01*
X23300000Y-36100000D02*
X46612046Y-36100000D01*
X1500000Y-27800000D02*
X11200000Y-37500000D01*
X21934314Y-37500000D02*
X21934314Y-37465686D01*
X46612046Y-36100000D02*
X47350000Y-36837954D01*
X11200000Y-37500000D02*
X21934314Y-37500000D01*
X2627454Y-16343000D02*
X5400000Y-13570454D01*
X1657000Y-16343000D02*
X2627454Y-16343000D01*
X1500000Y-16500000D02*
X1500000Y-27800000D01*
X1557000Y-16343000D02*
X1657000Y-16343000D01*
X1657000Y-16343000D02*
X1500000Y-16500000D01*
%TO.N,Net-(U1-USB_DM)*%
X22100000Y-37900000D02*
X22350000Y-37650000D01*
X46500000Y-36600000D02*
X46500000Y-36837897D01*
X4700000Y-6500000D02*
X4700000Y-13704768D01*
X1099000Y-16235315D02*
X1099000Y-27966100D01*
X1391315Y-15943000D02*
X1099000Y-16235315D01*
X47208579Y-37546476D02*
X47721484Y-37546476D01*
X1157000Y-28022686D02*
X11034314Y-37900000D01*
X46500000Y-36837897D02*
X47208579Y-37546476D01*
X11034314Y-37900000D02*
X22100000Y-37900000D01*
X2461768Y-15943000D02*
X1391315Y-15943000D01*
X22350000Y-37650000D02*
X22396476Y-37650000D01*
X4700000Y-13704768D02*
X2461768Y-15943000D01*
X3300000Y-5100000D02*
X4700000Y-6500000D01*
X46401000Y-36501000D02*
X46500000Y-36600000D01*
X23545476Y-36501000D02*
X46401000Y-36501000D01*
X47629960Y-37638000D02*
X47721484Y-37546476D01*
X22396476Y-37650000D02*
X23545476Y-36501000D01*
X1099000Y-27966100D02*
X1156293Y-28023393D01*
%TD*%
%TA.AperFunction,Conductor*%
%TO.N,3.3v*%
G36*
X12467891Y-10870185D02*
G01*
X12513646Y-10922989D01*
X12523590Y-10992147D01*
X12494565Y-11055703D01*
X12467892Y-11078815D01*
X12406969Y-11117967D01*
X12406965Y-11117971D01*
X12312750Y-11226700D01*
X12312744Y-11226709D01*
X12252976Y-11357580D01*
X12252975Y-11357585D01*
X12232500Y-11499999D01*
X12232500Y-12535462D01*
X12212815Y-12602501D01*
X12168821Y-12643801D01*
X12061369Y-12703627D01*
X12007451Y-12738302D01*
X12007443Y-12738307D01*
X11782261Y-12904207D01*
X11782238Y-12904225D01*
X11733139Y-12945449D01*
X11530765Y-13138523D01*
X11530743Y-13138546D01*
X11487259Y-13185653D01*
X11487258Y-13185655D01*
X11310957Y-13402795D01*
X11310947Y-13402807D01*
X11273593Y-13455330D01*
X11200017Y-13574167D01*
X11199974Y-13574236D01*
X11182115Y-13603037D01*
X11182105Y-13603056D01*
X11144536Y-13676385D01*
X11144532Y-13676395D01*
X11109071Y-13815827D01*
X11101809Y-13883927D01*
X11100748Y-13926994D01*
X11079418Y-13993528D01*
X11063394Y-14012680D01*
X11000917Y-14073654D01*
X11000915Y-14073656D01*
X10959223Y-14127958D01*
X10955433Y-14133831D01*
X10914520Y-14197220D01*
X10914518Y-14197224D01*
X10914518Y-14197225D01*
X10866051Y-14330524D01*
X10865354Y-14332440D01*
X10859267Y-14361582D01*
X10858442Y-14365530D01*
X10858424Y-14365614D01*
X10829731Y-14502490D01*
X10829727Y-14502514D01*
X10820557Y-14566275D01*
X10820555Y-14566291D01*
X10799907Y-14826976D01*
X10798469Y-14845127D01*
X10797470Y-14909228D01*
X10797471Y-14909247D01*
X10810861Y-15188639D01*
X10817987Y-15252368D01*
X10858808Y-15483475D01*
X10866640Y-15527817D01*
X10881776Y-15590126D01*
X10881779Y-15590138D01*
X10881780Y-15590139D01*
X10964902Y-15857186D01*
X10964913Y-15857218D01*
X10987806Y-15917091D01*
X10987811Y-15917101D01*
X11100975Y-16164706D01*
X11104080Y-16171498D01*
X11134379Y-16228009D01*
X11134384Y-16228017D01*
X11281921Y-16465647D01*
X11319131Y-16517869D01*
X11319138Y-16517878D01*
X11476706Y-16711713D01*
X11495569Y-16734917D01*
X11495579Y-16734928D01*
X11495587Y-16734937D01*
X11539088Y-16782006D01*
X11539099Y-16782017D01*
X11741565Y-16974954D01*
X11741602Y-16974987D01*
X11779137Y-17006463D01*
X11790718Y-17016175D01*
X12016013Y-17181955D01*
X12016018Y-17181958D01*
X12016026Y-17181964D01*
X12050825Y-17204313D01*
X12069965Y-17216607D01*
X12069973Y-17216612D01*
X12106027Y-17236657D01*
X12168757Y-17271535D01*
X12217782Y-17321314D01*
X12232500Y-17379909D01*
X12232500Y-18500002D01*
X12237644Y-18571940D01*
X12266338Y-18669660D01*
X12273061Y-18692556D01*
X12278182Y-18709994D01*
X12355967Y-18831030D01*
X12355971Y-18831034D01*
X12464700Y-18925249D01*
X12464706Y-18925254D01*
X12505174Y-18943735D01*
X12595580Y-18985023D01*
X12595583Y-18985023D01*
X12595584Y-18985024D01*
X12738000Y-19005500D01*
X12738003Y-19005500D01*
X14262000Y-19005500D01*
X14333940Y-19000355D01*
X14471992Y-18959819D01*
X14593032Y-18882031D01*
X14687254Y-18773294D01*
X14747024Y-18642416D01*
X14767500Y-18500000D01*
X14767500Y-17387958D01*
X14787185Y-17320919D01*
X14831177Y-17279620D01*
X14945869Y-17215764D01*
X14999803Y-17181080D01*
X15225000Y-17015168D01*
X15274106Y-16973938D01*
X15476489Y-16780853D01*
X15519983Y-16733736D01*
X15696294Y-16516584D01*
X15733646Y-16464062D01*
X15807270Y-16345152D01*
X15807269Y-16345151D01*
X15808018Y-16343941D01*
X15825133Y-16316344D01*
X15862711Y-16242995D01*
X15878599Y-16180524D01*
X15898173Y-16103558D01*
X15898174Y-16103553D01*
X15905435Y-16035465D01*
X15906496Y-15992391D01*
X15927825Y-15925859D01*
X15943852Y-15906703D01*
X15982668Y-15868821D01*
X16006329Y-15845730D01*
X16048028Y-15791418D01*
X16092725Y-15722167D01*
X16141891Y-15586947D01*
X16148620Y-15554733D01*
X16177514Y-15416896D01*
X16177518Y-15416872D01*
X16182328Y-15383423D01*
X16186690Y-15353097D01*
X16208776Y-15074255D01*
X16209774Y-15010139D01*
X16196382Y-14730745D01*
X16189257Y-14667023D01*
X16140605Y-14391572D01*
X16125469Y-14329262D01*
X16042338Y-14062186D01*
X16019436Y-14002292D01*
X15903163Y-13747888D01*
X15903158Y-13747880D01*
X15903156Y-13747874D01*
X15872867Y-13691384D01*
X15872864Y-13691378D01*
X15863561Y-13676395D01*
X15778736Y-13539772D01*
X15760097Y-13472435D01*
X15780823Y-13405710D01*
X15834333Y-13360782D01*
X15903638Y-13351917D01*
X15966734Y-13381928D01*
X15971763Y-13386684D01*
X16709846Y-14124767D01*
X18215599Y-15630520D01*
X18215601Y-15630521D01*
X18215605Y-15630524D01*
X18336277Y-15700193D01*
X18352531Y-15709577D01*
X18505258Y-15750501D01*
X18505260Y-15750501D01*
X18670969Y-15750501D01*
X18670985Y-15750500D01*
X34699903Y-15750500D01*
X34766942Y-15770185D01*
X34787584Y-15786819D01*
X35065139Y-16064374D01*
X35065149Y-16064385D01*
X35069479Y-16068715D01*
X35069480Y-16068716D01*
X35181284Y-16180520D01*
X35181286Y-16180521D01*
X35181290Y-16180524D01*
X35289488Y-16242991D01*
X35318216Y-16259577D01*
X35430019Y-16289534D01*
X35470942Y-16300500D01*
X35470943Y-16300500D01*
X36050902Y-16300500D01*
X36117941Y-16320185D01*
X36163696Y-16372989D01*
X36173640Y-16442147D01*
X36144615Y-16505703D01*
X36138583Y-16512181D01*
X30787584Y-21863181D01*
X30726261Y-21896666D01*
X30699903Y-21899500D01*
X25129500Y-21899500D01*
X25062461Y-21879815D01*
X25016706Y-21827011D01*
X25005500Y-21775500D01*
X25005500Y-21738000D01*
X25005500Y-21737999D01*
X25000355Y-21666060D01*
X24959819Y-21528008D01*
X24882031Y-21406968D01*
X24868789Y-21395494D01*
X24773299Y-21312750D01*
X24773297Y-21312748D01*
X24773294Y-21312746D01*
X24773290Y-21312744D01*
X24642419Y-21252976D01*
X24642414Y-21252975D01*
X24500000Y-21232500D01*
X23464537Y-21232500D01*
X23397498Y-21212815D01*
X23356198Y-21168820D01*
X23296372Y-21061369D01*
X23267212Y-21016026D01*
X23261693Y-21007444D01*
X23095782Y-20782247D01*
X23054551Y-20733139D01*
X22974551Y-20649287D01*
X22861476Y-20530765D01*
X22861453Y-20530743D01*
X22814346Y-20487259D01*
X22814344Y-20487258D01*
X22711014Y-20403362D01*
X22597199Y-20310952D01*
X22587020Y-20303713D01*
X22544669Y-20273593D01*
X22425315Y-20199696D01*
X22425245Y-20199653D01*
X22396957Y-20182112D01*
X22396950Y-20182108D01*
X22396947Y-20182106D01*
X22323614Y-20144536D01*
X22323604Y-20144532D01*
X22184172Y-20109071D01*
X22116072Y-20101809D01*
X22073004Y-20100748D01*
X22006470Y-20079418D01*
X21987319Y-20063396D01*
X21926343Y-20000916D01*
X21926342Y-20000915D01*
X21926340Y-20000913D01*
X21872041Y-19959223D01*
X21856547Y-19949223D01*
X21802780Y-19914520D01*
X21667560Y-19865354D01*
X21667559Y-19865353D01*
X21667557Y-19865353D01*
X21667553Y-19865352D01*
X21634046Y-19858352D01*
X21634047Y-19858343D01*
X21633963Y-19858335D01*
X21497509Y-19829731D01*
X21497485Y-19829727D01*
X21433724Y-19820557D01*
X21433708Y-19820555D01*
X21181112Y-19800547D01*
X21154869Y-19798469D01*
X21154088Y-19798456D01*
X21090771Y-19797470D01*
X21090752Y-19797471D01*
X20811360Y-19810861D01*
X20747631Y-19817987D01*
X20472198Y-19866637D01*
X20472192Y-19866638D01*
X20472183Y-19866640D01*
X20409874Y-19881776D01*
X20409865Y-19881778D01*
X20409860Y-19881780D01*
X20142813Y-19964902D01*
X20142781Y-19964913D01*
X20082913Y-19987805D01*
X20082898Y-19987811D01*
X19828511Y-20104075D01*
X19828501Y-20104080D01*
X19771982Y-20134384D01*
X19534352Y-20281921D01*
X19482130Y-20319131D01*
X19482121Y-20319138D01*
X19265100Y-20495554D01*
X19265062Y-20495587D01*
X19217993Y-20539088D01*
X19217982Y-20539099D01*
X19025045Y-20741565D01*
X19025012Y-20741602D01*
X18983830Y-20790711D01*
X18818041Y-21016018D01*
X18818035Y-21016026D01*
X18783404Y-21069947D01*
X18783386Y-21069976D01*
X18741950Y-21144499D01*
X18741951Y-21144500D01*
X18728464Y-21168757D01*
X18678682Y-21217783D01*
X18620089Y-21232500D01*
X17499997Y-21232500D01*
X17428059Y-21237644D01*
X17301644Y-21274764D01*
X17293370Y-21277194D01*
X17290005Y-21278182D01*
X17168969Y-21355967D01*
X17168965Y-21355971D01*
X17074750Y-21464700D01*
X17074744Y-21464709D01*
X17014976Y-21595580D01*
X17014975Y-21595585D01*
X16994500Y-21737999D01*
X16994500Y-23262002D01*
X16999644Y-23333940D01*
X17040182Y-23471994D01*
X17117967Y-23593030D01*
X17117971Y-23593034D01*
X17226700Y-23687249D01*
X17226706Y-23687254D01*
X17254237Y-23699827D01*
X17357580Y-23747023D01*
X17357583Y-23747023D01*
X17357584Y-23747024D01*
X17500000Y-23767500D01*
X18612041Y-23767500D01*
X18679080Y-23787185D01*
X18720380Y-23831179D01*
X18784236Y-23945869D01*
X18818920Y-23999803D01*
X18984832Y-24225000D01*
X19019978Y-24266860D01*
X19026065Y-24274109D01*
X19026073Y-24274118D01*
X19219136Y-24476478D01*
X19219144Y-24476486D01*
X19219147Y-24476489D01*
X19266264Y-24519983D01*
X19266273Y-24519990D01*
X19266276Y-24519993D01*
X19483406Y-24696286D01*
X19483405Y-24696286D01*
X19483414Y-24696292D01*
X19483416Y-24696294D01*
X19535938Y-24733646D01*
X19535945Y-24733650D01*
X19535946Y-24733651D01*
X19655838Y-24807883D01*
X19683656Y-24825133D01*
X19683905Y-24825260D01*
X19686238Y-24826705D01*
X19686261Y-24826719D01*
X19702545Y-24836801D01*
X19710926Y-24839104D01*
X19742863Y-24855466D01*
X19757005Y-24862711D01*
X19757007Y-24862711D01*
X19757011Y-24862713D01*
X19896441Y-24898173D01*
X19896444Y-24898173D01*
X19896447Y-24898174D01*
X19964535Y-24905435D01*
X20007607Y-24906496D01*
X20074140Y-24927825D01*
X20093292Y-24943847D01*
X20147199Y-24999084D01*
X20154272Y-25006331D01*
X20208571Y-25048021D01*
X20208582Y-25048028D01*
X20277833Y-25092725D01*
X20413053Y-25141891D01*
X20445485Y-25148666D01*
X20445530Y-25148676D01*
X20583103Y-25177514D01*
X20583127Y-25177518D01*
X20614377Y-25182012D01*
X20646903Y-25186690D01*
X20925745Y-25208776D01*
X20975814Y-25209555D01*
X20989843Y-25209774D01*
X20989846Y-25209773D01*
X20989861Y-25209774D01*
X21256476Y-25196994D01*
X21269256Y-25196382D01*
X21276381Y-25195585D01*
X21332977Y-25189257D01*
X21608428Y-25140605D01*
X21670738Y-25125469D01*
X21937814Y-25042338D01*
X21997708Y-25019436D01*
X22252112Y-24903163D01*
X22308622Y-24872864D01*
X22546259Y-24725322D01*
X22598480Y-24688113D01*
X22815528Y-24511675D01*
X22851925Y-24478035D01*
X22862616Y-24468156D01*
X22862627Y-24468145D01*
X22914854Y-24413338D01*
X23055585Y-24265658D01*
X23096788Y-24216525D01*
X23262567Y-23991230D01*
X23297218Y-23937279D01*
X23356175Y-23831241D01*
X23405956Y-23782217D01*
X23464549Y-23767500D01*
X24500000Y-23767500D01*
X24571940Y-23762355D01*
X24709992Y-23721819D01*
X24831032Y-23644031D01*
X24925254Y-23535294D01*
X24985024Y-23404416D01*
X25005500Y-23262000D01*
X25005500Y-23224500D01*
X25025185Y-23157461D01*
X25077989Y-23111706D01*
X25129500Y-23100500D01*
X25646135Y-23100500D01*
X25713174Y-23120185D01*
X25758929Y-23172989D01*
X25768873Y-23242147D01*
X25739848Y-23305703D01*
X25733816Y-23312181D01*
X16532816Y-32513181D01*
X16471493Y-32546666D01*
X16445135Y-32549500D01*
X14961613Y-32549500D01*
X14894574Y-32529815D01*
X14848819Y-32477011D01*
X14838875Y-32407853D01*
X14867900Y-32344297D01*
X14901292Y-32317161D01*
X14938624Y-32296376D01*
X14938632Y-32296370D01*
X14938637Y-32296368D01*
X14951538Y-32288070D01*
X14992556Y-32261693D01*
X15217753Y-32095782D01*
X15266861Y-32054551D01*
X15432378Y-31896638D01*
X15469234Y-31861476D01*
X15469256Y-31861453D01*
X15512737Y-31814350D01*
X15689048Y-31597199D01*
X15726402Y-31544675D01*
X15735458Y-31530049D01*
X15801427Y-31423502D01*
X15817888Y-31396957D01*
X15855466Y-31323609D01*
X15890929Y-31184167D01*
X15898190Y-31116080D01*
X15899251Y-31073004D01*
X15920579Y-31006472D01*
X15936607Y-30987316D01*
X15999084Y-30926343D01*
X16040783Y-30872031D01*
X16085480Y-30802780D01*
X16134646Y-30667560D01*
X16141576Y-30634386D01*
X16141576Y-30634385D01*
X16141593Y-30634388D01*
X16141593Y-30634304D01*
X16170269Y-30497504D01*
X16170659Y-30494797D01*
X16179442Y-30433724D01*
X16179444Y-30433708D01*
X16201531Y-30154869D01*
X16202529Y-30090754D01*
X16189138Y-29811360D01*
X16182013Y-29747635D01*
X16133360Y-29472183D01*
X16118224Y-29409874D01*
X16035093Y-29142798D01*
X16012192Y-29082906D01*
X15895920Y-28828502D01*
X15865621Y-28771991D01*
X15718079Y-28534353D01*
X15680869Y-28482131D01*
X15674110Y-28473816D01*
X15504445Y-28265100D01*
X15504442Y-28265096D01*
X15504431Y-28265083D01*
X15504412Y-28265062D01*
X15460911Y-28217993D01*
X15460900Y-28217982D01*
X15258434Y-28025045D01*
X15258397Y-28025012D01*
X15209288Y-27983830D01*
X15209287Y-27983829D01*
X15209282Y-27983825D01*
X14983987Y-27818045D01*
X14983981Y-27818041D01*
X14983973Y-27818035D01*
X14931351Y-27784238D01*
X14930035Y-27783393D01*
X14930028Y-27783389D01*
X14930023Y-27783386D01*
X14831242Y-27728463D01*
X14782216Y-27678682D01*
X14767500Y-27620089D01*
X14767500Y-26500000D01*
X14767500Y-26499999D01*
X14762355Y-26428060D01*
X14759349Y-26417824D01*
X14751765Y-26391994D01*
X14721819Y-26290008D01*
X14644031Y-26168968D01*
X14585173Y-26117967D01*
X14535299Y-26074750D01*
X14535297Y-26074748D01*
X14535294Y-26074746D01*
X14532612Y-26073521D01*
X14404419Y-26014976D01*
X14404414Y-26014975D01*
X14262000Y-25994500D01*
X12738000Y-25994500D01*
X12737997Y-25994500D01*
X12666059Y-25999644D01*
X12528005Y-26040182D01*
X12406969Y-26117967D01*
X12406965Y-26117971D01*
X12312750Y-26226700D01*
X12312744Y-26226709D01*
X12252976Y-26357580D01*
X12252975Y-26357585D01*
X12232500Y-26499999D01*
X12232500Y-27612041D01*
X12212815Y-27679080D01*
X12168821Y-27720379D01*
X12114276Y-27750748D01*
X12054126Y-27784238D01*
X12000186Y-27818927D01*
X11775015Y-27984820D01*
X11774988Y-27984841D01*
X11725890Y-28026065D01*
X11725881Y-28026073D01*
X11523521Y-28219136D01*
X11523513Y-28219144D01*
X11483977Y-28261973D01*
X11481092Y-28265100D01*
X11480006Y-28266276D01*
X11303713Y-28483406D01*
X11266348Y-28535946D01*
X11192773Y-28654778D01*
X11192730Y-28654848D01*
X11174871Y-28683649D01*
X11174864Y-28683660D01*
X11137289Y-28757004D01*
X11137286Y-28757011D01*
X11101826Y-28896441D01*
X11094564Y-28964542D01*
X11093503Y-29007607D01*
X11072173Y-29074142D01*
X11056149Y-29093293D01*
X10993672Y-29154267D01*
X10993670Y-29154269D01*
X10951978Y-29208571D01*
X10936005Y-29233320D01*
X10912501Y-29269737D01*
X10907272Y-29277838D01*
X10858110Y-29413048D01*
X10858109Y-29413052D01*
X10850894Y-29447581D01*
X10850878Y-29447656D01*
X10822486Y-29583103D01*
X10822481Y-29583127D01*
X10813310Y-29646899D01*
X10791224Y-29925745D01*
X10790225Y-29989843D01*
X10790226Y-29989861D01*
X10803617Y-30269256D01*
X10810743Y-30332978D01*
X10859392Y-30608416D01*
X10874533Y-30670747D01*
X10957662Y-30937814D01*
X10980564Y-30997709D01*
X11096843Y-31252125D01*
X11127132Y-31308615D01*
X11127135Y-31308621D01*
X11153232Y-31350653D01*
X11274678Y-31546259D01*
X11274683Y-31546266D01*
X11274684Y-31546268D01*
X11311876Y-31598465D01*
X11311894Y-31598489D01*
X11487362Y-31814344D01*
X11488325Y-31815528D01*
X11488335Y-31815539D01*
X11488343Y-31815548D01*
X11531843Y-31862616D01*
X11531854Y-31862627D01*
X11631389Y-31957477D01*
X11734342Y-32055585D01*
X11783475Y-32096788D01*
X11783481Y-32096793D01*
X11783483Y-32096794D01*
X12008760Y-32262560D01*
X12008783Y-32262576D01*
X12062714Y-32297214D01*
X12062719Y-32297217D01*
X12062721Y-32297218D01*
X12168759Y-32356175D01*
X12217782Y-32405953D01*
X12232500Y-32464548D01*
X12232500Y-33500002D01*
X12237644Y-33571940D01*
X12265322Y-33666200D01*
X12278059Y-33709577D01*
X12278182Y-33709994D01*
X12355967Y-33831030D01*
X12355971Y-33831034D01*
X12452489Y-33914668D01*
X12464706Y-33925254D01*
X12505174Y-33943735D01*
X12595580Y-33985023D01*
X12595583Y-33985023D01*
X12595584Y-33985024D01*
X12738000Y-34005500D01*
X12738003Y-34005500D01*
X14262000Y-34005500D01*
X14333940Y-34000355D01*
X14471992Y-33959819D01*
X14593032Y-33882031D01*
X14637222Y-33831034D01*
X14669922Y-33793297D01*
X14728700Y-33755523D01*
X14763634Y-33750500D01*
X16658563Y-33750500D01*
X16658579Y-33750501D01*
X16666175Y-33750501D01*
X16824286Y-33750501D01*
X16824289Y-33750501D01*
X16977017Y-33709577D01*
X17027136Y-33680639D01*
X17113948Y-33630520D01*
X17225752Y-33518716D01*
X17225752Y-33518714D01*
X17235960Y-33508507D01*
X17235961Y-33508504D01*
X18695242Y-32049223D01*
X22899500Y-32049223D01*
X22899500Y-32350776D01*
X22899501Y-32350793D01*
X22938861Y-32649766D01*
X23016913Y-32941060D01*
X23132314Y-33219661D01*
X23132318Y-33219671D01*
X23283099Y-33480831D01*
X23466679Y-33720078D01*
X23466685Y-33720085D01*
X23679914Y-33933314D01*
X23679921Y-33933320D01*
X23919168Y-34116900D01*
X24180328Y-34267681D01*
X24180329Y-34267681D01*
X24180332Y-34267683D01*
X24366072Y-34344619D01*
X24458939Y-34383086D01*
X24458940Y-34383086D01*
X24458942Y-34383087D01*
X24750232Y-34461138D01*
X25049217Y-34500500D01*
X25049224Y-34500500D01*
X25350776Y-34500500D01*
X25350783Y-34500500D01*
X25649768Y-34461138D01*
X25941058Y-34383087D01*
X26219668Y-34267683D01*
X26480832Y-34116900D01*
X26720080Y-33933319D01*
X26933319Y-33720080D01*
X27116900Y-33480832D01*
X27267683Y-33219668D01*
X27383087Y-32941058D01*
X27461138Y-32649768D01*
X27500500Y-32350783D01*
X27500500Y-32049217D01*
X27461138Y-31750232D01*
X27383087Y-31458942D01*
X27372025Y-31432237D01*
X27330818Y-31332753D01*
X27267683Y-31180332D01*
X27239366Y-31131286D01*
X27116900Y-30919168D01*
X26933320Y-30679921D01*
X26933314Y-30679914D01*
X26720085Y-30466685D01*
X26720078Y-30466679D01*
X26480831Y-30283099D01*
X26219671Y-30132318D01*
X26219661Y-30132314D01*
X25941060Y-30016913D01*
X25649766Y-29938861D01*
X25350793Y-29899501D01*
X25350788Y-29899500D01*
X25350783Y-29899500D01*
X25049217Y-29899500D01*
X25049211Y-29899500D01*
X25049206Y-29899501D01*
X24750233Y-29938861D01*
X24458939Y-30016913D01*
X24180338Y-30132314D01*
X24180328Y-30132318D01*
X23919168Y-30283099D01*
X23679921Y-30466679D01*
X23679914Y-30466685D01*
X23466685Y-30679914D01*
X23466679Y-30679921D01*
X23283099Y-30919168D01*
X23132318Y-31180328D01*
X23132314Y-31180338D01*
X23016913Y-31458939D01*
X22938861Y-31750233D01*
X22899501Y-32049206D01*
X22899500Y-32049223D01*
X18695242Y-32049223D01*
X27207648Y-23536819D01*
X27268971Y-23503334D01*
X27295329Y-23500500D01*
X31079017Y-23500500D01*
X31079033Y-23500501D01*
X31086629Y-23500501D01*
X31244740Y-23500501D01*
X31244743Y-23500501D01*
X31397471Y-23459577D01*
X31450139Y-23429169D01*
X31450140Y-23429169D01*
X31534395Y-23380524D01*
X31534394Y-23380524D01*
X31534402Y-23380520D01*
X31646206Y-23268716D01*
X31646206Y-23268714D01*
X31656410Y-23258511D01*
X31656413Y-23258506D01*
X37778103Y-17136819D01*
X37839426Y-17103334D01*
X37865784Y-17100500D01*
X43599903Y-17100500D01*
X43666942Y-17120185D01*
X43687584Y-17136819D01*
X44413510Y-17862745D01*
X44446995Y-17924068D01*
X44442011Y-17993760D01*
X44400139Y-18049693D01*
X44334675Y-18074110D01*
X44266402Y-18059258D01*
X44263830Y-18057813D01*
X44219678Y-18032322D01*
X44219670Y-18032318D01*
X44219668Y-18032317D01*
X44188672Y-18019478D01*
X43941060Y-17916913D01*
X43649766Y-17838861D01*
X43350793Y-17799501D01*
X43350788Y-17799500D01*
X43350783Y-17799500D01*
X43049217Y-17799500D01*
X43049211Y-17799500D01*
X43049206Y-17799501D01*
X42750233Y-17838861D01*
X42458939Y-17916913D01*
X42180338Y-18032314D01*
X42180328Y-18032318D01*
X41919168Y-18183099D01*
X41679921Y-18366679D01*
X41679914Y-18366685D01*
X41466685Y-18579914D01*
X41466679Y-18579921D01*
X41283099Y-18819168D01*
X41132318Y-19080328D01*
X41132314Y-19080338D01*
X41016913Y-19358939D01*
X40938861Y-19650233D01*
X40899501Y-19949206D01*
X40899500Y-19949223D01*
X40899500Y-20250776D01*
X40899501Y-20250793D01*
X40938861Y-20549766D01*
X41016913Y-20841060D01*
X41132314Y-21119661D01*
X41132318Y-21119671D01*
X41283099Y-21380831D01*
X41466679Y-21620078D01*
X41466685Y-21620085D01*
X41679914Y-21833314D01*
X41679921Y-21833320D01*
X41919168Y-22016900D01*
X42180328Y-22167681D01*
X42180329Y-22167681D01*
X42180332Y-22167683D01*
X42366072Y-22244619D01*
X42458939Y-22283086D01*
X42458940Y-22283086D01*
X42458942Y-22283087D01*
X42750232Y-22361138D01*
X43049217Y-22400500D01*
X43049224Y-22400500D01*
X43350776Y-22400500D01*
X43350783Y-22400500D01*
X43649768Y-22361138D01*
X43941058Y-22283087D01*
X44219668Y-22167683D01*
X44480832Y-22016900D01*
X44720080Y-21833319D01*
X44933319Y-21620080D01*
X45116900Y-21380832D01*
X45267683Y-21119668D01*
X45383087Y-20841058D01*
X45461138Y-20549768D01*
X45500500Y-20250783D01*
X45500500Y-19949217D01*
X45461138Y-19650232D01*
X45383087Y-19358942D01*
X45267683Y-19080332D01*
X45242185Y-19036169D01*
X45225713Y-18968270D01*
X45248565Y-18902243D01*
X45303487Y-18859052D01*
X45373040Y-18852411D01*
X45435143Y-18884427D01*
X45437254Y-18886489D01*
X49516803Y-22966038D01*
X49550288Y-23027361D01*
X49553122Y-23053719D01*
X49553122Y-26259230D01*
X49540663Y-26305755D01*
X49543533Y-26306944D01*
X49540424Y-26314447D01*
X49540423Y-26314450D01*
X49499499Y-26467178D01*
X49499499Y-26467180D01*
X49499499Y-26635281D01*
X49499500Y-26635294D01*
X49499500Y-29934481D01*
X49479815Y-30001520D01*
X49458797Y-30026338D01*
X49452007Y-30032494D01*
X49439711Y-30040711D01*
X49408219Y-30072202D01*
X49405981Y-30074232D01*
X49377158Y-30088188D01*
X49349040Y-30103542D01*
X49345620Y-30103460D01*
X49343096Y-30104683D01*
X49329873Y-30103085D01*
X49290591Y-30102150D01*
X49193157Y-30076042D01*
X49124500Y-30076042D01*
X49115814Y-30073491D01*
X49106853Y-30074780D01*
X49082812Y-30063801D01*
X49057461Y-30056357D01*
X49051533Y-30049516D01*
X49043297Y-30045755D01*
X49029007Y-30023520D01*
X49011706Y-30003553D01*
X49009418Y-29993038D01*
X49005523Y-29986977D01*
X49000500Y-29952042D01*
X49000500Y-29843722D01*
X49001500Y-29828463D01*
X49001500Y-29340117D01*
X49001501Y-29340104D01*
X49001501Y-29172002D01*
X49001501Y-29172000D01*
X48960577Y-29019272D01*
X48881520Y-28882341D01*
X48529464Y-28530285D01*
X48529463Y-28530284D01*
X48417659Y-28418480D01*
X48417336Y-28418157D01*
X48405829Y-28408065D01*
X47686119Y-27688355D01*
X47686117Y-27688352D01*
X47567246Y-27569481D01*
X47567245Y-27569480D01*
X47535693Y-27551264D01*
X47487116Y-27523218D01*
X47487113Y-27523217D01*
X47480433Y-27519360D01*
X47430314Y-27490423D01*
X47373033Y-27475074D01*
X47365166Y-27471754D01*
X47344456Y-27454836D01*
X47321623Y-27440919D01*
X47317810Y-27433070D01*
X47311055Y-27427552D01*
X47302778Y-27402123D01*
X47291095Y-27378071D01*
X47289764Y-27362141D01*
X47289430Y-27361113D01*
X47289618Y-27360393D01*
X47289378Y-27357510D01*
X47289378Y-27288000D01*
X47289378Y-27287999D01*
X47284233Y-27216060D01*
X47243697Y-27078008D01*
X47165909Y-26956968D01*
X47107051Y-26905967D01*
X47057177Y-26862750D01*
X47057175Y-26862748D01*
X47057172Y-26862746D01*
X47057168Y-26862744D01*
X46926297Y-26802976D01*
X46926292Y-26802975D01*
X46783878Y-26782500D01*
X46356908Y-26782500D01*
X46289869Y-26762815D01*
X46288017Y-26761602D01*
X46219184Y-26715609D01*
X46219172Y-26715602D01*
X46073501Y-26655264D01*
X46073489Y-26655261D01*
X45918845Y-26624500D01*
X45918842Y-26624500D01*
X45761158Y-26624500D01*
X45761155Y-26624500D01*
X45623728Y-26651836D01*
X45554137Y-26645609D01*
X45498959Y-26602746D01*
X45495259Y-26597315D01*
X45464958Y-26550197D01*
X45299046Y-26325000D01*
X45257816Y-26275894D01*
X45241393Y-26258680D01*
X45064741Y-26073521D01*
X45064733Y-26073513D01*
X45064731Y-26073511D01*
X45017614Y-26030017D01*
X45017605Y-26030009D01*
X45017601Y-26030006D01*
X44800471Y-25853713D01*
X44800472Y-25853713D01*
X44786305Y-25843638D01*
X44747940Y-25816354D01*
X44747935Y-25816351D01*
X44747931Y-25816348D01*
X44629101Y-25742774D01*
X44629030Y-25742730D01*
X44629029Y-25742730D01*
X44600222Y-25724867D01*
X44526873Y-25687289D01*
X44526866Y-25687286D01*
X44387436Y-25651826D01*
X44319335Y-25644564D01*
X44276269Y-25643503D01*
X44209735Y-25622173D01*
X44190584Y-25606151D01*
X44129608Y-25543671D01*
X44129607Y-25543670D01*
X44129605Y-25543668D01*
X44075306Y-25501978D01*
X44051589Y-25486670D01*
X44006045Y-25457275D01*
X44006041Y-25457273D01*
X44006039Y-25457272D01*
X43870820Y-25408107D01*
X43837137Y-25401070D01*
X43837030Y-25401047D01*
X43700781Y-25372487D01*
X43700750Y-25372481D01*
X43636978Y-25363310D01*
X43427843Y-25346745D01*
X43358133Y-25341224D01*
X43357352Y-25341211D01*
X43294034Y-25340225D01*
X43294016Y-25340226D01*
X43014621Y-25353617D01*
X42950899Y-25360743D01*
X42675461Y-25409392D01*
X42613130Y-25424533D01*
X42346063Y-25507662D01*
X42286168Y-25530564D01*
X42031752Y-25646843D01*
X41975262Y-25677132D01*
X41975256Y-25677135D01*
X41737611Y-25824683D01*
X41737609Y-25824684D01*
X41685412Y-25861876D01*
X41685388Y-25861894D01*
X41468367Y-26038310D01*
X41468329Y-26038343D01*
X41421261Y-26081843D01*
X41421250Y-26081854D01*
X41228296Y-26284338D01*
X41187083Y-26333483D01*
X41021317Y-26558760D01*
X41021311Y-26558769D01*
X40986671Y-26612701D01*
X40986663Y-26612715D01*
X40974109Y-26635294D01*
X40927702Y-26718758D01*
X40877922Y-26767783D01*
X40819329Y-26782500D01*
X39783875Y-26782500D01*
X39711937Y-26787644D01*
X39573883Y-26828182D01*
X39452847Y-26905967D01*
X39452843Y-26905971D01*
X39358628Y-27014700D01*
X39358622Y-27014709D01*
X39298854Y-27145580D01*
X39298853Y-27145585D01*
X39278378Y-27287999D01*
X39278378Y-27384096D01*
X39274996Y-27395613D01*
X39276137Y-27407562D01*
X39265334Y-27428516D01*
X39258693Y-27451135D01*
X39248822Y-27460546D01*
X39244122Y-27469665D01*
X39216379Y-27491482D01*
X39168096Y-27519359D01*
X39168095Y-27519360D01*
X39161413Y-27523218D01*
X39081286Y-27569478D01*
X38985337Y-27665427D01*
X38924014Y-27698911D01*
X38921848Y-27699362D01*
X38766508Y-27730261D01*
X38766498Y-27730264D01*
X38620827Y-27790602D01*
X38620814Y-27790609D01*
X38489711Y-27878210D01*
X38489707Y-27878213D01*
X38378213Y-27989707D01*
X38378210Y-27989711D01*
X38290609Y-28120814D01*
X38290602Y-28120827D01*
X38230264Y-28266498D01*
X38230261Y-28266510D01*
X38199500Y-28421153D01*
X38199500Y-28578846D01*
X38230261Y-28733489D01*
X38230264Y-28733501D01*
X38290602Y-28879172D01*
X38290609Y-28879185D01*
X38378210Y-29010288D01*
X38378213Y-29010292D01*
X38489707Y-29121786D01*
X38489711Y-29121789D01*
X38620814Y-29209390D01*
X38620827Y-29209397D01*
X38758695Y-29266503D01*
X38766503Y-29269737D01*
X38903678Y-29297023D01*
X38921153Y-29300499D01*
X38921156Y-29300500D01*
X38921158Y-29300500D01*
X39078844Y-29300500D01*
X39078845Y-29300499D01*
X39233497Y-29269737D01*
X39375565Y-29210890D01*
X39445034Y-29203422D01*
X39504221Y-29231740D01*
X39510584Y-29237254D01*
X39641458Y-29297023D01*
X39641461Y-29297023D01*
X39641462Y-29297024D01*
X39783878Y-29317500D01*
X40819341Y-29317500D01*
X40886380Y-29337185D01*
X40927680Y-29381180D01*
X40987505Y-29488630D01*
X41016665Y-29533973D01*
X41022185Y-29542556D01*
X41188096Y-29767753D01*
X41229327Y-29816861D01*
X41288775Y-29879172D01*
X41422401Y-30019234D01*
X41422424Y-30019256D01*
X41469531Y-30062740D01*
X41469532Y-30062740D01*
X41686679Y-30239048D01*
X41739203Y-30276402D01*
X41739208Y-30276405D01*
X41739215Y-30276410D01*
X41858516Y-30350275D01*
X41858517Y-30350275D01*
X41886921Y-30367888D01*
X41887170Y-30368016D01*
X41889516Y-30369468D01*
X41889517Y-30369469D01*
X41905811Y-30379558D01*
X41914194Y-30381861D01*
X41960263Y-30405463D01*
X41960269Y-30405466D01*
X41960273Y-30405467D01*
X42099705Y-30440928D01*
X42099708Y-30440928D01*
X42099711Y-30440929D01*
X42167798Y-30448190D01*
X42210872Y-30449251D01*
X42277405Y-30470580D01*
X42296557Y-30486602D01*
X42350143Y-30541510D01*
X42357537Y-30549086D01*
X42411836Y-30590776D01*
X42411847Y-30590783D01*
X42481098Y-30635480D01*
X42616318Y-30684646D01*
X42624453Y-30686345D01*
X42649832Y-30691648D01*
X42649831Y-30691649D01*
X42649900Y-30691661D01*
X42732768Y-30709032D01*
X42786368Y-30720268D01*
X42786392Y-30720272D01*
X42850153Y-30729442D01*
X42850167Y-30729444D01*
X43129009Y-30751531D01*
X43179077Y-30752310D01*
X43193106Y-30752529D01*
X43193110Y-30752528D01*
X43193124Y-30752529D01*
X43337149Y-30745626D01*
X43405054Y-30762079D01*
X43453284Y-30812632D01*
X43466527Y-30881235D01*
X43440578Y-30946107D01*
X43405085Y-30976871D01*
X43331287Y-31019477D01*
X43331282Y-31019481D01*
X43219478Y-31131286D01*
X41469671Y-32881092D01*
X41429446Y-32907971D01*
X41391873Y-32923535D01*
X41285328Y-32994725D01*
X41194726Y-33085327D01*
X41194723Y-33085331D01*
X41123538Y-33191866D01*
X41123533Y-33191875D01*
X41074499Y-33310255D01*
X41074497Y-33310261D01*
X41049500Y-33435928D01*
X41049500Y-33435931D01*
X41049500Y-33564069D01*
X41049500Y-33564071D01*
X41049499Y-33564071D01*
X41074497Y-33689738D01*
X41074499Y-33689744D01*
X41123533Y-33808124D01*
X41123538Y-33808133D01*
X41194723Y-33914668D01*
X41194726Y-33914672D01*
X41285327Y-34005273D01*
X41285331Y-34005276D01*
X41391866Y-34076461D01*
X41391872Y-34076464D01*
X41391873Y-34076465D01*
X41510256Y-34125501D01*
X41510260Y-34125501D01*
X41510261Y-34125502D01*
X41635928Y-34150500D01*
X41635931Y-34150500D01*
X41764071Y-34150500D01*
X41848737Y-34133658D01*
X41889744Y-34125501D01*
X42008127Y-34076465D01*
X42114669Y-34005276D01*
X42205276Y-33914669D01*
X42276465Y-33808127D01*
X42292027Y-33770554D01*
X42318904Y-33730329D01*
X43912416Y-32136819D01*
X43973739Y-32103334D01*
X44000097Y-32100500D01*
X47275500Y-32100500D01*
X47342539Y-32120185D01*
X47388294Y-32172989D01*
X47399500Y-32224500D01*
X47399500Y-33175773D01*
X47399499Y-33175791D01*
X47399499Y-33341497D01*
X47399498Y-33341497D01*
X47440423Y-33494228D01*
X47454917Y-33519332D01*
X47454916Y-33519332D01*
X47454917Y-33519333D01*
X47519475Y-33631152D01*
X47519481Y-33631160D01*
X47638349Y-33750028D01*
X47638355Y-33750033D01*
X49066196Y-35177874D01*
X49066206Y-35177885D01*
X49070536Y-35182215D01*
X49070537Y-35182216D01*
X49182341Y-35294020D01*
X49256785Y-35337000D01*
X49319272Y-35373077D01*
X49455965Y-35409704D01*
X49461540Y-35411790D01*
X49484907Y-35429318D01*
X49509845Y-35444519D01*
X49512524Y-35450036D01*
X49517432Y-35453717D01*
X49527612Y-35481095D01*
X49540374Y-35507366D01*
X49539645Y-35513455D01*
X49541784Y-35519206D01*
X49535546Y-35547743D01*
X49532079Y-35576741D01*
X49528174Y-35581470D01*
X49526864Y-35587464D01*
X49506187Y-35608099D01*
X49487594Y-35630619D01*
X49486983Y-35631030D01*
X49400393Y-35688888D01*
X49400387Y-35688893D01*
X49288893Y-35800387D01*
X49288890Y-35800391D01*
X49201289Y-35931494D01*
X49201282Y-35931507D01*
X49140944Y-36077178D01*
X49140941Y-36077190D01*
X49110180Y-36231833D01*
X49110180Y-36389526D01*
X49140941Y-36544169D01*
X49140944Y-36544181D01*
X49201282Y-36689852D01*
X49201289Y-36689865D01*
X49288890Y-36820968D01*
X49288893Y-36820972D01*
X49400387Y-36932466D01*
X49400391Y-36932469D01*
X49531494Y-37020070D01*
X49531507Y-37020077D01*
X49660423Y-37073475D01*
X49677183Y-37080417D01*
X49831833Y-37111179D01*
X49831836Y-37111180D01*
X49995614Y-37111180D01*
X49995614Y-37112612D01*
X50057204Y-37124285D01*
X50107920Y-37172344D01*
X50124602Y-37240193D01*
X50101954Y-37306290D01*
X50088406Y-37322357D01*
X45644522Y-41766241D01*
X45583199Y-41799726D01*
X45518523Y-41796491D01*
X45476245Y-41782754D01*
X45336272Y-41760584D01*
X45266287Y-41749500D01*
X45053713Y-41749500D01*
X45005042Y-41757208D01*
X44843760Y-41782753D01*
X44768022Y-41807362D01*
X44693755Y-41831493D01*
X44641585Y-41848444D01*
X44452179Y-41944951D01*
X44280213Y-42069890D01*
X44129890Y-42220213D01*
X44004951Y-42392179D01*
X43908444Y-42581585D01*
X43842753Y-42783760D01*
X43809500Y-42993713D01*
X43809500Y-43206286D01*
X43840353Y-43401089D01*
X43842754Y-43416243D01*
X43907322Y-43614963D01*
X43908444Y-43618414D01*
X44004951Y-43807820D01*
X44129890Y-43979786D01*
X44280213Y-44130109D01*
X44452179Y-44255048D01*
X44452181Y-44255049D01*
X44452184Y-44255051D01*
X44641588Y-44351557D01*
X44843757Y-44417246D01*
X45053713Y-44450500D01*
X45053714Y-44450500D01*
X45266286Y-44450500D01*
X45266287Y-44450500D01*
X45476243Y-44417246D01*
X45678412Y-44351557D01*
X45867816Y-44255051D01*
X45943446Y-44200103D01*
X46039786Y-44130109D01*
X46039788Y-44130106D01*
X46039792Y-44130104D01*
X46190104Y-43979792D01*
X46190106Y-43979788D01*
X46190109Y-43979786D01*
X46299086Y-43829789D01*
X46315051Y-43807816D01*
X46319514Y-43799054D01*
X46367488Y-43748259D01*
X46435308Y-43731463D01*
X46501444Y-43753999D01*
X46540486Y-43799056D01*
X46544951Y-43807820D01*
X46669890Y-43979786D01*
X46820213Y-44130109D01*
X46992179Y-44255048D01*
X46992181Y-44255049D01*
X46992184Y-44255051D01*
X47181588Y-44351557D01*
X47383757Y-44417246D01*
X47593713Y-44450500D01*
X47593714Y-44450500D01*
X47806286Y-44450500D01*
X47806287Y-44450500D01*
X48016243Y-44417246D01*
X48218412Y-44351557D01*
X48407816Y-44255051D01*
X48483446Y-44200103D01*
X48579784Y-44130110D01*
X48579784Y-44130109D01*
X48579792Y-44130104D01*
X48693329Y-44016566D01*
X48754648Y-43983084D01*
X48824340Y-43988068D01*
X48880274Y-44029939D01*
X48897189Y-44060917D01*
X48946202Y-44192328D01*
X48946206Y-44192335D01*
X49032452Y-44307544D01*
X49032455Y-44307547D01*
X49147664Y-44393793D01*
X49147671Y-44393797D01*
X49282517Y-44444091D01*
X49282516Y-44444091D01*
X49289444Y-44444835D01*
X49342127Y-44450500D01*
X51137872Y-44450499D01*
X51197483Y-44444091D01*
X51332331Y-44393796D01*
X51447546Y-44307546D01*
X51533796Y-44192331D01*
X51584091Y-44057483D01*
X51590500Y-43997873D01*
X51590499Y-42202128D01*
X51584091Y-42142517D01*
X51582810Y-42139083D01*
X51533797Y-42007671D01*
X51533793Y-42007664D01*
X51475735Y-41930110D01*
X51447546Y-41892454D01*
X51366110Y-41831491D01*
X54999500Y-41831491D01*
X54999500Y-42168508D01*
X55037231Y-42503381D01*
X55037233Y-42503397D01*
X55112223Y-42831953D01*
X55112227Y-42831965D01*
X55223532Y-43150054D01*
X55369752Y-43453683D01*
X55407808Y-43514249D01*
X55549054Y-43739039D01*
X55700044Y-43928375D01*
X55758625Y-44001834D01*
X55759175Y-44002523D01*
X55997477Y-44240825D01*
X56260961Y-44450946D01*
X56542722Y-44627989D01*
X56546316Y-44630247D01*
X56613874Y-44662781D01*
X56849949Y-44776469D01*
X57088848Y-44860063D01*
X57168034Y-44887772D01*
X57168046Y-44887776D01*
X57496606Y-44962767D01*
X57831492Y-45000499D01*
X57831493Y-45000500D01*
X57831496Y-45000500D01*
X58168507Y-45000500D01*
X58168507Y-45000499D01*
X58503394Y-44962767D01*
X58831954Y-44887776D01*
X59150051Y-44776469D01*
X59453686Y-44630246D01*
X59739039Y-44450946D01*
X60002523Y-44240825D01*
X60240825Y-44002523D01*
X60450946Y-43739039D01*
X60630246Y-43453686D01*
X60776469Y-43150051D01*
X60887776Y-42831954D01*
X60962767Y-42503394D01*
X61000500Y-42168504D01*
X61000500Y-41831496D01*
X60962767Y-41496606D01*
X60887776Y-41168046D01*
X60776469Y-40849949D01*
X60630246Y-40546314D01*
X60450946Y-40260961D01*
X60240825Y-39997477D01*
X60002523Y-39759175D01*
X59739039Y-39549054D01*
X59498959Y-39398201D01*
X59453683Y-39369752D01*
X59150054Y-39223532D01*
X58831965Y-39112227D01*
X58831953Y-39112223D01*
X58503397Y-39037233D01*
X58503381Y-39037231D01*
X58168508Y-38999500D01*
X58168504Y-38999500D01*
X57831496Y-38999500D01*
X57831491Y-38999500D01*
X57496618Y-39037231D01*
X57496602Y-39037233D01*
X57168046Y-39112223D01*
X57168034Y-39112227D01*
X56849945Y-39223532D01*
X56546316Y-39369752D01*
X56260962Y-39549053D01*
X55997477Y-39759174D01*
X55759174Y-39997477D01*
X55549053Y-40260962D01*
X55369752Y-40546316D01*
X55223532Y-40849945D01*
X55112227Y-41168034D01*
X55112223Y-41168046D01*
X55037233Y-41496602D01*
X55037231Y-41496618D01*
X54999500Y-41831491D01*
X51366110Y-41831491D01*
X51336334Y-41809201D01*
X51334102Y-41807362D01*
X51316036Y-41780735D01*
X51296760Y-41754985D01*
X51296547Y-41752012D01*
X51294873Y-41749545D01*
X51294070Y-41717383D01*
X51291776Y-41685294D01*
X51293205Y-41682676D01*
X51293131Y-41679697D01*
X51309839Y-41652213D01*
X51325259Y-41623974D01*
X54514664Y-38434571D01*
X54575985Y-38401088D01*
X54578152Y-38400637D01*
X54578841Y-38400500D01*
X54578842Y-38400500D01*
X54733497Y-38369737D01*
X54879179Y-38309394D01*
X55010289Y-38221789D01*
X55121789Y-38110289D01*
X55209394Y-37979179D01*
X55269737Y-37833497D01*
X55300500Y-37678842D01*
X55300500Y-37521158D01*
X55300500Y-37521155D01*
X55300499Y-37521153D01*
X55298826Y-37512744D01*
X55269737Y-37366503D01*
X55237929Y-37289711D01*
X55209397Y-37220827D01*
X55209390Y-37220814D01*
X55121789Y-37089711D01*
X55121786Y-37089707D01*
X55010292Y-36978213D01*
X55010288Y-36978210D01*
X54879185Y-36890609D01*
X54879172Y-36890602D01*
X54733501Y-36830264D01*
X54733489Y-36830261D01*
X54578845Y-36799500D01*
X54578842Y-36799500D01*
X54549097Y-36799500D01*
X54482058Y-36779815D01*
X54436303Y-36727011D01*
X54426359Y-36657853D01*
X54455384Y-36594297D01*
X54461416Y-36587819D01*
X54505066Y-36544169D01*
X54743019Y-36306217D01*
X54822076Y-36169286D01*
X54835822Y-36117983D01*
X54867918Y-36062394D01*
X54884288Y-36046025D01*
X54971893Y-35914915D01*
X55032236Y-35769233D01*
X55062999Y-35614578D01*
X55062999Y-35456894D01*
X55062999Y-35456891D01*
X55062998Y-35456889D01*
X55032236Y-35302239D01*
X55028831Y-35294018D01*
X54971896Y-35156563D01*
X54971889Y-35156550D01*
X54884288Y-35025447D01*
X54884285Y-35025443D01*
X54772791Y-34913949D01*
X54772787Y-34913946D01*
X54641684Y-34826345D01*
X54641671Y-34826338D01*
X54496000Y-34766000D01*
X54495988Y-34765997D01*
X54341344Y-34735236D01*
X54341341Y-34735236D01*
X54183657Y-34735236D01*
X54183654Y-34735236D01*
X54029009Y-34765997D01*
X54028997Y-34766000D01*
X53883326Y-34826338D01*
X53883313Y-34826345D01*
X53752210Y-34913946D01*
X53752206Y-34913949D01*
X53640712Y-35025443D01*
X53640709Y-35025447D01*
X53553108Y-35156550D01*
X53553101Y-35156563D01*
X53492763Y-35302234D01*
X53492760Y-35302246D01*
X53461999Y-35456889D01*
X53461999Y-35586180D01*
X53442314Y-35653219D01*
X53389510Y-35698974D01*
X53337999Y-35710180D01*
X50490446Y-35710180D01*
X50472302Y-35704852D01*
X50453393Y-35704515D01*
X50425175Y-35691014D01*
X50423407Y-35690495D01*
X50421555Y-35689282D01*
X50349449Y-35641102D01*
X50304644Y-35587490D01*
X50295937Y-35518165D01*
X50326092Y-35455137D01*
X50385535Y-35418418D01*
X50418340Y-35414000D01*
X52001888Y-35414000D01*
X52001904Y-35414001D01*
X52009500Y-35414001D01*
X52167611Y-35414001D01*
X52167614Y-35414001D01*
X52320342Y-35373077D01*
X52382829Y-35337000D01*
X52457273Y-35294020D01*
X52569077Y-35182216D01*
X52569077Y-35182214D01*
X52579281Y-35172011D01*
X52579284Y-35172006D01*
X56488321Y-31262970D01*
X56549642Y-31229487D01*
X56619334Y-31234471D01*
X56675267Y-31276343D01*
X56699684Y-31341807D01*
X56700000Y-31350653D01*
X56700000Y-34799999D01*
X56700000Y-34800000D01*
X59221987Y-34725823D01*
X59289576Y-34743528D01*
X59336863Y-34794964D01*
X59348836Y-34863800D01*
X59321692Y-34928182D01*
X59313313Y-34937450D01*
X58931286Y-35319478D01*
X58819481Y-35431282D01*
X58819479Y-35431284D01*
X58804697Y-35456889D01*
X58780096Y-35499500D01*
X58740423Y-35568215D01*
X58699499Y-35720943D01*
X58699499Y-35720945D01*
X58699499Y-35889046D01*
X58699500Y-35889059D01*
X58699500Y-37313330D01*
X58699499Y-37313348D01*
X58699499Y-37479054D01*
X58699498Y-37479054D01*
X58740424Y-37631789D01*
X58740425Y-37631790D01*
X58756399Y-37659458D01*
X58756404Y-37659465D01*
X58759430Y-37664706D01*
X58819480Y-37768716D01*
X58872642Y-37821878D01*
X58878581Y-37830176D01*
X58886861Y-37853918D01*
X58898911Y-37875985D01*
X58899362Y-37878151D01*
X58930261Y-38033491D01*
X58930264Y-38033501D01*
X58990602Y-38179172D01*
X58990609Y-38179185D01*
X59078210Y-38310288D01*
X59078213Y-38310292D01*
X59189707Y-38421786D01*
X59189711Y-38421789D01*
X59320814Y-38509390D01*
X59320827Y-38509397D01*
X59466498Y-38569735D01*
X59466503Y-38569737D01*
X59621153Y-38600499D01*
X59621156Y-38600500D01*
X59621158Y-38600500D01*
X59778844Y-38600500D01*
X59778845Y-38600499D01*
X59933497Y-38569737D01*
X60079179Y-38509394D01*
X60210289Y-38421789D01*
X60321789Y-38310289D01*
X60409394Y-38179179D01*
X60469737Y-38033497D01*
X60500500Y-37878842D01*
X60500500Y-37721158D01*
X60500500Y-37721155D01*
X60500499Y-37721153D01*
X60469737Y-37566503D01*
X60450955Y-37521158D01*
X60409397Y-37420827D01*
X60409390Y-37420814D01*
X60321789Y-37289711D01*
X60321786Y-37289707D01*
X60210292Y-37178213D01*
X60210288Y-37178210D01*
X60079185Y-37090609D01*
X60079175Y-37090604D01*
X59977047Y-37048301D01*
X59922644Y-37004460D01*
X59900579Y-36938166D01*
X59900500Y-36933740D01*
X59900500Y-36100097D01*
X59920185Y-36033058D01*
X59936819Y-36012416D01*
X60468140Y-35481095D01*
X61014662Y-34934572D01*
X61075983Y-34901089D01*
X61078150Y-34900638D01*
X61136085Y-34889113D01*
X61233497Y-34869737D01*
X61328048Y-34830572D01*
X61397517Y-34823104D01*
X61459996Y-34854379D01*
X61495648Y-34914468D01*
X61499500Y-34945134D01*
X61499500Y-42996249D01*
X61499274Y-43003736D01*
X61481728Y-43293794D01*
X61479923Y-43308659D01*
X61428219Y-43590798D01*
X61424635Y-43605336D01*
X61339306Y-43879167D01*
X61333997Y-43893168D01*
X61216275Y-44154736D01*
X61209316Y-44167995D01*
X61060928Y-44413459D01*
X61052422Y-44425782D01*
X60875526Y-44651573D01*
X60865596Y-44662781D01*
X60662781Y-44865596D01*
X60651573Y-44875526D01*
X60425782Y-45052422D01*
X60413459Y-45060928D01*
X60167995Y-45209316D01*
X60154736Y-45216275D01*
X59893168Y-45333997D01*
X59879167Y-45339306D01*
X59605336Y-45424635D01*
X59590798Y-45428219D01*
X59308659Y-45479923D01*
X59293794Y-45481728D01*
X59003736Y-45499274D01*
X58996249Y-45499500D01*
X40575949Y-45499500D01*
X40572189Y-45498396D01*
X40568371Y-45499268D01*
X40538938Y-45488632D01*
X40508910Y-45479815D01*
X40506344Y-45476854D01*
X40502660Y-45475523D01*
X40483643Y-45450656D01*
X40463155Y-45427011D01*
X40462597Y-45423135D01*
X40460217Y-45420022D01*
X40457664Y-45388824D01*
X40453211Y-45357853D01*
X40454838Y-45354289D01*
X40454519Y-45350385D01*
X40469233Y-45322768D01*
X40482236Y-45294297D01*
X40486064Y-45291178D01*
X40487374Y-45288722D01*
X40497398Y-45281949D01*
X40515410Y-45267282D01*
X40526790Y-45260915D01*
X40531785Y-45259577D01*
X40612117Y-45213197D01*
X40668716Y-45180520D01*
X40780520Y-45068716D01*
X40780520Y-45068714D01*
X40790724Y-45058511D01*
X40790727Y-45058506D01*
X42414662Y-43434572D01*
X42475983Y-43401089D01*
X42478150Y-43400638D01*
X42536085Y-43389113D01*
X42633497Y-43369737D01*
X42779179Y-43309394D01*
X42910289Y-43221789D01*
X43021789Y-43110289D01*
X43109394Y-42979179D01*
X43169737Y-42833497D01*
X43200500Y-42678842D01*
X43200500Y-42521158D01*
X43200500Y-42521155D01*
X43200499Y-42521153D01*
X43196648Y-42501791D01*
X43169737Y-42366503D01*
X43157061Y-42335899D01*
X43109397Y-42220827D01*
X43109390Y-42220814D01*
X43021789Y-42089711D01*
X43021786Y-42089707D01*
X42910292Y-41978213D01*
X42910288Y-41978210D01*
X42779185Y-41890609D01*
X42779172Y-41890602D01*
X42633501Y-41830264D01*
X42633489Y-41830261D01*
X42478845Y-41799500D01*
X42478842Y-41799500D01*
X42321158Y-41799500D01*
X42321155Y-41799500D01*
X42166510Y-41830261D01*
X42166498Y-41830264D01*
X42020827Y-41890602D01*
X42020814Y-41890609D01*
X41889711Y-41978210D01*
X41889707Y-41978213D01*
X41778213Y-42089707D01*
X41778210Y-42089711D01*
X41690609Y-42220814D01*
X41690602Y-42220827D01*
X41630264Y-42366498D01*
X41630261Y-42366508D01*
X41599361Y-42521850D01*
X41566976Y-42583761D01*
X41565425Y-42585339D01*
X40564302Y-43586462D01*
X40502979Y-43619947D01*
X40433287Y-43614963D01*
X40377354Y-43573091D01*
X40352937Y-43507627D01*
X40353882Y-43481139D01*
X40355500Y-43469891D01*
X40355500Y-42640870D01*
X40375185Y-42573831D01*
X40427989Y-42528076D01*
X40448824Y-42520725D01*
X40463337Y-42517021D01*
X40500091Y-42501797D01*
X40548905Y-42478443D01*
X40664087Y-42392218D01*
X40692218Y-42364087D01*
X40728379Y-42323831D01*
X40801797Y-42200091D01*
X40817021Y-42163337D01*
X40835024Y-42112307D01*
X40855500Y-41969891D01*
X40855500Y-39430109D01*
X40852604Y-39376074D01*
X40852604Y-39376072D01*
X40817021Y-39236664D01*
X40817020Y-39236660D01*
X40801798Y-39199912D01*
X40801795Y-39199906D01*
X40778443Y-39151095D01*
X40692218Y-39035913D01*
X40692213Y-39035908D01*
X40692208Y-39035902D01*
X40664097Y-39007791D01*
X40623835Y-38971624D01*
X40623833Y-38971622D01*
X40623831Y-38971621D01*
X40528489Y-38915052D01*
X40500093Y-38898204D01*
X40500086Y-38898201D01*
X40463337Y-38882979D01*
X40463322Y-38882973D01*
X40463315Y-38882971D01*
X40412308Y-38864976D01*
X40364835Y-38858150D01*
X40269891Y-38844500D01*
X40269889Y-38844500D01*
X37772500Y-38844500D01*
X37705461Y-38824815D01*
X37659706Y-38772011D01*
X37648500Y-38720500D01*
X37648500Y-37938000D01*
X37648500Y-37937999D01*
X37643355Y-37866060D01*
X37602819Y-37728008D01*
X37562133Y-37664700D01*
X37525032Y-37606969D01*
X37525028Y-37606965D01*
X37416299Y-37512750D01*
X37416297Y-37512748D01*
X37416294Y-37512746D01*
X37416290Y-37512744D01*
X37285419Y-37452976D01*
X37285414Y-37452975D01*
X37143000Y-37432500D01*
X34857000Y-37432500D01*
X34856997Y-37432500D01*
X34785059Y-37437644D01*
X34647005Y-37478182D01*
X34525969Y-37555967D01*
X34525965Y-37555971D01*
X34431750Y-37664700D01*
X34431744Y-37664709D01*
X34371976Y-37795580D01*
X34371975Y-37795585D01*
X34351500Y-37937999D01*
X34351500Y-38720500D01*
X34331815Y-38787539D01*
X34279011Y-38833294D01*
X34227500Y-38844500D01*
X33730105Y-38844500D01*
X33676072Y-38847395D01*
X33536664Y-38882978D01*
X33536660Y-38882979D01*
X33499912Y-38898201D01*
X33499896Y-38898208D01*
X33451097Y-38921555D01*
X33451092Y-38921558D01*
X33335914Y-39007781D01*
X33335902Y-39007791D01*
X33307791Y-39035902D01*
X33271624Y-39076164D01*
X33198204Y-39199906D01*
X33182981Y-39236658D01*
X33182971Y-39236684D01*
X33174127Y-39261754D01*
X33133260Y-39318426D01*
X33068242Y-39344007D01*
X33057191Y-39344500D01*
X32230105Y-39344500D01*
X32176072Y-39347395D01*
X32036664Y-39382978D01*
X32036660Y-39382979D01*
X31999912Y-39398201D01*
X31999896Y-39398208D01*
X31951097Y-39421555D01*
X31951092Y-39421558D01*
X31835914Y-39507781D01*
X31835902Y-39507791D01*
X31807791Y-39535902D01*
X31771624Y-39576164D01*
X31698204Y-39699906D01*
X31682981Y-39736658D01*
X31682971Y-39736684D01*
X31664976Y-39787691D01*
X31644500Y-39930110D01*
X31644500Y-41469894D01*
X31647395Y-41523927D01*
X31684074Y-41667627D01*
X31682383Y-41668058D01*
X31684598Y-41730599D01*
X31681396Y-41741150D01*
X31664975Y-41787694D01*
X31644500Y-41930110D01*
X31644500Y-42335899D01*
X31624815Y-42402938D01*
X31572011Y-42448693D01*
X31502853Y-42458637D01*
X31451610Y-42439002D01*
X31379183Y-42390608D01*
X31379172Y-42390602D01*
X31233501Y-42330264D01*
X31233489Y-42330261D01*
X31078845Y-42299500D01*
X31078842Y-42299500D01*
X30944220Y-42299500D01*
X30877181Y-42279815D01*
X30831426Y-42227011D01*
X30821482Y-42157853D01*
X30827284Y-42134245D01*
X30835024Y-42112308D01*
X30835024Y-42112307D01*
X30855500Y-41969891D01*
X30855500Y-39430109D01*
X30852604Y-39376074D01*
X30852604Y-39376072D01*
X30817021Y-39236664D01*
X30817020Y-39236660D01*
X30801798Y-39199912D01*
X30801795Y-39199906D01*
X30778443Y-39151095D01*
X30692218Y-39035913D01*
X30692213Y-39035908D01*
X30692208Y-39035902D01*
X30664097Y-39007791D01*
X30623835Y-38971624D01*
X30623833Y-38971622D01*
X30623831Y-38971621D01*
X30528489Y-38915052D01*
X30500093Y-38898204D01*
X30500086Y-38898201D01*
X30463337Y-38882979D01*
X30463322Y-38882973D01*
X30463315Y-38882971D01*
X30412308Y-38864976D01*
X30364835Y-38858150D01*
X30269891Y-38844500D01*
X30269889Y-38844500D01*
X27772500Y-38844500D01*
X27705461Y-38824815D01*
X27659706Y-38772011D01*
X27648500Y-38720500D01*
X27648500Y-37938000D01*
X27648500Y-37937999D01*
X27643355Y-37866060D01*
X27602819Y-37728008D01*
X27562133Y-37664700D01*
X27525032Y-37606969D01*
X27525028Y-37606965D01*
X27416299Y-37512750D01*
X27416297Y-37512748D01*
X27416294Y-37512746D01*
X27416290Y-37512744D01*
X27285419Y-37452976D01*
X27285414Y-37452975D01*
X27143000Y-37432500D01*
X24857000Y-37432500D01*
X24856997Y-37432500D01*
X24785059Y-37437644D01*
X24647005Y-37478182D01*
X24525969Y-37555967D01*
X24525965Y-37555971D01*
X24431750Y-37664700D01*
X24431744Y-37664709D01*
X24371976Y-37795580D01*
X24371975Y-37795585D01*
X24351500Y-37937999D01*
X24351500Y-38720500D01*
X24331815Y-38787539D01*
X24279011Y-38833294D01*
X24227500Y-38844500D01*
X23730105Y-38844500D01*
X23676072Y-38847395D01*
X23536664Y-38882978D01*
X23536660Y-38882979D01*
X23499912Y-38898201D01*
X23499896Y-38898208D01*
X23451097Y-38921555D01*
X23451092Y-38921558D01*
X23335914Y-39007781D01*
X23335902Y-39007791D01*
X23307791Y-39035902D01*
X23271624Y-39076164D01*
X23198204Y-39199906D01*
X23182981Y-39236658D01*
X23182971Y-39236684D01*
X23174127Y-39261754D01*
X23133260Y-39318426D01*
X23068242Y-39344007D01*
X23057191Y-39344500D01*
X22230105Y-39344500D01*
X22176072Y-39347395D01*
X22036664Y-39382978D01*
X22036660Y-39382979D01*
X21999912Y-39398201D01*
X21999896Y-39398208D01*
X21951097Y-39421555D01*
X21951092Y-39421558D01*
X21835914Y-39507781D01*
X21835902Y-39507791D01*
X21807791Y-39535902D01*
X21771624Y-39576164D01*
X21698204Y-39699906D01*
X21682981Y-39736658D01*
X21682971Y-39736684D01*
X21664976Y-39787691D01*
X21644500Y-39930110D01*
X21644500Y-41469894D01*
X21647395Y-41523927D01*
X21684074Y-41667627D01*
X21682383Y-41668058D01*
X21684598Y-41730599D01*
X21681396Y-41741150D01*
X21664975Y-41787694D01*
X21644500Y-41930110D01*
X21644500Y-43469894D01*
X21647395Y-43523927D01*
X21682978Y-43663335D01*
X21682979Y-43663339D01*
X21698201Y-43700087D01*
X21698208Y-43700103D01*
X21721555Y-43748902D01*
X21721557Y-43748905D01*
X21807782Y-43864087D01*
X21807786Y-43864091D01*
X21807791Y-43864097D01*
X21835902Y-43892208D01*
X21835911Y-43892216D01*
X21835913Y-43892218D01*
X21837214Y-43893387D01*
X21876164Y-43928375D01*
X21876165Y-43928375D01*
X21876169Y-43928379D01*
X21999909Y-44001797D01*
X22036663Y-44017021D01*
X22087693Y-44035024D01*
X22230109Y-44055500D01*
X23059129Y-44055500D01*
X23126168Y-44075185D01*
X23171923Y-44127989D01*
X23179277Y-44148833D01*
X23182978Y-44163335D01*
X23182979Y-44163339D01*
X23198201Y-44200087D01*
X23198208Y-44200103D01*
X23221555Y-44248902D01*
X23221558Y-44248907D01*
X23264669Y-44306496D01*
X23307782Y-44364087D01*
X23307786Y-44364091D01*
X23307791Y-44364097D01*
X23335902Y-44392208D01*
X23376164Y-44428375D01*
X23376165Y-44428375D01*
X23376169Y-44428379D01*
X23499909Y-44501797D01*
X23536663Y-44517021D01*
X23587693Y-44535024D01*
X23730109Y-44555500D01*
X24227500Y-44555500D01*
X24294539Y-44575185D01*
X24340294Y-44627989D01*
X24351500Y-44679500D01*
X24351500Y-45375500D01*
X24331815Y-45442539D01*
X24279011Y-45488294D01*
X24227500Y-45499500D01*
X3073502Y-45499500D01*
X3065895Y-45499499D01*
X3065892Y-45499499D01*
X3003749Y-45499499D01*
X3003748Y-45499498D01*
X2996264Y-45499273D01*
X2706205Y-45481727D01*
X2691340Y-45479922D01*
X2409202Y-45428218D01*
X2394664Y-45424634D01*
X2120825Y-45339303D01*
X2106827Y-45333994D01*
X1941479Y-45259577D01*
X1845269Y-45216276D01*
X1832011Y-45209318D01*
X1643966Y-45095641D01*
X1586538Y-45060925D01*
X1574220Y-45052422D01*
X1348427Y-44875525D01*
X1337219Y-44865595D01*
X1134404Y-44662780D01*
X1124474Y-44651572D01*
X1064629Y-44575185D01*
X947574Y-44425775D01*
X939073Y-44413459D01*
X805395Y-44192328D01*
X790681Y-44167988D01*
X783723Y-44154730D01*
X781069Y-44148833D01*
X666001Y-43893163D01*
X660699Y-43879182D01*
X575364Y-43605334D01*
X571781Y-43590797D01*
X520077Y-43308659D01*
X518272Y-43293794D01*
X500725Y-43003713D01*
X500500Y-42996239D01*
X500500Y-41831491D01*
X999500Y-41831491D01*
X999500Y-42168508D01*
X1037231Y-42503381D01*
X1037233Y-42503397D01*
X1112223Y-42831953D01*
X1112227Y-42831965D01*
X1223532Y-43150054D01*
X1369752Y-43453683D01*
X1407808Y-43514249D01*
X1549054Y-43739039D01*
X1700044Y-43928375D01*
X1758625Y-44001834D01*
X1759175Y-44002523D01*
X1997477Y-44240825D01*
X2260961Y-44450946D01*
X2542722Y-44627989D01*
X2546316Y-44630247D01*
X2613874Y-44662781D01*
X2849949Y-44776469D01*
X3088848Y-44860063D01*
X3168034Y-44887772D01*
X3168046Y-44887776D01*
X3496606Y-44962767D01*
X3831492Y-45000499D01*
X3831493Y-45000500D01*
X3831496Y-45000500D01*
X4168507Y-45000500D01*
X4168507Y-45000499D01*
X4503394Y-44962767D01*
X4831954Y-44887776D01*
X5150051Y-44776469D01*
X5453686Y-44630246D01*
X5739039Y-44450946D01*
X6002523Y-44240825D01*
X6240825Y-44002523D01*
X6450946Y-43739039D01*
X6630246Y-43453686D01*
X6776469Y-43150051D01*
X6887776Y-42831954D01*
X6962767Y-42503394D01*
X7000500Y-42168504D01*
X7000500Y-41831496D01*
X6962767Y-41496606D01*
X6887776Y-41168046D01*
X6776469Y-40849949D01*
X6630246Y-40546314D01*
X6450946Y-40260961D01*
X6240825Y-39997477D01*
X6002523Y-39759175D01*
X5739039Y-39549054D01*
X5498959Y-39398201D01*
X5453683Y-39369752D01*
X5150054Y-39223532D01*
X4831965Y-39112227D01*
X4831953Y-39112223D01*
X4503397Y-39037233D01*
X4503381Y-39037231D01*
X4168508Y-38999500D01*
X4168504Y-38999500D01*
X3831496Y-38999500D01*
X3831491Y-38999500D01*
X3496618Y-39037231D01*
X3496602Y-39037233D01*
X3168046Y-39112223D01*
X3168034Y-39112227D01*
X2849945Y-39223532D01*
X2546316Y-39369752D01*
X2260962Y-39549053D01*
X1997477Y-39759174D01*
X1759174Y-39997477D01*
X1549053Y-40260962D01*
X1369752Y-40546316D01*
X1223532Y-40849945D01*
X1112227Y-41168034D01*
X1112223Y-41168046D01*
X1037233Y-41496602D01*
X1037231Y-41496618D01*
X999500Y-41831491D01*
X500500Y-41831491D01*
X500500Y-28516198D01*
X506599Y-28495424D01*
X507968Y-28473816D01*
X516249Y-28462562D01*
X520185Y-28449159D01*
X536545Y-28434982D01*
X549380Y-28417542D01*
X562431Y-28412551D01*
X572989Y-28403404D01*
X594417Y-28400322D01*
X614643Y-28392590D01*
X628319Y-28395448D01*
X642147Y-28393460D01*
X661840Y-28402453D01*
X683035Y-28406883D01*
X701418Y-28420528D01*
X705703Y-28422485D01*
X711461Y-28427803D01*
X711830Y-28428166D01*
X787577Y-28503913D01*
X790599Y-28505657D01*
X798686Y-28513613D01*
X798775Y-28513774D01*
X799406Y-28514327D01*
X10549453Y-38264374D01*
X10549463Y-38264385D01*
X10553793Y-38268715D01*
X10553794Y-38268716D01*
X10665598Y-38380520D01*
X10665600Y-38380521D01*
X10665604Y-38380524D01*
X10759221Y-38434573D01*
X10802530Y-38459577D01*
X10914333Y-38489534D01*
X10955256Y-38500500D01*
X10955257Y-38500500D01*
X22013331Y-38500500D01*
X22013347Y-38500501D01*
X22020943Y-38500501D01*
X22179054Y-38500501D01*
X22179057Y-38500501D01*
X22331785Y-38459577D01*
X22397235Y-38421789D01*
X22468716Y-38380520D01*
X22580520Y-38268716D01*
X22580520Y-38268714D01*
X22590723Y-38258512D01*
X22590727Y-38258506D01*
X22643684Y-38205549D01*
X22669363Y-38185845D01*
X22680923Y-38179172D01*
X22685616Y-38176463D01*
X22736687Y-38146977D01*
X22765192Y-38130520D01*
X22876996Y-38018716D01*
X22876996Y-38018714D01*
X22887200Y-38008511D01*
X22887203Y-38008506D01*
X23757892Y-37137819D01*
X23819215Y-37104334D01*
X23845573Y-37101500D01*
X45887202Y-37101500D01*
X45954241Y-37121185D01*
X45980703Y-37144054D01*
X45988587Y-37153105D01*
X46019480Y-37206613D01*
X46131284Y-37318417D01*
X46131286Y-37318418D01*
X46141371Y-37328503D01*
X46723718Y-37910850D01*
X46723728Y-37910861D01*
X46728058Y-37915191D01*
X46728059Y-37915192D01*
X46839863Y-38026996D01*
X46839865Y-38026997D01*
X46839869Y-38027000D01*
X46910343Y-38067688D01*
X46910347Y-38067689D01*
X46910348Y-38067690D01*
X46976794Y-38106053D01*
X47129522Y-38146977D01*
X47141720Y-38146977D01*
X47208759Y-38166662D01*
X47210611Y-38167875D01*
X47342298Y-38255866D01*
X47342311Y-38255873D01*
X47473685Y-38310289D01*
X47487987Y-38316213D01*
X47642637Y-38346975D01*
X47642640Y-38346976D01*
X47642642Y-38346976D01*
X47800328Y-38346976D01*
X47800329Y-38346975D01*
X47954981Y-38316213D01*
X48100663Y-38255870D01*
X48231773Y-38168265D01*
X48343273Y-38056765D01*
X48430878Y-37925655D01*
X48491221Y-37779973D01*
X48521984Y-37625318D01*
X48521984Y-37467634D01*
X48521984Y-37467631D01*
X48521983Y-37467629D01*
X48516019Y-37437645D01*
X48491221Y-37312979D01*
X48481583Y-37289711D01*
X48430881Y-37167303D01*
X48430874Y-37167290D01*
X48343273Y-37036187D01*
X48343270Y-37036183D01*
X48231776Y-36924689D01*
X48205608Y-36907204D01*
X48160804Y-36853591D01*
X48150500Y-36804102D01*
X48150500Y-36759109D01*
X48150499Y-36759107D01*
X48136726Y-36689865D01*
X48119737Y-36604457D01*
X48094770Y-36544181D01*
X48059397Y-36458781D01*
X48059390Y-36458768D01*
X47971789Y-36327665D01*
X47971786Y-36327661D01*
X47860292Y-36216167D01*
X47860288Y-36216164D01*
X47729185Y-36128563D01*
X47729172Y-36128556D01*
X47583501Y-36068218D01*
X47583491Y-36068215D01*
X47428149Y-36037315D01*
X47366238Y-36004930D01*
X47364660Y-36003379D01*
X47099636Y-35738355D01*
X47099634Y-35738352D01*
X46980763Y-35619481D01*
X46980755Y-35619475D01*
X46891969Y-35568215D01*
X46891968Y-35568215D01*
X46843831Y-35540423D01*
X46691103Y-35499499D01*
X46532989Y-35499499D01*
X46525393Y-35499499D01*
X46525377Y-35499500D01*
X23386670Y-35499500D01*
X23386654Y-35499499D01*
X23379058Y-35499499D01*
X23220943Y-35499499D01*
X23168860Y-35513455D01*
X23068214Y-35540423D01*
X23068209Y-35540426D01*
X22931290Y-35619475D01*
X22931282Y-35619481D01*
X21687584Y-36863181D01*
X21626261Y-36896666D01*
X21599903Y-36899500D01*
X11500098Y-36899500D01*
X11433059Y-36879815D01*
X11412417Y-36863181D01*
X2136819Y-27587583D01*
X2103334Y-27526260D01*
X2100500Y-27499902D01*
X2100500Y-23822565D01*
X2120185Y-23755526D01*
X2172989Y-23709771D01*
X2242147Y-23699827D01*
X2276010Y-23709770D01*
X2302393Y-23721819D01*
X2357581Y-23747023D01*
X2357582Y-23747023D01*
X2357584Y-23747024D01*
X2500000Y-23767500D01*
X3535463Y-23767500D01*
X3602502Y-23787185D01*
X3643802Y-23831180D01*
X3703627Y-23938630D01*
X3708286Y-23945874D01*
X3738307Y-23992556D01*
X3904218Y-24217753D01*
X3945449Y-24266861D01*
X3952373Y-24274118D01*
X4138523Y-24469234D01*
X4138546Y-24469256D01*
X4185653Y-24512740D01*
X4185654Y-24512740D01*
X4402801Y-24689048D01*
X4455325Y-24726402D01*
X4455330Y-24726405D01*
X4455337Y-24726410D01*
X4574638Y-24800275D01*
X4574639Y-24800275D01*
X4603043Y-24817888D01*
X4603292Y-24818016D01*
X4605638Y-24819468D01*
X4605639Y-24819469D01*
X4621933Y-24829558D01*
X4630316Y-24831861D01*
X4644454Y-24839104D01*
X4676391Y-24855466D01*
X4676395Y-24855467D01*
X4815827Y-24890928D01*
X4815830Y-24890928D01*
X4815833Y-24890929D01*
X4883920Y-24898190D01*
X4926994Y-24899251D01*
X4993527Y-24920580D01*
X5012679Y-24936602D01*
X5062663Y-24987819D01*
X5073659Y-24999086D01*
X5127958Y-25040776D01*
X5127969Y-25040783D01*
X5197220Y-25085480D01*
X5332440Y-25134646D01*
X5340575Y-25136345D01*
X5365954Y-25141648D01*
X5365953Y-25141649D01*
X5366022Y-25141661D01*
X5448890Y-25159032D01*
X5502490Y-25170268D01*
X5502514Y-25170272D01*
X5566275Y-25179442D01*
X5566289Y-25179444D01*
X5845131Y-25201531D01*
X5895199Y-25202310D01*
X5909228Y-25202529D01*
X5909232Y-25202528D01*
X5909246Y-25202529D01*
X6188640Y-25189138D01*
X6252365Y-25182013D01*
X6527817Y-25133360D01*
X6590126Y-25118224D01*
X6857202Y-25035093D01*
X6917094Y-25012192D01*
X7171498Y-24895920D01*
X7228009Y-24865621D01*
X7465647Y-24718079D01*
X7517869Y-24680869D01*
X7734917Y-24504431D01*
X7772977Y-24469256D01*
X7782006Y-24460911D01*
X7782017Y-24460900D01*
X7974954Y-24258434D01*
X7974954Y-24258433D01*
X7974974Y-24258413D01*
X8016175Y-24209282D01*
X8181955Y-23983987D01*
X8216607Y-23930035D01*
X8271536Y-23831241D01*
X8321317Y-23782217D01*
X8379910Y-23767500D01*
X9500000Y-23767500D01*
X9571940Y-23762355D01*
X9709992Y-23721819D01*
X9831032Y-23644031D01*
X9925254Y-23535294D01*
X9985024Y-23404416D01*
X10005500Y-23262000D01*
X10005500Y-21738000D01*
X10000355Y-21666060D01*
X9959819Y-21528008D01*
X9882031Y-21406968D01*
X9868789Y-21395494D01*
X9773299Y-21312750D01*
X9773297Y-21312748D01*
X9773294Y-21312746D01*
X9773290Y-21312744D01*
X9642419Y-21252976D01*
X9642414Y-21252975D01*
X9500000Y-21232500D01*
X8387959Y-21232500D01*
X8320920Y-21212815D01*
X8279620Y-21168821D01*
X8256452Y-21127210D01*
X8215764Y-21054131D01*
X8181080Y-21000197D01*
X8015168Y-20775000D01*
X7973938Y-20725894D01*
X7973926Y-20725881D01*
X7780863Y-20523521D01*
X7780855Y-20523513D01*
X7780853Y-20523511D01*
X7733736Y-20480017D01*
X7733727Y-20480009D01*
X7733723Y-20480006D01*
X7516593Y-20303713D01*
X7516594Y-20303713D01*
X7475775Y-20274684D01*
X7464062Y-20266354D01*
X7464057Y-20266351D01*
X7464053Y-20266348D01*
X7345223Y-20192774D01*
X7345152Y-20192730D01*
X7345151Y-20192730D01*
X7316344Y-20174867D01*
X7242995Y-20137289D01*
X7242988Y-20137286D01*
X7103558Y-20101826D01*
X7035457Y-20094564D01*
X6992391Y-20093503D01*
X6925857Y-20072173D01*
X6906706Y-20056151D01*
X6845730Y-19993671D01*
X6845729Y-19993670D01*
X6845727Y-19993668D01*
X6791428Y-19951978D01*
X6767711Y-19936670D01*
X6722167Y-19907275D01*
X6722163Y-19907273D01*
X6722161Y-19907272D01*
X6586942Y-19858107D01*
X6553259Y-19851070D01*
X6553152Y-19851047D01*
X6416903Y-19822487D01*
X6416872Y-19822481D01*
X6353100Y-19813310D01*
X6142608Y-19796638D01*
X6074255Y-19791224D01*
X6073474Y-19791211D01*
X6010156Y-19790225D01*
X6010138Y-19790226D01*
X5730743Y-19803617D01*
X5667021Y-19810743D01*
X5391583Y-19859392D01*
X5329252Y-19874533D01*
X5062185Y-19957662D01*
X5002290Y-19980564D01*
X4747874Y-20096843D01*
X4691384Y-20127132D01*
X4691378Y-20127135D01*
X4492227Y-20250783D01*
X4455481Y-20273598D01*
X4453733Y-20274683D01*
X4453731Y-20274684D01*
X4401534Y-20311876D01*
X4401510Y-20311894D01*
X4184489Y-20488310D01*
X4184451Y-20488343D01*
X4137383Y-20531843D01*
X4137372Y-20531854D01*
X3944418Y-20734338D01*
X3903211Y-20783476D01*
X3824375Y-20890615D01*
X3768788Y-20932944D01*
X3699139Y-20938502D01*
X3637543Y-20905522D01*
X3603555Y-20844477D01*
X3600500Y-20817123D01*
X3600500Y-18800097D01*
X3620185Y-18733058D01*
X3636819Y-18712416D01*
X11462416Y-10886819D01*
X11523739Y-10853334D01*
X11550097Y-10850500D01*
X12400852Y-10850500D01*
X12467891Y-10870185D01*
G37*
%TD.AperFunction*%
%TA.AperFunction,Conductor*%
G36*
X59003736Y499274D02*
G01*
X59293794Y481728D01*
X59308659Y479923D01*
X59590798Y428219D01*
X59605336Y424635D01*
X59879167Y339306D01*
X59893168Y333997D01*
X60154736Y216275D01*
X60167995Y209316D01*
X60290727Y135122D01*
X60413465Y60924D01*
X60425776Y52426D01*
X60651573Y-124473D01*
X60662781Y-134403D01*
X60865596Y-337218D01*
X60875525Y-348425D01*
X60995481Y-501538D01*
X61052422Y-574217D01*
X61060926Y-586537D01*
X61076456Y-612227D01*
X61209316Y-832004D01*
X61216275Y-845263D01*
X61333997Y-1106831D01*
X61339306Y-1120832D01*
X61424635Y-1394663D01*
X61428219Y-1409201D01*
X61479923Y-1691340D01*
X61481728Y-1706205D01*
X61499274Y-1996262D01*
X61499500Y-2003749D01*
X61499500Y-33254865D01*
X61479815Y-33321904D01*
X61427011Y-33367659D01*
X61357853Y-33377603D01*
X61328048Y-33369427D01*
X61323780Y-33367659D01*
X61233497Y-33330263D01*
X61233494Y-33330262D01*
X61233491Y-33330261D01*
X61078845Y-33299500D01*
X61078842Y-33299500D01*
X60921158Y-33299500D01*
X60921155Y-33299500D01*
X60766510Y-33330261D01*
X60766498Y-33330264D01*
X60620827Y-33390602D01*
X60620814Y-33390609D01*
X60489711Y-33478210D01*
X60489707Y-33478213D01*
X60378213Y-33589707D01*
X60378210Y-33589711D01*
X60327102Y-33666200D01*
X60273490Y-33711005D01*
X60204165Y-33719712D01*
X60141137Y-33689557D01*
X60104418Y-33630114D01*
X60100000Y-33597309D01*
X60100000Y-30700000D01*
X58248541Y-30700000D01*
X58227295Y-30693761D01*
X58205209Y-30692182D01*
X58194425Y-30684109D01*
X58181502Y-30680315D01*
X58167003Y-30663582D01*
X58149275Y-30650312D01*
X58144566Y-30637689D01*
X58135747Y-30627511D01*
X58132595Y-30605595D01*
X58124857Y-30584848D01*
X58127720Y-30571685D01*
X58125803Y-30558353D01*
X58135001Y-30538210D01*
X58139708Y-30516575D01*
X58152977Y-30498848D01*
X58154828Y-30494797D01*
X58160859Y-30488320D01*
X58178599Y-30470580D01*
X58229463Y-30419716D01*
X58229464Y-30419714D01*
X58581520Y-30067659D01*
X58660577Y-29930728D01*
X58701501Y-29778000D01*
X58701501Y-29619885D01*
X58701501Y-29612290D01*
X58701500Y-29612272D01*
X58701500Y-27190059D01*
X58701501Y-27190046D01*
X58701501Y-27021945D01*
X58701501Y-27021943D01*
X58660577Y-26869215D01*
X58622469Y-26803211D01*
X58622469Y-26803209D01*
X58581524Y-26732290D01*
X58581521Y-26732286D01*
X58581520Y-26732284D01*
X58469716Y-26620480D01*
X58469715Y-26620479D01*
X58465385Y-26616149D01*
X58465374Y-26616139D01*
X50528416Y-18679181D01*
X50494931Y-18617858D01*
X50499915Y-18548166D01*
X50541787Y-18492233D01*
X50607251Y-18467816D01*
X50616097Y-18467500D01*
X51135463Y-18467500D01*
X51202502Y-18487185D01*
X51243802Y-18531180D01*
X51303627Y-18638630D01*
X51329706Y-18679181D01*
X51338307Y-18692556D01*
X51504218Y-18917753D01*
X51545449Y-18966861D01*
X51582312Y-19005499D01*
X51738523Y-19169234D01*
X51738546Y-19169256D01*
X51785653Y-19212740D01*
X51785654Y-19212740D01*
X52002801Y-19389048D01*
X52055325Y-19426402D01*
X52055330Y-19426405D01*
X52055337Y-19426410D01*
X52174638Y-19500275D01*
X52174639Y-19500275D01*
X52203043Y-19517888D01*
X52203292Y-19518016D01*
X52205638Y-19519468D01*
X52205639Y-19519469D01*
X52221933Y-19529558D01*
X52230316Y-19531861D01*
X52276385Y-19555463D01*
X52276391Y-19555466D01*
X52276395Y-19555467D01*
X52415827Y-19590928D01*
X52415830Y-19590928D01*
X52415833Y-19590929D01*
X52483920Y-19598190D01*
X52526994Y-19599251D01*
X52593527Y-19620580D01*
X52612679Y-19636602D01*
X52673657Y-19699084D01*
X52673659Y-19699086D01*
X52727958Y-19740776D01*
X52727969Y-19740783D01*
X52797220Y-19785480D01*
X52932440Y-19834646D01*
X52940575Y-19836345D01*
X52965954Y-19841648D01*
X52965953Y-19841649D01*
X52966022Y-19841661D01*
X53044486Y-19858109D01*
X53102490Y-19870268D01*
X53102514Y-19870272D01*
X53166275Y-19879442D01*
X53166289Y-19879444D01*
X53445131Y-19901531D01*
X53495199Y-19902310D01*
X53509228Y-19902529D01*
X53509232Y-19902528D01*
X53509246Y-19902529D01*
X53788640Y-19889138D01*
X53852365Y-19882013D01*
X54127817Y-19833360D01*
X54190126Y-19818224D01*
X54457202Y-19735093D01*
X54517094Y-19712192D01*
X54771498Y-19595920D01*
X54828009Y-19565621D01*
X55065647Y-19418079D01*
X55117869Y-19380869D01*
X55334917Y-19204431D01*
X55372977Y-19169256D01*
X55382006Y-19160911D01*
X55382017Y-19160900D01*
X55574954Y-18958434D01*
X55574954Y-18958433D01*
X55574974Y-18958413D01*
X55616175Y-18909282D01*
X55781955Y-18683987D01*
X55816607Y-18630035D01*
X55871536Y-18531241D01*
X55921317Y-18482217D01*
X55979910Y-18467500D01*
X57100000Y-18467500D01*
X57171940Y-18462355D01*
X57309992Y-18421819D01*
X57431032Y-18344031D01*
X57525254Y-18235294D01*
X57585024Y-18104416D01*
X57605500Y-17962000D01*
X57605500Y-16438000D01*
X57600355Y-16366060D01*
X57559819Y-16228008D01*
X57519133Y-16164700D01*
X57482032Y-16106969D01*
X57482028Y-16106965D01*
X57373299Y-16012750D01*
X57373297Y-16012748D01*
X57373294Y-16012746D01*
X57373290Y-16012744D01*
X57242419Y-15952976D01*
X57242414Y-15952975D01*
X57100000Y-15932500D01*
X55987959Y-15932500D01*
X55920920Y-15912815D01*
X55879620Y-15868821D01*
X55836524Y-15791418D01*
X55815764Y-15754131D01*
X55781080Y-15700197D01*
X55615168Y-15475000D01*
X55573938Y-15425894D01*
X55573926Y-15425881D01*
X55380863Y-15223521D01*
X55380855Y-15223513D01*
X55368579Y-15212181D01*
X55333736Y-15180017D01*
X55333727Y-15180009D01*
X55333723Y-15180006D01*
X55116593Y-15003713D01*
X55116594Y-15003713D01*
X55105137Y-14995565D01*
X55064062Y-14966354D01*
X55064057Y-14966351D01*
X55064053Y-14966348D01*
X54945223Y-14892774D01*
X54945152Y-14892730D01*
X54945151Y-14892730D01*
X54916344Y-14874867D01*
X54842995Y-14837289D01*
X54842988Y-14837286D01*
X54703558Y-14801826D01*
X54635457Y-14794564D01*
X54592391Y-14793503D01*
X54525857Y-14772173D01*
X54506706Y-14756151D01*
X54445730Y-14693671D01*
X54445729Y-14693670D01*
X54445727Y-14693668D01*
X54391428Y-14651978D01*
X54337079Y-14616900D01*
X54322167Y-14607275D01*
X54322163Y-14607273D01*
X54322161Y-14607272D01*
X54186942Y-14558107D01*
X54153259Y-14551070D01*
X54153152Y-14551047D01*
X54016903Y-14522487D01*
X54016872Y-14522481D01*
X53953100Y-14513310D01*
X53743965Y-14496745D01*
X53674255Y-14491224D01*
X53673474Y-14491211D01*
X53610156Y-14490225D01*
X53610138Y-14490226D01*
X53330743Y-14503617D01*
X53267021Y-14510743D01*
X52991583Y-14559392D01*
X52929252Y-14574533D01*
X52662185Y-14657662D01*
X52602290Y-14680564D01*
X52347874Y-14796843D01*
X52291384Y-14827132D01*
X52291378Y-14827135D01*
X52053733Y-14974683D01*
X52053731Y-14974684D01*
X52001534Y-15011876D01*
X52001510Y-15011894D01*
X51784489Y-15188310D01*
X51784451Y-15188343D01*
X51737383Y-15231843D01*
X51737372Y-15231854D01*
X51544418Y-15434338D01*
X51503205Y-15483483D01*
X51337439Y-15708760D01*
X51337433Y-15708769D01*
X51302793Y-15762701D01*
X51302785Y-15762715D01*
X51289383Y-15786819D01*
X51243824Y-15868758D01*
X51194044Y-15917783D01*
X51135451Y-15932500D01*
X50099997Y-15932500D01*
X50028059Y-15937644D01*
X49890005Y-15978182D01*
X49768969Y-16055967D01*
X49768965Y-16055971D01*
X49674750Y-16164700D01*
X49674744Y-16164709D01*
X49614976Y-16295580D01*
X49614975Y-16295585D01*
X49594500Y-16437999D01*
X49594500Y-17445903D01*
X49574815Y-17512942D01*
X49522011Y-17558697D01*
X49452853Y-17568641D01*
X49389297Y-17539616D01*
X49382819Y-17533584D01*
X48436915Y-16587680D01*
X48403430Y-16526357D01*
X48408414Y-16456665D01*
X48436911Y-16412323D01*
X51575685Y-13273548D01*
X51637006Y-13240065D01*
X51706698Y-13245049D01*
X51710798Y-13246663D01*
X51735706Y-13256980D01*
X51766497Y-13269735D01*
X51766499Y-13269735D01*
X51766503Y-13269737D01*
X51921153Y-13300499D01*
X51921156Y-13300500D01*
X51921158Y-13300500D01*
X52078844Y-13300500D01*
X52078845Y-13300499D01*
X52233497Y-13269737D01*
X52379179Y-13209394D01*
X52510289Y-13121789D01*
X52621789Y-13010289D01*
X52709394Y-12879179D01*
X52769737Y-12733497D01*
X52800500Y-12578842D01*
X52800500Y-12421158D01*
X52800500Y-12421155D01*
X52800499Y-12421153D01*
X52769738Y-12266510D01*
X52769737Y-12266503D01*
X52769735Y-12266498D01*
X52709397Y-12120827D01*
X52709390Y-12120814D01*
X52621789Y-11989711D01*
X52621786Y-11989707D01*
X52510292Y-11878213D01*
X52510288Y-11878210D01*
X52379185Y-11790609D01*
X52379172Y-11790602D01*
X52233501Y-11730264D01*
X52233489Y-11730261D01*
X52078845Y-11699500D01*
X52078842Y-11699500D01*
X51921158Y-11699500D01*
X51921155Y-11699500D01*
X51766510Y-11730261D01*
X51766498Y-11730264D01*
X51620827Y-11790602D01*
X51620814Y-11790609D01*
X51489125Y-11878602D01*
X51428874Y-11897467D01*
X51429002Y-11898439D01*
X51423427Y-11899173D01*
X51422447Y-11899480D01*
X51420996Y-11899493D01*
X51420942Y-11899500D01*
X51268215Y-11940423D01*
X51268214Y-11940423D01*
X51268212Y-11940424D01*
X51268209Y-11940425D01*
X51218096Y-11969359D01*
X51218095Y-11969360D01*
X51182853Y-11989707D01*
X51131285Y-12019479D01*
X51131282Y-12019481D01*
X51019478Y-12131286D01*
X47587680Y-15563083D01*
X47526357Y-15596568D01*
X47456665Y-15591584D01*
X47412318Y-15563083D01*
X46386590Y-14537355D01*
X46386588Y-14537352D01*
X46267717Y-14418481D01*
X46267716Y-14418480D01*
X46169163Y-14361581D01*
X46169162Y-14361580D01*
X46130783Y-14339422D01*
X46074881Y-14324443D01*
X45978057Y-14298499D01*
X45819943Y-14298499D01*
X45812347Y-14298499D01*
X45812331Y-14298500D01*
X36266197Y-14298500D01*
X36199158Y-14278815D01*
X36178516Y-14262181D01*
X35903690Y-13987355D01*
X35903688Y-13987352D01*
X35784817Y-13868481D01*
X35784816Y-13868480D01*
X35680071Y-13808006D01*
X35680070Y-13808005D01*
X35647883Y-13789422D01*
X35591981Y-13774443D01*
X35495157Y-13748499D01*
X35337043Y-13748499D01*
X35329447Y-13748499D01*
X35329431Y-13748500D01*
X28349097Y-13748500D01*
X28282058Y-13728815D01*
X28261416Y-13712181D01*
X19322662Y-4773427D01*
X19289177Y-4712104D01*
X19287870Y-4666352D01*
X19300500Y-4586611D01*
X19300500Y-4413389D01*
X19273402Y-4242299D01*
X19219873Y-4077555D01*
X19141232Y-3923212D01*
X19039414Y-3783072D01*
X18916928Y-3660586D01*
X18776788Y-3558768D01*
X18622445Y-3480127D01*
X18457701Y-3426598D01*
X18457699Y-3426597D01*
X18457698Y-3426597D01*
X18326271Y-3405781D01*
X18286611Y-3399500D01*
X18113389Y-3399500D01*
X18073728Y-3405781D01*
X17942302Y-3426597D01*
X17777552Y-3480128D01*
X17623211Y-3558768D01*
X17551600Y-3610797D01*
X17483072Y-3660586D01*
X17483070Y-3660588D01*
X17483069Y-3660588D01*
X17360588Y-3783069D01*
X17360588Y-3783070D01*
X17360586Y-3783072D01*
X17326331Y-3830220D01*
X17258768Y-3923211D01*
X17180128Y-4077552D01*
X17126597Y-4242302D01*
X17112398Y-4331953D01*
X17099500Y-4413389D01*
X17099500Y-4586611D01*
X17099991Y-4589711D01*
X17126543Y-4757359D01*
X17126598Y-4757701D01*
X17180127Y-4922445D01*
X17258768Y-5076788D01*
X17360586Y-5216928D01*
X17483072Y-5339414D01*
X17623212Y-5441232D01*
X17777555Y-5519873D01*
X17942299Y-5573402D01*
X18113389Y-5600500D01*
X18113390Y-5600500D01*
X18286609Y-5600500D01*
X18286611Y-5600500D01*
X18366350Y-5587870D01*
X18435641Y-5596824D01*
X18473427Y-5622662D01*
X26788584Y-13937819D01*
X26822069Y-13999142D01*
X26817085Y-14068834D01*
X26775213Y-14124767D01*
X26709749Y-14149184D01*
X26700903Y-14149500D01*
X19050097Y-14149500D01*
X18983058Y-14129815D01*
X18962416Y-14113181D01*
X14737590Y-9888355D01*
X14737588Y-9888352D01*
X14618717Y-9769481D01*
X14618709Y-9769475D01*
X14522695Y-9714042D01*
X14522693Y-9714041D01*
X14481790Y-9690425D01*
X14481789Y-9690424D01*
X14469263Y-9687067D01*
X14329057Y-9649499D01*
X14170943Y-9649499D01*
X14163347Y-9649499D01*
X14163331Y-9649500D01*
X11336669Y-9649500D01*
X11336653Y-9649499D01*
X11329057Y-9649499D01*
X11170943Y-9649499D01*
X11063587Y-9678265D01*
X11018210Y-9690424D01*
X11018209Y-9690425D01*
X10977307Y-9714041D01*
X10977305Y-9714042D01*
X10881290Y-9769475D01*
X10881282Y-9769481D01*
X2519481Y-18131282D01*
X2519480Y-18131284D01*
X2489174Y-18183776D01*
X2440423Y-18268215D01*
X2399499Y-18420943D01*
X2399499Y-18420945D01*
X2399499Y-18589046D01*
X2399500Y-18589059D01*
X2399500Y-21153206D01*
X2393451Y-21173806D01*
X2392159Y-21195236D01*
X2383803Y-21206662D01*
X2379815Y-21220245D01*
X2363590Y-21234303D01*
X2350917Y-21251635D01*
X2333225Y-21260614D01*
X2327011Y-21266000D01*
X2320131Y-21268895D01*
X2315345Y-21270741D01*
X2290008Y-21278181D01*
X2280918Y-21284022D01*
X2269131Y-21288570D01*
X2246390Y-21290452D01*
X2224495Y-21296881D01*
X2212234Y-21293280D01*
X2199500Y-21294335D01*
X2179351Y-21283623D01*
X2157456Y-21277194D01*
X2149087Y-21267535D01*
X2137806Y-21261538D01*
X2126646Y-21241634D01*
X2111704Y-21224388D01*
X2108361Y-21209022D01*
X2103636Y-21200594D01*
X2104263Y-21190183D01*
X2100500Y-21172881D01*
X2100500Y-17067500D01*
X2120185Y-17000461D01*
X2172989Y-16954706D01*
X2224500Y-16943500D01*
X2540785Y-16943500D01*
X2540801Y-16943501D01*
X2548397Y-16943501D01*
X2706508Y-16943501D01*
X2706511Y-16943501D01*
X2859239Y-16902577D01*
X2910862Y-16872772D01*
X2996170Y-16823520D01*
X3107974Y-16711716D01*
X3107974Y-16711714D01*
X3118178Y-16701511D01*
X3118182Y-16701506D01*
X5758506Y-14061182D01*
X5758511Y-14061178D01*
X5768714Y-14050974D01*
X5768716Y-14050974D01*
X5880520Y-13939170D01*
X5902799Y-13900581D01*
X5934749Y-13845243D01*
X5934750Y-13845241D01*
X5959574Y-13802244D01*
X5959573Y-13802244D01*
X5959577Y-13802239D01*
X6000500Y-13649511D01*
X6000500Y-13491397D01*
X6000500Y-5679765D01*
X6020185Y-5612726D01*
X6021398Y-5610874D01*
X6043373Y-5577987D01*
X6109394Y-5479179D01*
X6169737Y-5333497D01*
X6200500Y-5178842D01*
X6200500Y-5021158D01*
X6200500Y-5021155D01*
X6200499Y-5021153D01*
X6187078Y-4953683D01*
X6169737Y-4866503D01*
X6158020Y-4838216D01*
X6109397Y-4720827D01*
X6109390Y-4720814D01*
X6021789Y-4589711D01*
X6021786Y-4589707D01*
X5910292Y-4478213D01*
X5910288Y-4478210D01*
X5813277Y-4413389D01*
X9599500Y-4413389D01*
X9599500Y-4586611D01*
X9599991Y-4589711D01*
X9626543Y-4757359D01*
X9626598Y-4757701D01*
X9680127Y-4922445D01*
X9758768Y-5076788D01*
X9860586Y-5216928D01*
X9983072Y-5339414D01*
X10123212Y-5441232D01*
X10277555Y-5519873D01*
X10442299Y-5573402D01*
X10613389Y-5600500D01*
X10613390Y-5600500D01*
X10786610Y-5600500D01*
X10786611Y-5600500D01*
X10957701Y-5573402D01*
X11122445Y-5519873D01*
X11276788Y-5441232D01*
X11377115Y-5368339D01*
X11442920Y-5344860D01*
X11510974Y-5360685D01*
X11522878Y-5368334D01*
X11623212Y-5441232D01*
X11777555Y-5519873D01*
X11942299Y-5573402D01*
X12113389Y-5600500D01*
X12113390Y-5600500D01*
X12286610Y-5600500D01*
X12286611Y-5600500D01*
X12457701Y-5573402D01*
X12622445Y-5519873D01*
X12776788Y-5441232D01*
X12877115Y-5368339D01*
X12942920Y-5344860D01*
X13010974Y-5360685D01*
X13022878Y-5368334D01*
X13123212Y-5441232D01*
X13277555Y-5519873D01*
X13442299Y-5573402D01*
X13613389Y-5600500D01*
X13613390Y-5600500D01*
X13786610Y-5600500D01*
X13786611Y-5600500D01*
X13957701Y-5573402D01*
X14122445Y-5519873D01*
X14276788Y-5441232D01*
X14377115Y-5368339D01*
X14442920Y-5344860D01*
X14510974Y-5360685D01*
X14522878Y-5368334D01*
X14623212Y-5441232D01*
X14777555Y-5519873D01*
X14942299Y-5573402D01*
X15113389Y-5600500D01*
X15113390Y-5600500D01*
X15286610Y-5600500D01*
X15286611Y-5600500D01*
X15457701Y-5573402D01*
X15622445Y-5519873D01*
X15776788Y-5441232D01*
X15916928Y-5339414D01*
X16039414Y-5216928D01*
X16141232Y-5076788D01*
X16219873Y-4922445D01*
X16273402Y-4757701D01*
X16300500Y-4586611D01*
X16300500Y-4413389D01*
X16273402Y-4242299D01*
X16219873Y-4077555D01*
X16141232Y-3923212D01*
X16039414Y-3783072D01*
X15916928Y-3660586D01*
X15776788Y-3558768D01*
X15622445Y-3480127D01*
X15457701Y-3426598D01*
X15457699Y-3426597D01*
X15457698Y-3426597D01*
X15326271Y-3405781D01*
X15286611Y-3399500D01*
X15113389Y-3399500D01*
X15073728Y-3405781D01*
X14942302Y-3426597D01*
X14777552Y-3480128D01*
X14623208Y-3558770D01*
X14522885Y-3631659D01*
X14457079Y-3655139D01*
X14389025Y-3639313D01*
X14377115Y-3631659D01*
X14276791Y-3558770D01*
X14276790Y-3558769D01*
X14276788Y-3558768D01*
X14122445Y-3480127D01*
X13957701Y-3426598D01*
X13957699Y-3426597D01*
X13957698Y-3426597D01*
X13826271Y-3405781D01*
X13786611Y-3399500D01*
X13613389Y-3399500D01*
X13573728Y-3405781D01*
X13442302Y-3426597D01*
X13277552Y-3480128D01*
X13123208Y-3558770D01*
X13022885Y-3631659D01*
X12957079Y-3655139D01*
X12889025Y-3639313D01*
X12877115Y-3631659D01*
X12776791Y-3558770D01*
X12776790Y-3558769D01*
X12776788Y-3558768D01*
X12622445Y-3480127D01*
X12457701Y-3426598D01*
X12457699Y-3426597D01*
X12457698Y-3426597D01*
X12326271Y-3405781D01*
X12286611Y-3399500D01*
X12113389Y-3399500D01*
X12073728Y-3405781D01*
X11942302Y-3426597D01*
X11777552Y-3480128D01*
X11623208Y-3558770D01*
X11522885Y-3631659D01*
X11457079Y-3655139D01*
X11389025Y-3639313D01*
X11377115Y-3631659D01*
X11276791Y-3558770D01*
X11276790Y-3558769D01*
X11276788Y-3558768D01*
X11122445Y-3480127D01*
X10957701Y-3426598D01*
X10957699Y-3426597D01*
X10957698Y-3426597D01*
X10826271Y-3405781D01*
X10786611Y-3399500D01*
X10613389Y-3399500D01*
X10573728Y-3405781D01*
X10442302Y-3426597D01*
X10277552Y-3480128D01*
X10123211Y-3558768D01*
X10051600Y-3610797D01*
X9983072Y-3660586D01*
X9983070Y-3660588D01*
X9983069Y-3660588D01*
X9860588Y-3783069D01*
X9860588Y-3783070D01*
X9860586Y-3783072D01*
X9826331Y-3830220D01*
X9758768Y-3923211D01*
X9680128Y-4077552D01*
X9626597Y-4242302D01*
X9612398Y-4331953D01*
X9599500Y-4413389D01*
X5813277Y-4413389D01*
X5779185Y-4390609D01*
X5779172Y-4390602D01*
X5633501Y-4330264D01*
X5633489Y-4330261D01*
X5478845Y-4299500D01*
X5478842Y-4299500D01*
X5321158Y-4299500D01*
X5321155Y-4299500D01*
X5166510Y-4330261D01*
X5166498Y-4330264D01*
X5020827Y-4390602D01*
X5020814Y-4390609D01*
X4889711Y-4478210D01*
X4889707Y-4478213D01*
X4778213Y-4589707D01*
X4778210Y-4589711D01*
X4690609Y-4720814D01*
X4690602Y-4720827D01*
X4630264Y-4866498D01*
X4630261Y-4866510D01*
X4599500Y-5021153D01*
X4599500Y-5178846D01*
X4611977Y-5241572D01*
X4605750Y-5311164D01*
X4562887Y-5366341D01*
X4496997Y-5389585D01*
X4429000Y-5373517D01*
X4402679Y-5353444D01*
X4134574Y-5085339D01*
X4101089Y-5024016D01*
X4100638Y-5021849D01*
X4074935Y-4892636D01*
X4069737Y-4866503D01*
X4058020Y-4838216D01*
X4009397Y-4720827D01*
X4009390Y-4720814D01*
X3921789Y-4589711D01*
X3921786Y-4589707D01*
X3810292Y-4478213D01*
X3810288Y-4478210D01*
X3679185Y-4390609D01*
X3679172Y-4390602D01*
X3533501Y-4330264D01*
X3533489Y-4330261D01*
X3378845Y-4299500D01*
X3378842Y-4299500D01*
X3221158Y-4299500D01*
X3221155Y-4299500D01*
X3066510Y-4330261D01*
X3066498Y-4330264D01*
X2920827Y-4390602D01*
X2920814Y-4390609D01*
X2789711Y-4478210D01*
X2789707Y-4478213D01*
X2678213Y-4589707D01*
X2678210Y-4589711D01*
X2590609Y-4720814D01*
X2590602Y-4720827D01*
X2530264Y-4866498D01*
X2530261Y-4866510D01*
X2499500Y-5021153D01*
X2499500Y-5178846D01*
X2530261Y-5333489D01*
X2530264Y-5333501D01*
X2590602Y-5479172D01*
X2590609Y-5479185D01*
X2678210Y-5610288D01*
X2678213Y-5610292D01*
X2789707Y-5721786D01*
X2789711Y-5721789D01*
X2920814Y-5809390D01*
X2920827Y-5809397D01*
X3066498Y-5869735D01*
X3066503Y-5869737D01*
X3131147Y-5882595D01*
X3221849Y-5900638D01*
X3283760Y-5933023D01*
X3285339Y-5934574D01*
X4063181Y-6712416D01*
X4096666Y-6773739D01*
X4099500Y-6800097D01*
X4099500Y-10946738D01*
X4079815Y-11013777D01*
X4027011Y-11059532D01*
X3957853Y-11069476D01*
X3894297Y-11040451D01*
X3887819Y-11034419D01*
X3820085Y-10966685D01*
X3820078Y-10966679D01*
X3580831Y-10783099D01*
X3319671Y-10632318D01*
X3319661Y-10632314D01*
X3041060Y-10516913D01*
X2749766Y-10438861D01*
X2450793Y-10399501D01*
X2450788Y-10399500D01*
X2450783Y-10399500D01*
X2149217Y-10399500D01*
X2149211Y-10399500D01*
X2149206Y-10399501D01*
X1850233Y-10438861D01*
X1558939Y-10516913D01*
X1280338Y-10632314D01*
X1280328Y-10632318D01*
X1019168Y-10783099D01*
X779921Y-10966679D01*
X779914Y-10966685D01*
X712181Y-11034419D01*
X650858Y-11067904D01*
X581166Y-11062920D01*
X525233Y-11021048D01*
X500816Y-10955584D01*
X500500Y-10946738D01*
X500500Y-3331491D01*
X27999500Y-3331491D01*
X27999500Y-3668508D01*
X28037231Y-4003381D01*
X28037233Y-4003397D01*
X28112223Y-4331953D01*
X28112227Y-4331965D01*
X28223532Y-4650054D01*
X28369752Y-4953683D01*
X28412148Y-5021155D01*
X28549054Y-5239039D01*
X28669110Y-5389585D01*
X28740689Y-5479343D01*
X28759175Y-5502523D01*
X28997477Y-5740825D01*
X29260961Y-5950946D01*
X29546314Y-6130246D01*
X29849949Y-6276469D01*
X30088848Y-6360063D01*
X30168034Y-6387772D01*
X30168046Y-6387776D01*
X30496606Y-6462767D01*
X30831492Y-6500499D01*
X30831493Y-6500500D01*
X30831496Y-6500500D01*
X31168507Y-6500500D01*
X31168507Y-6500499D01*
X31503394Y-6462767D01*
X31831954Y-6387776D01*
X32150051Y-6276469D01*
X32453686Y-6130246D01*
X32739039Y-5950946D01*
X33002523Y-5740825D01*
X33240825Y-5502523D01*
X33450946Y-5239039D01*
X33541135Y-5095504D01*
X48003270Y-5095504D01*
X48003344Y-5102259D01*
X48003488Y-5115577D01*
X48013613Y-5210871D01*
X48013616Y-5210890D01*
X48017900Y-5231941D01*
X48017904Y-5231954D01*
X48063848Y-5362587D01*
X48063851Y-5362592D01*
X48134844Y-5462373D01*
X48140452Y-5470989D01*
X48148399Y-5484384D01*
X48154341Y-5504620D01*
X48232129Y-5625660D01*
X48232307Y-5625814D01*
X48234390Y-5629325D01*
X48235361Y-5633133D01*
X48247878Y-5661865D01*
X48252457Y-5679765D01*
X48252658Y-5680550D01*
X48302109Y-5763799D01*
X48319500Y-5827126D01*
X48319500Y-6026991D01*
X48332928Y-6142727D01*
X48332929Y-6142729D01*
X48385469Y-6276673D01*
X48473618Y-6390389D01*
X48590233Y-6474664D01*
X48610899Y-6481978D01*
X48622291Y-6486660D01*
X48626684Y-6488726D01*
X48626687Y-6488729D01*
X48737744Y-6540967D01*
X48754337Y-6550397D01*
X48860669Y-6622180D01*
X48883508Y-6633241D01*
X48883516Y-6633243D01*
X48883519Y-6633245D01*
X48996607Y-6672282D01*
X48996611Y-6672283D01*
X48996614Y-6672284D01*
X49032009Y-6679967D01*
X49088338Y-6688902D01*
X49139352Y-6694065D01*
X49139360Y-6694065D01*
X49139364Y-6694066D01*
X49164867Y-6695997D01*
X49208454Y-6698190D01*
X49274420Y-6721217D01*
X49317464Y-6776253D01*
X49325957Y-6813901D01*
X49328600Y-6854122D01*
X49329401Y-6864642D01*
X49332810Y-6903992D01*
X49333975Y-6915834D01*
X49341827Y-6987102D01*
X49343931Y-7003672D01*
X49343932Y-7003678D01*
X49384468Y-7141730D01*
X49384469Y-7141732D01*
X49462254Y-7262768D01*
X49468062Y-7269470D01*
X49467607Y-7269864D01*
X49491047Y-7299872D01*
X49503772Y-7324957D01*
X49553682Y-7423340D01*
X49652289Y-7528117D01*
X49673982Y-7545407D01*
X49673989Y-7545411D01*
X49719402Y-7573141D01*
X49745831Y-7594794D01*
X49750180Y-7599498D01*
X49781236Y-7662086D01*
X49773525Y-7731529D01*
X49764674Y-7748377D01*
X49704234Y-7880724D01*
X49704232Y-7880729D01*
X49698751Y-7918845D01*
X49678785Y-7970576D01*
X49635155Y-8035199D01*
X49635152Y-8035206D01*
X49585205Y-8170126D01*
X49585203Y-8170131D01*
X49578983Y-8199060D01*
X49578186Y-8203694D01*
X49569713Y-8232065D01*
X49564340Y-8244431D01*
X49543828Y-8272781D01*
X49531898Y-8295499D01*
X49526785Y-8305504D01*
X49492088Y-8410723D01*
X49489824Y-8415936D01*
X49482399Y-8424831D01*
X49467245Y-8450593D01*
X49456443Y-8462304D01*
X49456441Y-8462307D01*
X49392633Y-8591263D01*
X49392632Y-8591269D01*
X49386289Y-8627381D01*
X49358764Y-8686090D01*
X49338892Y-8709542D01*
X49338891Y-8709543D01*
X49280570Y-8841074D01*
X49280569Y-8841080D01*
X49261667Y-8983707D01*
X49262764Y-9082923D01*
X49262764Y-9082924D01*
X49264981Y-9283736D01*
X49264981Y-9283778D01*
X49268309Y-9585204D01*
X49268539Y-9595879D01*
X49268539Y-9595883D01*
X49293581Y-9737562D01*
X49293582Y-9737564D01*
X49293583Y-9737568D01*
X49309416Y-9769481D01*
X49357528Y-9866458D01*
X49455196Y-9972111D01*
X49462079Y-9977698D01*
X49461364Y-9978578D01*
X49464614Y-9981932D01*
X49481575Y-9996630D01*
X49485916Y-10001975D01*
X49510929Y-10040895D01*
X49533200Y-10060193D01*
X49540043Y-10068618D01*
X49549513Y-10091236D01*
X49562767Y-10111860D01*
X49563609Y-10124902D01*
X49567028Y-10133067D01*
X49564911Y-10145059D01*
X49566105Y-10163536D01*
X49566360Y-10163558D01*
X49566215Y-10165244D01*
X49566273Y-10166129D01*
X49565983Y-10167960D01*
X49565982Y-10167972D01*
X49565726Y-10186582D01*
X49562626Y-10411290D01*
X49559267Y-10654583D01*
X49559641Y-10682223D01*
X49585914Y-10823676D01*
X49585916Y-10823682D01*
X49615228Y-10881496D01*
X49650978Y-10952008D01*
X49749560Y-11056808D01*
X49873675Y-11129590D01*
X50013267Y-11164456D01*
X50084838Y-11171779D01*
X50105053Y-11173438D01*
X50118604Y-11174277D01*
X50135659Y-11175044D01*
X50167225Y-11175930D01*
X50175699Y-11176168D01*
X50175720Y-11176168D01*
X50175740Y-11176169D01*
X50182645Y-11176316D01*
X50243412Y-11177191D01*
X50246739Y-11177228D01*
X50325672Y-11177845D01*
X50327473Y-11177855D01*
X50327903Y-11177858D01*
X50327902Y-11177858D01*
X50422192Y-11178208D01*
X50422193Y-11178208D01*
X50423418Y-11178210D01*
X50423842Y-11178211D01*
X50531549Y-11178288D01*
X50532782Y-11178287D01*
X50589453Y-11178189D01*
X50651158Y-11178083D01*
X50651604Y-11178081D01*
X50652196Y-11178080D01*
X50725002Y-11177796D01*
X50778650Y-11177587D01*
X50779026Y-11177584D01*
X50779651Y-11177582D01*
X50911619Y-11176792D01*
X50911619Y-11176801D01*
X50911921Y-11176790D01*
X50912051Y-11176789D01*
X50912194Y-11176789D01*
X51598578Y-11171964D01*
X51612879Y-11171864D01*
X51660328Y-11169297D01*
X51753703Y-11146063D01*
X51799952Y-11134556D01*
X51799952Y-11134555D01*
X51924131Y-11061886D01*
X52022807Y-10957174D01*
X52035692Y-10931815D01*
X52083607Y-10880966D01*
X52151409Y-10864093D01*
X52217570Y-10886555D01*
X52259510Y-10937527D01*
X52287521Y-11000409D01*
X52340675Y-11062920D01*
X52380724Y-11110019D01*
X52501034Y-11188932D01*
X52638702Y-11230753D01*
X52645564Y-11231805D01*
X52698761Y-11237100D01*
X52698766Y-11237100D01*
X52698771Y-11237101D01*
X52728169Y-11238463D01*
X52740012Y-11238873D01*
X52790408Y-11240025D01*
X52795176Y-11240111D01*
X52864318Y-11241039D01*
X52864340Y-11241039D01*
X52864471Y-11241041D01*
X52864470Y-11241041D01*
X52866937Y-11241068D01*
X52867050Y-11241068D01*
X52867059Y-11241069D01*
X52952693Y-11241754D01*
X52954580Y-11241765D01*
X53054453Y-11242191D01*
X53054919Y-11242192D01*
X53055808Y-11242196D01*
X53120326Y-11242283D01*
X53167782Y-11242348D01*
X53167866Y-11242348D01*
X53168979Y-11242348D01*
X53169051Y-11242348D01*
X53224112Y-11242284D01*
X53290732Y-11242208D01*
X53291355Y-11242206D01*
X53291821Y-11242205D01*
X53416519Y-11241771D01*
X53420897Y-11241756D01*
X53420941Y-11241756D01*
X53421125Y-11241755D01*
X53421465Y-11241754D01*
X54116927Y-11238551D01*
X54180308Y-11234267D01*
X54318853Y-11195452D01*
X54440852Y-11119177D01*
X54536419Y-11011620D01*
X54597813Y-10881496D01*
X54620060Y-10739346D01*
X54620601Y-10695800D01*
X54641116Y-10629013D01*
X54694485Y-10583917D01*
X54739870Y-10573433D01*
X54748977Y-10573086D01*
X54750973Y-10573010D01*
X54750976Y-10573009D01*
X54750997Y-10573009D01*
X54790441Y-10570633D01*
X54790454Y-10570631D01*
X54790462Y-10570631D01*
X54827461Y-10566313D01*
X54846636Y-10564076D01*
X54869901Y-10560031D01*
X54988383Y-10524037D01*
X54990422Y-10523132D01*
X55063260Y-10483349D01*
X55170965Y-10387949D01*
X55181494Y-10375527D01*
X55199204Y-10349337D01*
X55234883Y-10314483D01*
X55295192Y-10275726D01*
X55389414Y-10166989D01*
X55389416Y-10166983D01*
X55391621Y-10163554D01*
X55391920Y-10162141D01*
X55399725Y-10152868D01*
X55412906Y-10133764D01*
X55418389Y-10128216D01*
X55422714Y-10124821D01*
X55434560Y-10112417D01*
X55440632Y-10105946D01*
X55441158Y-10105179D01*
X55446085Y-10100195D01*
X55448121Y-10099067D01*
X55450422Y-10096015D01*
X55550926Y-10003758D01*
X55558456Y-9991267D01*
X55589871Y-9959236D01*
X55588818Y-9957998D01*
X55595568Y-9952254D01*
X55595573Y-9952252D01*
X55690776Y-9844373D01*
X55751730Y-9714042D01*
X55773496Y-9571817D01*
X55776784Y-9209048D01*
X55780072Y-8846280D01*
X55774948Y-8769759D01*
X55734412Y-8631707D01*
X55666776Y-8526464D01*
X55657490Y-8509130D01*
X55656859Y-8507688D01*
X55656849Y-8507648D01*
X55599903Y-8375517D01*
X55598051Y-8373284D01*
X55593425Y-8362712D01*
X55592574Y-8356044D01*
X55585834Y-8339242D01*
X55555794Y-8200450D01*
X55486971Y-8074098D01*
X55481666Y-8066996D01*
X55483094Y-8065929D01*
X55454824Y-8014038D01*
X55444133Y-7964697D01*
X55375281Y-7838360D01*
X55359264Y-7822317D01*
X55337612Y-7793073D01*
X55331656Y-7781909D01*
X55330430Y-7776963D01*
X55322781Y-7755062D01*
X55293954Y-7688361D01*
X55246466Y-7622219D01*
X55242591Y-7614955D01*
X55241213Y-7608309D01*
X55233020Y-7591528D01*
X55199771Y-7478289D01*
X55148326Y-7398241D01*
X55128667Y-7333611D01*
X55128499Y-7324974D01*
X55127536Y-7303478D01*
X55127357Y-7299458D01*
X55096970Y-7158825D01*
X55096970Y-7158824D01*
X55028193Y-7032446D01*
X55028191Y-7032444D01*
X55023953Y-7024656D01*
X55026140Y-7023465D01*
X55006469Y-6970664D01*
X55005628Y-6959017D01*
X54989471Y-6903992D01*
X54965092Y-6820965D01*
X54918836Y-6748989D01*
X54899152Y-6681950D01*
X54899152Y-6584472D01*
X54894007Y-6512532D01*
X54853471Y-6374480D01*
X54782410Y-6263907D01*
X54762726Y-6196868D01*
X54762726Y-6091197D01*
X54762726Y-6091195D01*
X54743102Y-5951714D01*
X54684124Y-5820477D01*
X54684119Y-5820471D01*
X54679885Y-5815524D01*
X54672623Y-5799557D01*
X54661448Y-5786737D01*
X54654515Y-5759741D01*
X54651405Y-5752902D01*
X54650734Y-5748334D01*
X54645960Y-5681575D01*
X54635911Y-5647355D01*
X54634650Y-5638761D01*
X54637982Y-5615083D01*
X54637733Y-5588022D01*
X54656749Y-5518534D01*
X54665306Y-5450051D01*
X54666986Y-5434700D01*
X54669475Y-5408230D01*
X54671559Y-5372643D01*
X54672610Y-5327389D01*
X54670624Y-5269386D01*
X54667527Y-5235690D01*
X54662047Y-5201940D01*
X54656307Y-5166584D01*
X54656303Y-5166564D01*
X54655355Y-5162523D01*
X54653552Y-5154831D01*
X54653548Y-5154820D01*
X54653546Y-5154811D01*
X54621848Y-5061616D01*
X54621846Y-5061613D01*
X54621845Y-5061608D01*
X54615282Y-5047122D01*
X54599490Y-5015293D01*
X54590592Y-5003304D01*
X54508454Y-4892636D01*
X54509880Y-4891577D01*
X54483836Y-4843417D01*
X54483062Y-4843645D01*
X54481995Y-4840011D01*
X54481746Y-4839551D01*
X54481482Y-4838266D01*
X54481468Y-4838219D01*
X54481468Y-4838216D01*
X54440932Y-4700164D01*
X54408726Y-4650051D01*
X54363145Y-4579125D01*
X54363141Y-4579121D01*
X54302683Y-4526733D01*
X54264909Y-4467955D01*
X54264909Y-4398085D01*
X54281787Y-4362652D01*
X54291262Y-4348906D01*
X54336231Y-4212233D01*
X54339107Y-4195973D01*
X54345651Y-4142472D01*
X54348181Y-4105535D01*
X54349003Y-4090061D01*
X54351021Y-4036605D01*
X54351275Y-4027909D01*
X54352626Y-3962083D01*
X54352719Y-3955308D01*
X54353246Y-3881259D01*
X54353259Y-3878074D01*
X54353449Y-3645530D01*
X54348304Y-3573177D01*
X54307768Y-3435125D01*
X54229980Y-3314085D01*
X54229976Y-3314081D01*
X54226960Y-3310600D01*
X54217914Y-3298798D01*
X54207683Y-3283649D01*
X54201631Y-3264172D01*
X54121953Y-3144368D01*
X54102710Y-3128215D01*
X54092983Y-3113813D01*
X54087440Y-3096414D01*
X54077330Y-3081213D01*
X54073639Y-3066011D01*
X54061494Y-2997294D01*
X53997549Y-2868404D01*
X53978106Y-2847372D01*
X53950184Y-2798137D01*
X53922364Y-2703386D01*
X53848885Y-2589052D01*
X53834228Y-2556957D01*
X53811674Y-2480144D01*
X53736481Y-2363142D01*
X53721823Y-2331047D01*
X53700053Y-2256902D01*
X53622265Y-2135862D01*
X53622261Y-2135858D01*
X53619567Y-2132749D01*
X53603113Y-2108465D01*
X53600518Y-2103444D01*
X53565133Y-2016305D01*
X53537556Y-1981593D01*
X53532006Y-1970852D01*
X53529584Y-1958351D01*
X53520981Y-1940188D01*
X53511732Y-1897504D01*
X53503166Y-1857969D01*
X53434314Y-1731632D01*
X53427023Y-1724329D01*
X53393799Y-1663937D01*
X53391163Y-1652223D01*
X53389148Y-1643266D01*
X53379633Y-1626133D01*
X53319294Y-1517479D01*
X53319293Y-1517477D01*
X53216835Y-1416469D01*
X53203981Y-1409569D01*
X53202661Y-1408575D01*
X53201820Y-1408381D01*
X53193737Y-1401855D01*
X53173838Y-1386870D01*
X53171769Y-1384747D01*
X53119200Y-1325400D01*
X53105607Y-1316872D01*
X53095263Y-1306260D01*
X53088708Y-1293882D01*
X53076047Y-1280613D01*
X53064023Y-1259290D01*
X52960904Y-1158950D01*
X52960903Y-1158949D01*
X52957368Y-1157081D01*
X52953818Y-1153794D01*
X52953731Y-1153731D01*
X52953738Y-1153720D01*
X52918829Y-1121400D01*
X52917536Y-1122503D01*
X52911784Y-1115755D01*
X52803809Y-1020661D01*
X52803805Y-1020659D01*
X52673416Y-959840D01*
X52625999Y-952632D01*
X52531168Y-938217D01*
X52124991Y-934947D01*
X51718822Y-931676D01*
X51642806Y-936806D01*
X51642805Y-936806D01*
X51504751Y-977343D01*
X51383716Y-1055128D01*
X51365424Y-1076237D01*
X51313895Y-1109354D01*
X51314383Y-1110422D01*
X51306960Y-1113812D01*
X51306663Y-1114003D01*
X51306323Y-1114102D01*
X51306314Y-1114107D01*
X51185277Y-1191892D01*
X51185277Y-1191893D01*
X51087047Y-1305254D01*
X51083696Y-1308966D01*
X51078673Y-1314310D01*
X51077979Y-1314792D01*
X51023963Y-1372528D01*
X51023529Y-1372991D01*
X51023352Y-1373094D01*
X51000209Y-1392388D01*
X50973477Y-1409569D01*
X50887620Y-1464745D01*
X50887617Y-1464748D01*
X50793402Y-1573477D01*
X50793397Y-1573485D01*
X50769353Y-1626133D01*
X50744948Y-1657866D01*
X50746669Y-1659438D01*
X50740686Y-1665986D01*
X50659752Y-1784935D01*
X50659748Y-1784942D01*
X50659180Y-1786103D01*
X50620076Y-1897497D01*
X50620074Y-1897504D01*
X50615535Y-1917750D01*
X50612904Y-1932277D01*
X50603391Y-1962324D01*
X50601663Y-1966049D01*
X50560159Y-2042038D01*
X50553892Y-2058834D01*
X50548533Y-2080671D01*
X50543471Y-2091592D01*
X50532492Y-2104117D01*
X50521956Y-2123691D01*
X50498789Y-2148710D01*
X50435446Y-2276111D01*
X50434734Y-2277545D01*
X50434733Y-2277547D01*
X50434733Y-2277549D01*
X50431306Y-2296839D01*
X50413505Y-2337364D01*
X50415353Y-2338396D01*
X50340868Y-2471753D01*
X50314147Y-2589173D01*
X50302949Y-2619446D01*
X50297895Y-2629040D01*
X50267688Y-2668028D01*
X50267332Y-2668655D01*
X50263679Y-2675201D01*
X50239209Y-2740455D01*
X50235561Y-2747381D01*
X50230198Y-2752906D01*
X50219564Y-2770794D01*
X50160878Y-2838521D01*
X50101107Y-2969403D01*
X50095633Y-3007474D01*
X50066607Y-3071029D01*
X50063484Y-3074499D01*
X49991638Y-3151363D01*
X49926978Y-3279904D01*
X49924164Y-3288306D01*
X49921167Y-3287302D01*
X49900111Y-3331158D01*
X49875628Y-3359414D01*
X49875623Y-3359421D01*
X49815854Y-3490295D01*
X49815853Y-3490299D01*
X49798504Y-3610968D01*
X49793055Y-3622898D01*
X49792195Y-3635985D01*
X49778822Y-3654064D01*
X49769479Y-3674524D01*
X49758444Y-3681615D01*
X49750646Y-3692159D01*
X49729620Y-3700139D01*
X49710701Y-3712298D01*
X49696101Y-3712861D01*
X49685324Y-3716952D01*
X49650105Y-3714637D01*
X49619233Y-3708107D01*
X49570664Y-3686118D01*
X49550591Y-3671116D01*
X49415742Y-3620945D01*
X49415732Y-3620943D01*
X49272227Y-3610797D01*
X49272226Y-3610797D01*
X49272222Y-3610797D01*
X49272219Y-3610797D01*
X49219509Y-3614610D01*
X49219389Y-3614618D01*
X49217630Y-3614748D01*
X49211767Y-3615195D01*
X49174145Y-3619486D01*
X49143233Y-3624189D01*
X49143215Y-3624193D01*
X49046566Y-3648852D01*
X48919718Y-3716748D01*
X48919714Y-3716751D01*
X48905246Y-3727394D01*
X48863212Y-3762371D01*
X48808805Y-3787868D01*
X48808809Y-3787881D01*
X48808726Y-3787905D01*
X48806401Y-3788995D01*
X48802670Y-3789683D01*
X48715531Y-3815270D01*
X48664617Y-3830220D01*
X48664615Y-3830220D01*
X48664615Y-3830221D01*
X48541679Y-3909227D01*
X48521020Y-3919910D01*
X48484140Y-3934783D01*
X48484127Y-3934791D01*
X48371269Y-4024008D01*
X48371253Y-4024023D01*
X48355230Y-4040913D01*
X48355227Y-4040916D01*
X48355223Y-4040922D01*
X48281574Y-4142462D01*
X48272370Y-4155151D01*
X48271837Y-4154764D01*
X48265418Y-4164088D01*
X48188906Y-4252389D01*
X48188903Y-4252392D01*
X48129138Y-4383259D01*
X48129135Y-4383272D01*
X48124907Y-4412675D01*
X48098888Y-4472624D01*
X48096056Y-4476153D01*
X48087299Y-4490982D01*
X48087293Y-4490994D01*
X48044386Y-4584097D01*
X48044386Y-4584098D01*
X48017571Y-4725455D01*
X48017571Y-4725456D01*
X48016147Y-4757323D01*
X48016146Y-4757347D01*
X48016146Y-4757359D01*
X48015834Y-4773427D01*
X48015650Y-4782873D01*
X48015710Y-4793378D01*
X48015711Y-4793404D01*
X48018615Y-4844642D01*
X48018619Y-4844698D01*
X48021501Y-4871421D01*
X48021506Y-4871456D01*
X48024873Y-4893003D01*
X48024831Y-4895587D01*
X48025384Y-4927678D01*
X48024902Y-4931489D01*
X48005170Y-5035514D01*
X48003744Y-5067418D01*
X48003270Y-5095504D01*
X33541135Y-5095504D01*
X33630246Y-4953686D01*
X33776469Y-4650051D01*
X33887776Y-4331954D01*
X33962767Y-4003394D01*
X34000500Y-3668504D01*
X34000500Y-3331496D01*
X33962767Y-2996606D01*
X33887776Y-2668046D01*
X33776469Y-2349949D01*
X33630246Y-2046314D01*
X33450946Y-1760961D01*
X33240825Y-1497477D01*
X33002523Y-1259175D01*
X32739039Y-1049054D01*
X32453686Y-869754D01*
X32453683Y-869752D01*
X32150054Y-723532D01*
X31831965Y-612227D01*
X31831953Y-612223D01*
X31503397Y-537233D01*
X31503381Y-537231D01*
X31168508Y-499500D01*
X31168504Y-499500D01*
X30831496Y-499500D01*
X30831491Y-499500D01*
X30496618Y-537231D01*
X30496602Y-537233D01*
X30168046Y-612223D01*
X30168034Y-612227D01*
X29849945Y-723532D01*
X29546316Y-869752D01*
X29260962Y-1049053D01*
X28997477Y-1259174D01*
X28759174Y-1497477D01*
X28549053Y-1760962D01*
X28369752Y-2046316D01*
X28223532Y-2349945D01*
X28112227Y-2668034D01*
X28112223Y-2668046D01*
X28037233Y-2996602D01*
X28037231Y-2996618D01*
X27999500Y-3331491D01*
X500500Y-3331491D01*
X500500Y-2003750D01*
X500726Y-1996263D01*
X518271Y-1706204D01*
X520076Y-1691339D01*
X527245Y-1652223D01*
X571780Y-1409197D01*
X575358Y-1394683D01*
X660700Y-1120806D01*
X665997Y-1106841D01*
X783730Y-845249D01*
X790675Y-832016D01*
X939079Y-586526D01*
X947566Y-574230D01*
X1124480Y-348416D01*
X1134395Y-337225D01*
X1337225Y-134395D01*
X1348416Y-124480D01*
X1574230Y52433D01*
X1586526Y60920D01*
X1832004Y209317D01*
X1845263Y216276D01*
X2106831Y333998D01*
X2120821Y339304D01*
X2394667Y424637D01*
X2409201Y428219D01*
X2691339Y479923D01*
X2706204Y481728D01*
X2996264Y499274D01*
X3003751Y499500D01*
X3065892Y499500D01*
X58934108Y499500D01*
X58996249Y499500D01*
X59003736Y499274D01*
G37*
%TD.AperFunction*%
%TA.AperFunction,Conductor*%
G36*
X51396484Y-29150330D02*
G01*
X51402962Y-29156362D01*
X51479914Y-29233314D01*
X51479921Y-29233320D01*
X51719168Y-29416900D01*
X51980328Y-29567681D01*
X51980329Y-29567681D01*
X51980332Y-29567683D01*
X52106359Y-29619885D01*
X52258939Y-29683086D01*
X52258940Y-29683086D01*
X52258942Y-29683087D01*
X52550232Y-29761138D01*
X52849217Y-29800500D01*
X52849224Y-29800500D01*
X53150776Y-29800500D01*
X53150783Y-29800500D01*
X53363826Y-29772452D01*
X53432860Y-29783217D01*
X53485116Y-29829597D01*
X53504001Y-29896866D01*
X53483521Y-29963667D01*
X53467691Y-29983072D01*
X51949128Y-31501637D01*
X51887805Y-31535122D01*
X51861447Y-31537956D01*
X51447125Y-31537956D01*
X51380086Y-31518271D01*
X51334331Y-31465467D01*
X51324387Y-31396309D01*
X51353412Y-31332753D01*
X51359444Y-31326275D01*
X51400426Y-31285292D01*
X51400429Y-31285289D01*
X51488034Y-31154179D01*
X51548377Y-31008497D01*
X51579140Y-30853842D01*
X51579140Y-30696158D01*
X51579140Y-30696155D01*
X51579139Y-30696153D01*
X51574084Y-30670738D01*
X51548377Y-30541503D01*
X51530152Y-30497504D01*
X51488037Y-30395827D01*
X51488030Y-30395814D01*
X51400429Y-30264711D01*
X51400426Y-30264707D01*
X51288932Y-30153213D01*
X51288926Y-30153208D01*
X51246389Y-30124785D01*
X51201584Y-30071172D01*
X51191281Y-30021684D01*
X51191281Y-29244043D01*
X51210966Y-29177004D01*
X51263770Y-29131249D01*
X51332928Y-29121305D01*
X51396484Y-29150330D01*
G37*
%TD.AperFunction*%
%TD*%
M02*
